<?xml version="1.0" encoding="UTF-8" standalone="no"?>
<!-- Generator: Adobe Illustrator 15.0.0, SVG Export Plug-In . SVG Version: 6.00 Build 0)  -->

<svg
   xmlns:dc="http://purl.org/dc/elements/1.1/"
   xmlns:cc="http://creativecommons.org/ns#"
   xmlns:rdf="http://www.w3.org/1999/02/22-rdf-syntax-ns#"
   xmlns:svg="http://www.w3.org/2000/svg"
   xmlns="http://www.w3.org/2000/svg"
   xmlns:sodipodi="http://sodipodi.sourceforge.net/DTD/sodipodi-0.dtd"
   xmlns:inkscape="http://www.inkscape.org/namespaces/inkscape"
   version="1.1"
   x="0px"
   y="0px"
   width="720.34375"
   height="644.34375"
   viewBox="0 0 720.34376 644.34375"
   enable-background="new 0 0 800 533"
   xml:space="preserve"
   id="svg2"
   inkscape:version="0.48.4 r9939"
   sodipodi:docname="sicilian_flag.svg"
   inkscape:export-filename="/home/pivarski/Dropbox/Elements/cms_rom/2015-03/sicilian_flag.png"
   inkscape:export-xdpi="90"
   inkscape:export-ydpi="90"><metadata
     id="metadata385"><rdf:RDF><cc:Work
         rdf:about=""><dc:format>image/svg+xml</dc:format><dc:type
           rdf:resource="http://purl.org/dc/dcmitype/StillImage" /><dc:title></dc:title></cc:Work></rdf:RDF></metadata><defs
     id="defs383" /><sodipodi:namedview
     pagecolor="#ffffff"
     bordercolor="#666666"
     borderopacity="1"
     objecttolerance="10"
     gridtolerance="10"
     guidetolerance="10"
     inkscape:pageopacity="1"
     inkscape:pageshadow="2"
     inkscape:window-width="634"
     inkscape:window-height="715"
     id="namedview381"
     showgrid="false"
     inkscape:zoom="0.48686679"
     inkscape:cx="287.49559"
     inkscape:cy="291.13597"
     inkscape:window-x="0"
     inkscape:window-y="0"
     inkscape:window-maximized="0"
     inkscape:current-layer="svg2"
     inkscape:object-nodes="false"
     fit-margin-top="10"
     fit-margin-left="10"
     fit-margin-right="10"
     fit-margin-bottom="10"
     showborder="true" /><g
     transform="matrix(-0.12866742,-0.01856595,-0.01856595,0.12866742,832.97439,-89.403487)"
     style="opacity:0.30434798;fill:#000000;stroke:none"
     id="g2995"><path
       inkscape:connector-curvature="0"
       style="fill:#ffffff"
       d="M 756.223,2572.81 C 756.223,2649.42 763.617,2728.25 778.305,2801.33 C 863.366,3224.53 1170.86,3553.3 1578.2,3691.17 L 3226.97,4249.17 C 3173.91,4237.44 3118.88,4230.7 3056.87,4230.7 C 2597.15,4230.7 2198.44,4617.12 2198.44,5121.34 C 2198.44,5715.12 2703.68,6118.05 3224.58,6118.05 C 3296.66,6118.05 3370.56,6111.29 3439.37,6097.76 C 3985.99,5990.24 4359.37,5496.53 4359.37,4955.8 C 4359.37,4870.25 4350.13,4782.33 4333.81,4700.66 L 3992.68,2993.8 C 4105.49,3350.97 4444.65,3571.11 4802.12,3571.11 C 5323.98,3571.11 5752.78,3133.22 5752.78,2590.21 C 5752.78,2522.69 5746.64,2453.73 5734.26,2389.25 C 5630.12,1847 5141.01,1501.43 4635.95,1501.43 C 4276.43,1501.43 4009.04,1652.41 3830.27,1809.48 L 2522.68,2958.32 C 2671.38,2795.84 2734.71,2592.48 2734.71,2405.94 C 2734.71,1922.15 2329.41,1501.37 1798.99,1501.37 C 1530.71,1501.37 1299.68,1604.07 1128.29,1752.38 C 880.809,1966.55 756.223,2275.32 756.223,2572.81 z M 2742.37,3501.37 L 3412.55,2912.58 L 3587.36,3787.36 z"
       id="path2997" /><path
       inkscape:connector-curvature="0"
       d="M 4718.04,2673.13 C 4712.77,2668.1 4705.02,2663.9 4697.94,2662.14 C 4690.39,2660.26 4681.06,2660.42 4673.51,2662.3 C 4665.11,2664.39 4656,2669.22 4649.31,2674.72 C 4641.72,2680.98 4634.59,2690.17 4630.07,2698.9 C 4624.92,2708.86 4621.35,2721.56 4620.17,2732.71 C 4618.82,2745.36 4620.05,2760.23 4623.09,2772.58 C 4626.52,2786.5 4633.33,2801.81 4641.07,2813.88 C 4649.72,2827.35 4662.3,2841.15 4674.7,2851.27 C 4688.44,2862.47 4706.34,2872.78 4722.82,2879.33 C 4740.92,2886.52 4763.04,2891.5 4782.46,2893.06 C 4803.66,2894.76 4828.32,2892.95 4849.1,2888.47 C 4871.65,2883.6 4896.71,2874.1 4916.95,2863.04 C 4938.77,2851.1 4961.82,2833.66 4979.43,2816.08 C 4998.32,2797.21 5016.86,2772.35 5029.78,2748.98 C 5043.59,2724 5055.3,2693 5061.7,2665.18 C 5068.52,2635.56 5071.46,2600.41 5069.93,2570.06 C 5068.3,2537.86 5061.15,2501.13 5050.84,2470.59 C 5039.92,2438.28 5022.14,2402.94 5002.9,2374.78 C 4982.61,2345.09 4954.5,2314.25 4926.97,2291.12 C 4898.01,2266.78 4860.82,2243.47 4826.39,2227.79 C 4790.26,2211.34 4746.12,2198.21 4706.91,2192.01 C 4665.84,2185.52 4617.63,2184.61 4576.32,2189.3 C 4533.15,2194.2 4484.33,2206.68 4444.01,2222.89 C 4401.95,2239.79 4356.31,2265.87 4320.24,2293.33 C 4282.68,2321.93 4244.04,2360.71 4215.39,2398.23 C 4185.6,2437.26 4157.52,2486.77 4139.1,2532.28 C 4119.98,2579.54 4105.43,2636.82 4099.46,2687.45 C 4093.27,2739.95 4094.39,2801.23 4102.25,2853.51 C 4110.4,2907.65 4128.23,2968.57 4150.34,3018.66 C 4173.22,3070.47 4207.59,3126.42 4243.29,3170.39 C 4280.18,3215.83 4329.64,3262.27 4377.17,3296.43 C 4426.23,3331.68 4488.09,3364.54 4544.69,3385.68 C 4603.06,3407.48 4673.5,3423.45 4735.54,3429.18 C 4799.47,3435.09 4873.83,3431.94 4937.07,3420.88 C 5002.18,3409.5 5075.2,3386.33 5135.05,3358.29 C 5196.62,3329.45 5262.88,3286.79 5314.75,3242.84 C 5368.07,3197.67 5422.33,3137.53 5461.98,3079.99 C 5502.7,3020.88 5540.34,2946.69 5564.2,2879 C 5588.68,2809.51 5606.07,2725.92 5611.55,2652.45 C 5617.18,2577.1 5612,2489.67 5597.75,2415.46 C 5583.14,2339.39 5554.62,2254.26 5520.66,2184.64 C 5485.87,2113.31 5434.9,2036.75 5382.7,1976.98 C 5329.26,1915.77 5258.43,1853.71 5190.87,1808.56 C 5121.73,1762.37 5035.2,1719.95 4956.41,1693.38 C 4875.82,1666.2 4779.07,1647.39 4694.18,1642.16 C 4607.4,1636.81 4506.89,1644.02 4421.72,1661.47 C 4334.68,1679.31 4237.45,1713.17 4158.06,1753.06 C 4076.98,1793.81 3990.11,1853.07 3922.44,1913.52 L 2545.26,3123.5 C 2488.12,3172.95 2414.99,3221.15 2346.92,3253.96 C 2280.56,3285.94 2199.46,3312.68 2127.05,3326.22 C 2056.49,3339.4 1973.42,3343.9 1901.88,3338.19 C 1832.22,3332.62 1753.01,3315.71 1687.23,3292.11 C 1623.23,3269.16 1553.15,3233.12 1497.39,3194.22 C 1443.19,3156.4 1386.61,3104.75 1344.2,3054.05 C 1303,3004.81 1263.1,2941.99 1236.25,2883.68 C 1210.19,2827.08 1188.8,2758.09 1178.49,2696.64 C 1168.5,2637.05 1166.03,2567.06 1172.03,2506.94 C 1177.84,2448.7 1193.33,2382.64 1214.24,2327.97 C 1234.47,2275.07 1265.74,2217.33 1299.17,2171.61 C 1331.49,2127.42 1375.33,2081.52 1418.15,2047.39 C 1459.49,2014.44 1512,1982.84 1560.56,1961.95 C 1607.39,1941.8 1664.28,1925.76 1714.76,1918.69 C 1763.39,1911.88 1820.31,1911.44 1869,1917.73 C 1915.82,1923.78 1968.72,1937.85 2012.27,1956.09 C 2054.09,1973.59 2099.49,2000.08 2135.16,2028.05 C 2169.35,2054.87 2204.58,2090.9 2230.41,2125.84 C 2255.13,2159.27 2278.44,2201.48 2293.35,2240.29 C 2307.59,2277.35 2318.29,2322.14 2322.11,2361.66 C 2325.74,2399.31 2324.15,2443.17 2317.55,2480.42 C 2311.28,2515.83 2298.63,2555.59 2283.06,2588.01 C 2268.3,2618.75 2246.58,2651.83 2224.06,2677.43 C 2202.77,2701.64 2174.53,2726.19 2147.46,2743.7 C 2121.94,2760.21 2090.03,2775.23 2060.97,2784.14 C 2033.68,2792.5 2000.98,2797.86 1972.44,2798.39 C 1945.74,2798.89 1914.94,2795.27 1889.15,2788.33 C 1865.12,2781.87 1838.5,2770.64 1817.25,2757.7 C 1797.55,2745.71 1776.78,2728.76 1761.3,2711.67 C 1747.02,2695.91 1733.13,2675.45 1724,2656.25 C 1715.64,2638.65 1708.89,2617 1706.07,2597.73 C 1703.5,2580.19 1703.48,2559.53 1706.31,2542.03 C 1708.87,2526.23 1714.54,2508.44 1721.88,2494.21 C 1728.45,2481.47 1738.31,2467.92 1748.65,2457.99 C 1757.83,2449.18 1770.09,2440.68 1781.72,2435.52 C 1791.97,2430.97 1804.75,2427.71 1815.95,2427.2 C 1825.78,2426.74 1837.3,2428.32 1846.51,2431.77 C 1854.62,2434.81 1863.36,2440.28 1869.37,2446.51 C 1874.77,2452.11 1879.58,2460.11 1881.72,2467.59 C 1883.73,2474.6 1883.98,2483.41 1882.25,2490.5 C 1880.53,2497.58 1880.77,2506.4 1882.78,2513.41 C 1884.93,2520.88 1889.74,2528.89 1895.14,2534.48 C 1901.15,2540.71 1909.89,2546.19 1918,2549.22 C 1927.21,2552.67 1938.73,2554.25 1948.56,2553.8 C 1959.76,2553.28 1972.54,2550.03 1982.79,2545.48 C 1994.42,2540.31 2006.68,2531.82 2015.86,2523 C 2026.2,2513.07 2036.05,2499.52 2042.63,2486.78 C 2049.97,2472.56 2055.64,2454.76 2058.2,2438.96 C 2061.03,2421.46 2061.01,2400.81 2058.44,2383.27 C 2055.62,2363.99 2048.87,2342.34 2040.51,2324.75 C 2031.38,2305.54 2017.49,2285.09 2003.21,2269.33 C 1987.73,2252.24 1966.96,2235.28 1947.26,2223.29 C 1926.01,2210.36 1899.39,2199.12 1875.36,2192.66 C 1849.57,2185.73 1818.77,2182.1 1792.07,2182.6 C 1763.53,2183.13 1730.83,2188.49 1703.54,2196.86 C 1674.48,2205.76 1642.57,2220.79 1617.05,2237.29 C 1589.98,2254.81 1561.74,2279.36 1540.45,2303.57 C 1517.93,2329.17 1496.21,2362.24 1481.45,2392.98 C 1465.88,2425.4 1453.23,2465.16 1446.95,2500.57 C 1440.36,2537.82 1438.77,2581.68 1442.4,2619.34 C 1446.22,2658.85 1456.92,2703.64 1471.16,2740.7 C 1486.07,2779.51 1509.38,2821.72 1534.1,2855.15 C 1559.93,2890.09 1595.15,2926.13 1629.35,2952.94 C 1665.02,2980.91 1710.42,3007.4 1752.24,3024.91 C 1795.79,3043.14 1848.69,3057.21 1895.51,3063.26 C 1944.2,3069.55 2001.12,3069.11 2049.74,3062.3 C 2100.23,3055.24 2157.12,3039.19 2203.95,3019.05 C 2252.51,2998.16 2305.02,2966.55 2346.36,2933.6 C 2389.17,2899.48 2433.02,2853.58 2465.34,2809.38 C 2498.77,2763.66 2530.03,2705.92 2550.27,2653.02 C 2571.18,2598.35 2586.67,2532.3 2592.48,2474.06 C 2598.48,2413.94 2596.01,2343.94 2586.02,2284.36 C 2575.71,2222.9 2554.32,2153.92 2528.26,2097.32 C 2501.41,2039 2461.51,1976.18 2420.31,1926.94 C 2377.9,1876.25 2321.32,1824.6 2267.11,1786.78 C 2211.36,1747.88 2141.28,1711.83 2077.28,1688.88 C 2011.5,1665.29 1932.29,1648.37 1862.63,1642.81 C 1791.09,1637.09 1708.02,1641.59 1637.46,1654.78 C 1565.04,1668.31 1483.95,1695.05 1417.59,1727.04 C 1349.52,1759.84 1276.39,1808.04 1219.25,1857.49 C 1160.67,1908.18 1101.21,1975.44 1057.9,2039.66 C 1013.53,2105.45 972.702,2187.87 947.035,2262.96 C 920.756,2339.85 902.417,2432.22 897.102,2513.3 C 891.664,2596.27 898.195,2692.42 914.58,2773.94 C 931.339,2857.32 963.423,2950.52 1001.34,3026.65 C 1040.1,3104.48 1096.59,3187.92 1154.3,3252.96 C 1213.26,3319.41 1291.2,3386.69 1365.44,3435.49 C 1441.27,3485.34 1536.03,3530.94 1622.22,3559.32 L 3358.68,4147 C 3430.07,4171.76 3508.37,4210.99 3570.82,4253.54 C 3631.71,4295.02 3695.41,4351.88 3743.34,4407.82 C 3790.03,4462.33 3835.47,4532.02 3866.29,4596.84 C 3896.3,4659.95 3921.26,4737.01 3933.71,4805.77 C 3945.83,4872.67 3949.66,4951.38 3943.85,5019.12 C 3938.2,5084.97 3921.76,5159.8 3899.06,5221.87 C 3877.01,5282.17 3842.56,5348.14 3805.49,5400.55 C 3769.5,5451.42 3720.45,5504.44 3672.38,5544.09 C 3625.78,5582.53 3566.39,5619.67 3511.33,5644.54 C 3457.99,5668.62 3393.03,5688.23 3335.24,5697.46 C 3279.31,5706.39 3213.67,5708.18 3157.36,5702.09 C 3102.92,5696.2 3041.25,5681.18 2990.29,5661.16 C 2941.09,5641.84 2887.46,5612.16 2845.09,5580.55 C 2804.23,5550.07 2761.89,5508.83 2730.52,5468.64 C 2700.32,5429.93 2671.48,5380.86 2652.58,5335.54 C 2634.41,5291.97 2620.14,5239.12 2614.16,5192.29 C 2608.41,5147.32 2608.65,5094.76 2615.04,5049.88 C 2621.16,5006.86 2634.76,4958.34 2652.1,4918.5 C 2668.7,4880.38 2693.59,4839.08 2719.75,4806.77 C 2744.72,4775.9 2778.16,4744.24 2810.48,4721.18 C 2841.27,4699.2 2880.04,4678.65 2915.6,4665.74 C 2949.41,4653.46 2990.16,4644.54 3026.02,4641.81 C 3060.03,4639.23 3099.53,4641.5 3132.96,4648.2 C 3164.58,4654.54 3199.96,4666.72 3228.66,4681.41 C 3255.71,4695.25 3284.68,4715.38 3306.92,4736.09 C 3327.81,4755.54 3348.8,4781.18 3363.53,4805.63 C 3377.31,4828.5 3389.58,4856.99 3396.47,4882.79 C 3402.88,4906.83 3406.47,4935.51 3405.89,4960.38 C 3405.35,4983.43 3401.05,5009.89 3393.99,5031.85 C 3387.49,5052.09 3376.72,5074.35 3364.65,5091.86 C 3353.59,5107.9 3338.22,5124.56 3322.94,5136.65 C 3309.03,5147.64 3291.15,5157.99 3274.58,5164.28 C 3259.62,5169.97 3241.37,5173.96 3225.38,5174.71 C 3211.06,5175.39 3194.4,5173.63 3180.63,5169.64 C 3168.41,5166.1 3154.92,5159.72 3144.63,5152.23 C 3135.56,5145.63 3126.36,5136.19 3120.31,5126.75 C 3115,5118.47 3110.61,5107.7 3108.99,5098 C 3107.57,5089.46 3107.94,5079.15 3110.33,5070.83 C 3112.48,5063.36 3117,5055.19 3122.4,5049.6 C 3127.47,5044.35 3134.98,5039.73 3141.98,5037.68 C 3148.98,5035.63 3156.49,5031.01 3161.55,5025.77 C 3166.96,5020.17 3171.48,5012 3173.63,5004.53 C 3176.02,4996.21 3176.39,4985.9 3174.97,4977.36 C 3173.35,4967.66 3168.95,4956.89 3163.65,4948.61 C 3157.6,4939.17 3148.39,4929.73 3139.33,4923.13 C 3129.04,4915.64 3115.55,4909.27 3103.33,4905.73 C 3089.56,4901.74 3072.9,4899.97 3058.58,4900.65 C 3042.59,4901.41 3024.34,4905.39 3009.38,4911.08 C 2992.8,4917.38 2974.93,4927.72 2961.02,4938.72 C 2945.74,4950.8 2930.37,4967.47 2919.31,4983.51 C 2907.24,5001.01 2896.47,5023.27 2889.96,5043.52 C 2882.9,5065.47 2878.6,5091.93 2878.07,5114.98 C 2877.49,5139.86 2881.07,5168.53 2887.49,5192.57 C 2894.38,5218.37 2906.65,5246.86 2920.43,5269.73 C 2935.16,5294.18 2956.15,5319.82 2977.04,5339.28 C 2999.28,5359.99 3028.25,5380.11 3055.3,5393.96 C 3084,5408.64 3119.38,5420.82 3150.99,5427.16 C 3184.43,5433.86 3223.93,5436.13 3257.93,5433.55 C 3293.79,5430.82 3334.55,5421.9 3368.35,5409.62 C 3403.91,5396.71 3442.69,5376.16 3473.48,5354.19 C 3505.8,5331.12 3539.23,5299.46 3564.21,5268.6 C 3590.36,5236.28 3615.26,5194.99 3631.86,5156.87 C 3649.2,5117.02 3662.8,5068.5 3668.92,5025.48 C 3675.31,4980.61 3675.55,4928.04 3669.8,4883.08 C 3663.82,4836.24 3649.55,4783.39 3631.38,4739.82 C 3612.48,4694.51 3583.64,4645.43 3553.43,4606.73 C 3522.07,4566.54 3479.73,4525.3 3438.87,4494.81 C 3396.5,4463.2 3342.87,4433.53 3293.67,4414.2 C 3242.71,4394.19 3181.03,4379.17 3126.6,4373.28 C 3070.29,4367.18 3004.65,4368.97 2948.72,4377.9 C 2890.92,4387.13 2825.97,4406.74 2772.63,4430.83 C 2717.56,4455.69 2658.18,4492.83 2611.57,4531.28 C 2563.51,4570.93 2514.46,4623.95 2478.47,4674.81 C 2441.39,4727.23 2406.94,4793.19 2384.9,4853.49 C 2362.2,4915.56 2345.76,4990.39 2340.11,5056.24 C 2334.3,5123.98 2338.12,5202.69 2350.24,5269.59 C 2362.7,5338.35 2387.66,5415.41 2417.67,5478.52 C 2448.49,5543.34 2493.93,5613.03 2540.62,5667.54 C 2588.55,5723.49 2652.25,5780.34 2713.14,5821.83 C 2775.58,5864.37 2853.89,5903.6 2925.28,5928.37 C 2998.47,5953.75 3086.45,5971.61 3163.72,5977.01 C 3242.89,5982.54 3334.67,5976.69 3412.54,5961.37 C 3492.27,5945.69 3581.43,5915.38 3654.3,5879.45 C 3728.88,5842.67 3808.88,5788.94 3871.29,5733.99 C 3935.12,5677.79 3999.79,5603.4 4046.76,5532.5 C 4094.78,5460.02 4138.79,5369.37 4166.27,5286.88 C 4194.34,5202.59 4213.63,5101.45 4218.77,5012.76 C 4224.03,4922.17 4216.14,4817.3 4197.62,4728.47 L 3838.34,2930.81 C 3824.09,2856.6 3818.91,2769.17 3824.53,2693.82 C 3830.02,2620.35 3847.41,2536.75 3871.89,2467.27 C 3895.75,2399.58 3933.39,2325.39 3974.11,2266.28 C 4013.76,2208.74 4068.02,2148.6 4121.34,2103.43 C 4173.21,2059.48 4239.47,2016.81 4301.04,1987.98 C 4360.89,1959.94 4433.91,1936.77 4499.02,1925.39 C 4562.26,1914.33 4636.61,1911.18 4700.54,1917.09 C 4762.59,1922.82 4833.03,1938.78 4891.4,1960.59 C 4948,1981.73 5009.85,2014.58 5058.92,2049.84 C 5106.45,2083.99 5155.91,2130.44 5192.8,2175.88 C 5228.5,2219.85 5262.87,2275.8 5285.75,2327.61 C 5307.86,2377.7 5325.69,2438.62 5333.84,2492.76 C 5341.7,2545.04 5342.82,2606.31 5336.63,2658.82 C 5330.66,2709.44 5316.11,2766.73 5296.99,2813.99 C 5278.57,2859.5 5250.49,2909.01 5220.7,2948.03 C 5192.05,2985.56 5153.41,3024.34 5115.85,3052.94 C 5079.78,3080.4 5034.14,3106.47 4992.08,3123.38 C 4951.76,3139.58 4902.94,3152.07 4859.77,3156.97 C 4818.46,3161.66 4770.25,3160.75 4729.18,3154.25 C 4689.97,3148.06 4645.83,3134.93 4609.7,3118.48 C 4575.27,3102.8 4538.08,3079.49 4509.12,3055.15 C 4481.59,3032.02 4453.48,3001.18 4433.19,2971.49 C 4413.95,2943.33 4396.17,2907.99 4385.25,2875.68 C 4374.94,2845.13 4367.79,2808.41 4366.16,2776.2 C 4364.63,2745.85 4367.57,2710.7 4374.39,2681.09 C 4380.79,2653.27 4392.5,2622.27 4406.3,2597.29 C 4419.23,2573.92 4437.76,2549.05 4456.66,2530.19 C 4474.27,2512.61 4497.31,2495.17 4519.14,2483.23 C 4539.38,2472.17 4564.44,2462.66 4586.98,2457.8 C 4607.77,2453.31 4632.43,2451.51 4653.63,2453.21 C 4673.05,2454.76 4695.17,2459.74 4713.27,2466.94 C 4729.75,2473.49 4747.64,2483.79 4761.38,2495 C 4773.79,2505.11 4786.37,2518.92 4795.02,2532.39 C 4802.76,2544.45 4809.57,2559.76 4813,2573.68 C 4816.04,2586.04 4817.27,2600.9 4815.92,2613.56 C 4814.74,2624.71 4811.17,2637.41 4806.01,2647.37 C 4801.5,2656.1 4794.37,2665.29 4786.78,2671.54 C 4780.09,2677.05 4770.98,2681.88 4762.58,2683.97 C 4755.03,2685.84 4745.7,2686.01 4738.15,2684.13 C 4731.07,2682.36 4723.32,2678.17 4718.04,2673.13 z M 3501.67,2649.25 L 3770.85,3996.21 L 2469.76,3555.85 z"
       id="path2999" /></g><g
     id="g4571"
     transform="matrix(1,0,0,0.99375062,-47.54509,31.418175)"><g
       id="right_leg"><path
         style="fill:#ffc8a0;stroke:#000000;stroke-width:3;stroke-linecap:round;stroke-linejoin:round;stroke-miterlimit:10"
         inkscape:connector-curvature="0"
         id="path11"
         d="M 557.435,181.771 C 559.668,187.131 545.238,192.318 542.113,196.224 C 538.43,201.178 522.216,216.011 521.931,220.573 C 521.019,235.156 529.112,248.977 535.212,273.698 C 540.701,295.943 542.808,313.02 545.237,318.098 C 546.98,321.74 553.862,331.788 553.049,338.281 C 552.008,346.614 544.76,353.169 539.508,353.776 C 534.255,354.383 523.189,349.827 519.238,349.131 C 515.289,348.437 477.528,344.01 457.432,335.59 C 439.05,327.888 408.517,302.082 408.517,302.082 L 426.746,270.832 C 426.746,270.832 459.591,279.511 478.699,288.932 C 490.098,294.552 517.241,318.879 517.241,318.879 C 517.241,318.879 503.179,303.385 500.704,289.843 C 498.843,279.653 503.786,243.792 498.1,230.077 C 495.875,224.711 486.294,214.973 488.725,208.202 C 491.155,201.431 501.746,204.296 508.777,199.999 C 512.589,197.669 520.607,186.044 530.696,182.464 C 538.768,179.599 540.982,183.332 544.237,182.811 C 549.448,178.993 555.698,177.604 557.435,181.771 z"
         stroke-miterlimit="10" /></g><g
       id="left_leg"><path
         style="fill:#ffc8a0;stroke:#000000;stroke-width:3;stroke-linecap:round;stroke-linejoin:round;stroke-miterlimit:10"
         inkscape:connector-curvature="0"
         id="path14"
         d="M 391.199,435.262 C 383.507,434.201 389.633,420.526 387.812,415.866 C 385.937,411.979 380.034,394.966 375.635,390.343 C 365.561,379.759 346.544,381.839 322.085,374.761 C 300.076,368.393 284.233,361.678 278.62,361.244 C 274.595,360.932 261.79,360.444 256.574,356.495 C 249.878,351.426 247.825,341.873 249.926,337.02 C 252.027,332.168 261.506,324.861 264.082,321.789 C 266.659,318.716 288.386,293.613 310.439,279.068 C 327.076,268.094 376.599,254.668 376.599,254.668 L 386.922,289.86 C 386.922,289.86 367.701,306.557 348.915,316.605 C 328.738,327.397 290.657,337.51 290.657,337.51 C 290.657,337.51 312.39,332.177 325.354,336.805 C 335.11,340.288 363.694,362.499 378.415,364.433 C 384.175,365.189 397.397,361.762 402.047,367.251 C 406.695,372.74 398.92,380.481 399.125,388.719 C 399.237,393.185 406.18,401.89 404.236,412.418 C 402.68,420.842 397.404,423.208 396.228,426.288 C 395.468,430.209 393.828,435.625 391.199,435.262 z"
         stroke-miterlimit="10" /></g><g
       id="top_leg"><path
         style="fill:#ffc8a0;stroke:#000000;stroke-width:3;stroke-linecap:round;stroke-linejoin:round;stroke-miterlimit:10"
         inkscape:connector-curvature="0"
         id="path17"
         d="M 246.702,173.785 C 250.903,169.417 255.729,176.216 265.104,181.25 C 272.636,185.295 298.437,186.979 303.646,183.854 C 316.175,176.337 324.356,164.184 342.714,146.54 C 359.235,130.664 371.928,119.258 375.112,114.615 C 377.394,111.284 382.274,101.723 388.302,99.18 C 396.04,95.915 405.341,98.914 408.492,103.16 C 411.643,107.404 416.048,118.58 417.422,122.348 C 418.795,126.116 427.773,146.744 430.56,173.023 C 433.844,203.992 423.991,242.937 423.991,242.937 L 382.23,240.122 C 382.23,240.122 376.6,202.584 378.945,188.508 C 380.444,179.517 391.069,138.608 391.069,138.608 C 391.069,138.608 381.315,162.56 370.824,171.473 C 362.93,178.181 329.404,189.747 320.368,201.529 C 316.833,206.138 314.062,218.489 305.468,219.531 C 295.871,220.694 288.801,214.843 282.551,205.729 C 276.04,204.167 267.872,201.272 261.197,197.656 C 254.947,194.271 253.824,188.711 253.905,185.416 C 249.658,183.503 243.543,177.069 246.702,173.785 z"
         stroke-miterlimit="10" /></g><g
       id="right_wing"><path
         style="fill:#ebb437;stroke:#000000;stroke-width:2;stroke-linecap:round;stroke-linejoin:round;stroke-miterlimit:10"
         inkscape:connector-curvature="0"
         id="path20"
         d="M 423.003,258.681 C 422.656,273.438 432.726,284.896 432.726,284.896 C 432.726,284.896 437.821,279.081 441.32,279.081 C 445.4,279.081 471.529,292.623 476.216,291.755 C 478.029,291.419 473.622,272.112 469.878,262.067 C 466.319,252.518 459.722,243.403 452.431,240.105 C 448.098,238.146 435.764,236.98 430.556,240.453 C 425.347,243.924 423.121,253.647 423.003,258.681 z"
         stroke-miterlimit="10" /></g><g
       id="left_wing"><path
         style="fill:#ebb432;stroke:#000000;stroke-width:2;stroke-linecap:round;stroke-linejoin:round;stroke-miterlimit:10"
         inkscape:connector-curvature="0"
         id="path23"
         d="M 376.249,258.16 C 376.303,270.747 366.928,285.069 366.928,285.069 C 366.928,285.069 361.432,278.56 357.933,278.56 C 353.854,278.56 326.39,293.316 321.703,292.448 C 319.889,292.112 325.632,271.59 329.375,261.546 C 332.934,251.998 339.531,242.882 346.823,239.584 C 351.156,237.624 363.49,236.459 368.698,239.931 C 373.905,243.404 376.228,253.125 376.249,258.16 z"
         stroke-miterlimit="10" /></g><g
       id="Ebene_119"><path
         style="stroke:#000000;stroke-linecap:round;stroke-linejoin:round"
         inkscape:connector-curvature="0"
         id="path26"
         d="M 336.719,248.351 C 329.019,248.652 320.199,255.3 313.199,257.8 C 314.399,253 319.808,248.202 321.007,243.403 C 317.708,243.056 308.924,247.086 306.424,248.785 C 304.224,252.486 298.698,262.935 296.528,268.75 C 295.052,265.451 297.205,260.46 294.705,262.761 C 291.805,265.26 286.111,272.83 279.514,275.435 C 280.208,272.745 284.205,266.487 282.205,267.188 C 281.005,268.088 270.705,274.074 269.705,275.174 C 268.49,272.918 272.131,269.238 269.531,268.838 C 268.331,269.638 257.09,274 255.989,275 C 254.389,273.8 260.974,269.169 259.374,267.969 C 256.174,268.868 249.145,272.463 246.614,272.049 C 245.646,271.892 250.867,268.11 247.916,268.057 C 242.848,267.966 236.702,268.919 235.59,268.056 C 239.09,266.056 253.799,261.101 255.499,257.5 C 256.599,255.9 248.268,255.22 247.569,253.819 C 249.669,252.719 258.42,249.653 261.111,249.305 C 262.111,247.805 261.814,248.314 262.413,246.614 C 259.201,245.312 252.567,246.033 250.868,245.833 C 254.768,243.733 266.753,239.67 272.396,239.062 C 269.296,236.961 264.611,236.685 261.111,236.284 C 264.31,234.784 269.399,235.2 272.899,235.4 C 278.2,235.799 280.029,235.17 285.33,235.069 C 282.13,233.769 278.821,232.583 275.521,231.684 C 288.487,229.471 295.052,238.455 309.1,236.999 C 304.167,234.634 300.84,230.087 299.74,226.388 C 312.674,230.641 324.654,228.298 333.941,228.732 C 339.741,228.832 350.971,231.817 356.771,232.117 C 359.202,222.482 365.625,216.796 377.691,216.579 C 381.337,212.152 390.191,203.124 401.216,211.718 C 410.677,203.385 415.755,213.15 419.661,213.15 C 434.765,213.15 440.451,223.264 441.841,227.951 C 444.965,224.653 445.747,220.92 447.222,218.75 C 448.438,216.84 449.48,215.538 451.563,213.715 C 451.762,211.715 451.215,209.722 452.517,206.337 C 453.385,203.56 454.167,201.476 453.907,199.219 C 452.518,196.875 450.001,194.445 450.347,191.233 C 447.847,187.233 445.538,181.623 445.139,176.823 C 444.538,168.724 444.981,166.06 446.181,158.16 C 446.962,161.632 448.221,163.514 448.611,163.021 C 449.469,161.937 448.786,150.814 449.74,148.785 C 450.695,151.129 452.734,153.493 453.472,151.823 C 454.342,149.855 454.134,139.674 454.514,137.24 C 454.814,137.24 455.498,148.44 457.9,150.434 C 457.399,147.934 458.643,141.123 460.244,139.323 C 461.025,140.712 461.647,143.919 462.848,144.618 C 463.89,143.142 466.501,131.499 466.401,128.7 C 468.301,132.3 468.752,140.017 468.578,144.271 C 469.967,146.181 471.703,149.132 472.31,153.559 C 473.526,151.736 475.695,148.304 475.695,144.705 C 478.299,155.382 474.654,165.365 476.476,166.58 C 477.021,166.246 479.428,164.063 480.731,158.854 C 481.859,170.486 480.123,175.695 478.734,178.906 C 479.255,179.08 481.685,178.125 482.726,177.083 C 480.991,183.593 477.345,189.235 471.182,191.84 C 469.793,198.176 466.716,197.094 463.716,200.694 C 463.975,205.642 463.195,213.194 461.112,217.882 C 462.066,216.667 475.089,206.25 483.508,194.531 C 483.248,201.649 479.862,209.114 475.956,216.666 C 473.352,221.006 469.141,226.124 466.842,228.124 C 461.373,233.246 455.732,237.889 449.612,239.712 C 441.929,244.66 449.536,254.835 443.492,261.327 C 439.976,265.103 435.029,266.666 429.69,264.843 C 429.943,269.789 432.208,275.694 438.023,280.207 C 436.461,300.65 420.922,308.593 413.414,313.801 C 415.15,317.099 414.993,320.74 414.847,321.354 C 414.047,323.953 413.903,323.1 414.102,325.799 C 415.103,330.4 418.703,333.699 422.103,336.699 C 420.403,336.499 418.803,336.299 417.103,336.099 C 418.503,338.899 420.303,341.798 423.603,342.498 C 428.603,343.698 436.724,346.876 441.323,349.477 C 436.724,351.976 428.61,349.179 424.31,352.081 C 426.74,355.206 431.097,357.843 434.203,358.599 C 439,359.899 444.1,360.2 449,360 C 451.1,360.101 456.597,360.851 459.028,361.72 C 466.58,364.237 470.093,367.403 475.694,371.702 C 474.294,371.602 470.399,371.4 469,371.3 C 471.1,374.101 483.391,378.291 485.591,380.99 C 482.031,381.858 479.271,383.23 481.771,385.33 C 483.971,386.431 488.873,387.863 490.972,389.063 C 489.073,388.564 483.3,389.4 481.4,389 C 484.983,391.407 492.536,393.316 497.049,394.879 C 493.489,395.921 485.42,395.344 483.42,394.444 C 485.417,396.789 486.806,398.438 488.889,400.347 C 483.16,399.392 477.114,396.453 474.913,395.052 C 475,396.788 477.431,399.74 479.167,402.344 C 476.467,402.444 464.421,397.285 463.021,395.486 C 461.522,396.087 464.652,400.623 465.452,401.824 C 462.054,400.824 454.862,395.747 452.691,394.184 C 452.952,396.875 453.645,400.087 453.212,401.215 C 448.958,394.792 433.333,389.931 431.944,378.733 C 429.045,376.733 427.199,374.799 426.399,371.299 C 426.099,369.298 423.576,366.499 421.875,365.798 C 421.832,371.909 420.092,381.337 419.792,381.337 C 416.992,371.735 414.16,366.48 408.16,358.68 C 406.251,356.943 404.156,351.756 402.257,352.256 C 400.857,352.558 398.843,357.025 397.743,356.423 C 395.784,356.258 399.315,350.172 398.091,348.263 C 397.064,346.661 391.146,349.131 388.716,347.395 C 387.115,341.195 387.261,335.726 387.761,329.426 C 388.261,327.126 385.243,325.607 384.723,322.395 C 384.022,319.196 386.952,315.091 385.851,311.892 C 373.438,305.729 363.672,297.786 362.37,280.338 C 362.37,280.338 363.368,272.916 367.969,266.405 C 362.24,264.582 355.86,259.938 354.297,251.431 C 346.615,263.019 334.375,264.322 328.516,263.801 C 329.948,257.292 334.896,249.87 336.719,248.351 z" /></g><g
       id="Ebene_118"><path
         style="fill:none;stroke:#000000;stroke-linecap:round;stroke-linejoin:round;stroke-miterlimit:10"
         inkscape:connector-curvature="0"
         id="path29"
         d="M 362.327,265.625 C 359.028,270.573 358.246,278.473 358.246,278.473"
         stroke-miterlimit="10" /></g><g
       id="Ebene_117"><path
         style="fill:none;stroke:#000000;stroke-linecap:round;stroke-linejoin:round;stroke-miterlimit:10"
         inkscape:connector-curvature="0"
         id="path32"
         d="M 358.854,261.111 C 354.514,267.361 352.952,279.34 352.952,279.34"
         stroke-miterlimit="10" /></g><g
       id="Ebene_116"><path
         style="fill:none;stroke:#000000;stroke-linecap:round;stroke-linejoin:round;stroke-miterlimit:10"
         inkscape:connector-curvature="0"
         id="path35"
         d="M 354.601,257.205 C 349.566,265.278 347.309,281.858 347.309,281.858"
         stroke-miterlimit="10" /></g><g
       id="Ebene_115"><path
         style="fill:none;stroke:#000000;stroke-linecap:round;stroke-linejoin:round;stroke-miterlimit:10"
         inkscape:connector-curvature="0"
         id="path38"
         d="M 348.438,259.027 C 339.844,273.089 340.191,285.33 340.191,285.33"
         stroke-miterlimit="10" /></g><g
       id="Ebene_114"><path
         style="fill:none;stroke:#000000;stroke-linecap:round;stroke-linejoin:round;stroke-miterlimit:10"
         inkscape:connector-curvature="0"
         id="path41"
         d="M 339.583,264.236 C 330.989,277.951 332.031,288.888 332.031,288.888"
         stroke-miterlimit="10" /></g><g
       id="Ebene_113"><path
         style="fill:none;stroke:#000000;stroke-linecap:round;stroke-linejoin:round;stroke-miterlimit:10"
         inkscape:connector-curvature="0"
         id="path44"
         d="M 435.33,267.535 C 438.889,271.963 439.497,279.167 439.497,279.167"
         stroke-miterlimit="10" /></g><g
       id="Ebene_112"><path
         style="fill:none;stroke:#000000;stroke-linecap:round;stroke-linejoin:round;stroke-miterlimit:10"
         inkscape:connector-curvature="0"
         id="path47"
         d="M 439.323,265.799 C 442.708,269.705 444.792,279.515 444.792,279.515"
         stroke-miterlimit="10" /></g><g
       id="Ebene_111"><path
         style="fill:none;stroke:#000000;stroke-linecap:round;stroke-linejoin:round;stroke-miterlimit:10"
         inkscape:connector-curvature="0"
         id="path50"
         d="M 443.403,262.239 C 448.611,268.577 450.434,281.597 450.434,281.597"
         stroke-miterlimit="10" /></g><g
       id="Ebene_110"><path
         style="fill:none;stroke:#000000;stroke-linecap:round;stroke-linejoin:round;stroke-miterlimit:10"
         inkscape:connector-curvature="0"
         id="path53"
         d="M 447.482,257.292 C 457.118,270.833 457.465,284.549 457.465,284.549"
         stroke-miterlimit="10" /></g><g
       id="Ebene_109"><path
         style="fill:none;stroke:#000000;stroke-linecap:round;stroke-linejoin:round;stroke-miterlimit:10"
         inkscape:connector-curvature="0"
         id="path56"
         d="M 457.031,260.504 C 465.625,274.219 465.538,288.542 465.538,288.542"
         stroke-miterlimit="10" /></g><g
       id="face"><path
         style="fill:#ffc8a0;stroke:#000000;stroke-width:2;stroke-linecap:round;stroke-linejoin:round;stroke-miterlimit:10"
         inkscape:connector-curvature="0"
         id="path59"
         d="M 399.566,242.014 C 409.983,242.014 427.675,246.92 428.993,266.319 C 430.903,294.444 407.812,311.111 399.652,311.111 C 390.364,311.111 368.576,294.792 370.486,265.538 C 371.742,246.309 389.316,242.014 399.566,242.014 z"
         stroke-miterlimit="10" /></g><g
       id="Ebene_107"><path
         style="stroke:#000000;stroke-linecap:round;stroke-linejoin:round;stroke-miterlimit:10"
         inkscape:connector-curvature="0"
         id="path62"
         d="M 419.358,271.44 C 419.358,271.44 416.232,269.574 413.281,269.618 C 410.33,269.661 407.205,271.701 407.205,271.701 C 407.205,271.701 410.894,273.871 413.585,273.872 C 416.276,273.873 419.358,271.44 419.358,271.44 z"
         stroke-miterlimit="10" /></g><g
       id="Ebene_106"><path
         style="stroke:#000000;stroke-linecap:round;stroke-linejoin:round;stroke-miterlimit:10"
         inkscape:connector-curvature="0"
         id="path65"
         d="M 392.448,271.528 C 392.448,271.528 388.889,269.227 386.935,268.924 C 384.982,268.621 380.295,270.486 380.295,270.486 C 380.295,270.486 383.898,273.263 386.328,273.525 C 388.759,273.786 392.448,271.528 392.448,271.528 z"
         stroke-miterlimit="10" /></g><g
       id="Ebene_105"><path
         style="fill:none;stroke:#000000;stroke-linecap:round;stroke-linejoin:round;stroke-miterlimit:10"
         inkscape:connector-curvature="0"
         id="path68"
         d="M 421.094,265.191 C 421.094,265.191 417.795,262.283 412.066,262.457 C 406.337,262.631 403.516,266.103 402.822,267.535 C 402.38,268.447 402.562,279.21 402.909,280.556 C 403.256,281.902 406.641,285.416 406.207,287.153 C 405.773,288.89 404.08,288.108 402.865,288.801 C 401.65,289.497 400.652,290.363 399.827,290.363 C 398.265,290.363 398.048,289.45 396.355,288.931 C 394.825,288.46 392.882,288.931 392.362,287.498 C 391.844,286.074 393.967,284.286 393.967,284.286"
         stroke-miterlimit="10" /></g><g
       id="Ebene_104"><path
         style="fill:none;stroke:#000000;stroke-linecap:round;stroke-linejoin:round;stroke-miterlimit:10"
         inkscape:connector-curvature="0"
         id="path71"
         d="M 393.75,265.364 C 393.75,265.364 391.363,262.587 385.764,262.457 C 380.165,262.326 376.693,265.886 376.303,267.145 C 375.913,268.404 376.781,269.662 376.781,269.662"
         stroke-miterlimit="10" /></g><g
       id="Ebene_103"><path
         style="fill:none;stroke:#000000;stroke-linecap:round;stroke-linejoin:round;stroke-miterlimit:10"
         inkscape:connector-curvature="0"
         id="path74"
         d="M 420.486,275.521 C 420.486,275.521 417.057,278.907 413.281,278.907 C 409.505,278.907 404.341,275.001 404.341,275.001"
         stroke-miterlimit="10" /></g><g
       id="Ebene_102"><path
         style="fill:none;stroke:#000000;stroke-linecap:round;stroke-linejoin:round;stroke-miterlimit:10"
         inkscape:connector-curvature="0"
         id="path77"
         d="M 392.926,275.911 C 392.926,275.911 388.585,278.776 385.808,278.776 C 383.03,278.776 381.293,277.691 381.293,277.691"
         stroke-miterlimit="10" /></g><g
       id="Ebene_101"><g
         id="g80"><path
           inkscape:connector-curvature="0"
           id="path82"
           d="M 399.479,298.481 C 398.589,298.481 397.118,297.835 397.118,297.835 C 396.115,297.722 393.185,297.786 391.601,297.482 C 389.916,297.159 387.865,295.536 387.673,295.269 C 387.506,295.036 388.046,294.58 388.279,294.412 C 388.514,294.245 388.962,294.246 389.007,294.531 C 389.17,295.573 390.915,296.555 391.796,296.702 C 394.14,297.093 397.421,295.712 397.551,295.811 L 399.47,296.254 L 401.364,295.754 C 401.486,295.654 405.166,296.831 407.856,296.613 C 408.684,296.547 410.33,295.68 410.707,294.506 C 410.794,294.232 411.217,294.248 411.44,294.43 C 411.663,294.611 412.03,295.132 411.848,295.356 C 411.641,295.61 409.7,297.026 408.051,297.417 C 406.565,297.77 403.124,297.743 401.801,297.917 C 401.802,297.917 400.521,298.481 399.479,298.481 z" /></g></g><g
       id="Ebene_100"><path
         style="fill:none;stroke:#000000;stroke-width:1.5;stroke-linecap:round;stroke-linejoin:round;stroke-miterlimit:10"
         inkscape:connector-curvature="0"
         id="path85"
         d="M 404.688,301.302 C 404.688,301.302 401.238,302.8 399.61,302.8 C 397.591,302.8 394.184,301.302 394.184,301.302"
         stroke-miterlimit="10" /></g><g
       id="Ebene_99"><path
         style="fill:#ebb437;stroke:#ebb437;stroke-width:0.5;stroke-linecap:round;stroke-linejoin:round;stroke-miterlimit:10"
         inkscape:connector-curvature="0"
         id="path88"
         d="M 429.167,231.293 C 428.299,231.336 426.823,228.646 426.823,226.605 C 426.823,224.565 426.65,222.699 425.174,221.224 C 424.044,220.095 421.962,219.922 420.313,219.987 C 418.664,220.052 415.539,220.53 415.496,218.815 C 415.452,217.101 418.513,215.061 421.659,215.061 C 424.805,215.061 427.474,216.862 428.646,218.533 C 429.818,220.204 430.612,223.158 430.687,224.827 C 430.772,226.736 430.587,231.223 429.167,231.293 z"
         stroke-miterlimit="10" /></g><g
       id="Ebene_98"><path
         style="fill:#ebb437;stroke:#ebb437;stroke-width:0.5;stroke-linecap:round;stroke-linejoin:round;stroke-miterlimit:10"
         inkscape:connector-curvature="0"
         id="path91"
         d="M 378.125,219.206 C 378.385,220.096 371.883,224.08 369.922,225.456 C 366.862,227.604 364.107,230.339 364.714,233.985 C 365.19,236.843 367.284,238.251 369.141,238.715 C 371.745,239.366 375.087,238.455 375.087,238.455 C 375.087,238.455 375.369,240.126 376.476,240.843 C 377.583,241.559 379.948,242.448 379.948,242.448 C 379.948,242.448 375.586,244.336 370.573,244.076 C 365.56,243.815 361.003,240.69 360.612,236.328 C 360.221,231.966 360.873,228.711 363.216,225.716 C 364.814,223.674 367.968,221.028 370.768,219.922 C 372.932,219.066 377.865,218.316 378.125,219.206 z"
         stroke-miterlimit="10" /></g><g
       id="Ebene_97"><ellipse
         d="M 379.948,234.147 C 379.948,234.77606 378.86946,235.286 377.539,235.286 C 376.20855,235.286 375.13,234.77606 375.13,234.147 C 375.13,233.51795 376.20855,233.008 377.539,233.008 C 378.86946,233.008 379.948,233.51795 379.948,234.147 z"
         style="fill:#ebb437;stroke:#ebb437;stroke-width:0.5;stroke-linecap:round;stroke-linejoin:round;stroke-miterlimit:10"
         sodipodi:ry="1.1390001"
         sodipodi:rx="2.4089999"
         sodipodi:cy="234.147"
         sodipodi:cx="377.539"
         id="ellipse94"
         ry="1.1390001"
         rx="2.4089999"
         cy="234.147"
         cx="377.539"
         stroke-miterlimit="10"
         transform="matrix(-0.838,0.5457,-0.5457,-0.838,821.6836,224.3418)" /></g><g
       id="Ebene_96"><path
         style="fill:#ebb437;stroke:#ebb437;stroke-width:0.5;stroke-linecap:round;stroke-linejoin:round;stroke-miterlimit:10"
         inkscape:connector-curvature="0"
         id="path97"
         d="M 391.602,226.627 C 391.602,226.627 385.417,226.562 383.269,228.189 C 381.462,229.558 381.056,230.793 381.446,231.705 C 381.837,232.617 383.204,233.463 385.938,232.356 C 389.048,231.098 391.602,226.627 391.602,226.627 z"
         stroke-miterlimit="10" /></g><g
       id="Ebene_95"><ellipse
         d="M 396.09399,222.461 C 396.09399,223.79145 393.8496,224.87 391.08099,224.87 C 388.31239,224.87 386.06799,223.79145 386.06799,222.461 C 386.06799,221.13054 388.31239,220.052 391.08099,220.052 C 393.8496,220.052 396.09399,221.13054 396.09399,222.461 z"
         style="fill:#ebb437;stroke:#ebb437;stroke-width:0.5;stroke-linecap:round;stroke-linejoin:round;stroke-miterlimit:10"
         sodipodi:ry="2.4089999"
         sodipodi:rx="5.013"
         sodipodi:cy="222.461"
         sodipodi:cx="391.08099"
         id="ellipse100"
         ry="2.4089999"
         rx="5.013"
         cy="222.461"
         cx="391.08099"
         stroke-miterlimit="10"
         transform="matrix(-0.9441,0.3297,-0.3297,-0.9441,833.6392,303.5461)" /></g><g
       id="Ebene_94"><path
         style="fill:#ebb437;stroke:#ebb437;stroke-width:0.5;stroke-linecap:round;stroke-linejoin:round;stroke-miterlimit:10"
         inkscape:connector-curvature="0"
         id="path103"
         d="M 398.503,217.513 C 400.325,215.494 397.824,211.068 391.971,211.068 C 386.502,211.068 381.365,219.505 380.044,220.954 C 377.862,223.349 373.417,227.542 368.599,230.454 C 365.69,232.487 368.685,235.937 371.354,235.482 C 372.453,235.294 379.68,228.819 381.445,226.888 C 383.528,224.609 385.884,221.25 386.848,219.857 C 388.02,218.164 390.148,216.146 391.666,216.146 C 394.987,216.146 397.023,219.151 398.503,217.513 z"
         stroke-miterlimit="10" /></g><g
       id="Ebene_93"><path
         style="fill:#ebb437;stroke:#ebb437;stroke-width:0.5;stroke-linecap:round;stroke-linejoin:round;stroke-miterlimit:10"
         inkscape:connector-curvature="0"
         id="path106"
         d="M 414.714,215.885 C 415.432,214.584 414.627,211.718 409.288,211.718 C 404.6,211.718 399.486,220.508 398.503,222.135 C 396.875,224.826 394.879,228.602 390.061,231.901 C 395.009,232.162 398.113,231.901 398.113,231.901 C 398.113,231.901 401.107,229.232 402.279,226.953 C 403.451,224.674 404.427,221.224 405.34,219.857 C 406.251,218.49 407.573,216.953 408.92,216.602 C 410.417,216.211 413.672,217.773 414.714,215.885 z"
         stroke-miterlimit="10" /></g><g
       id="Ebene_92"><path
         style="fill:#ebb437;stroke:#ebb437;stroke-width:0.5;stroke-linecap:round;stroke-linejoin:round;stroke-miterlimit:10"
         inkscape:connector-curvature="0"
         id="path109"
         d="M 409.549,218.793 C 410.156,218.012 413.065,219.314 413.585,219.835 C 414.106,220.356 416.146,225.217 418.489,226.823 C 420.833,228.429 423.308,228.993 424.176,229.384 C 425.044,229.775 426.737,232.466 426.563,233.985 C 426.389,235.504 421.094,238.933 421.094,238.933 C 421.094,238.933 421.963,234.245 419.098,232.379 C 416.821,230.896 412.587,231.381 411.068,231.12 C 409.549,230.86 404.514,229.08 404.558,227.648 C 404.601,226.215 406.685,222.874 406.685,222.874 C 406.685,222.874 410.677,226.78 411.632,225.782 C 412.588,224.783 408.941,219.575 409.549,218.793 z"
         stroke-miterlimit="10" /></g><g
       id="Ebene_91"><path
         style="fill:#ebb437;stroke:#ebb437;stroke-linecap:round;stroke-linejoin:round;stroke-miterlimit:10"
         inkscape:connector-curvature="0"
         id="path112"
         d="M 418.74,236.082 C 418.704,235.139 412.713,233.166 409.797,233.117 C 406.882,233.068 402.619,233.947 402.216,235.79 C 401.875,237.345 405.716,240.407 406.931,240.407 C 408.145,240.407 408.922,237.928 410.769,237.393 C 412.615,236.858 418.837,238.706 418.74,236.082 z"
         stroke-miterlimit="10" /></g><g
       id="Ebene_90"><path
         style="fill:#ebb437;stroke:#000000;stroke-width:2;stroke-linecap:round;stroke-linejoin:round;stroke-miterlimit:10"
         inkscape:connector-curvature="0"
         id="path115"
         d="M 419.271,251.042 C 415.649,251.541 408.641,250.241 405.73,248.047 C 403.99,246.736 396.297,239.485 392.449,238.802 C 387.957,238.005 382.032,244.271 377.754,239.603 C 375.909,237.59 381.509,235.413 383.857,234.779 C 386.204,234.146 392.971,233.074 395.835,233.854 C 398.699,234.634 404.842,240.042 407.424,242.234 C 410.003,244.427 417.448,249.566 419.271,251.042 z"
         stroke-miterlimit="10" /></g><g
       id="Ebene_89"><path
         style="fill:#ebb437;stroke:#ebb437;stroke-width:0.5;stroke-linecap:round;stroke-linejoin:round;stroke-miterlimit:10"
         inkscape:connector-curvature="0"
         id="path118"
         d="M 433.724,221.68 C 435.808,221.224 436.785,227.474 436.914,230.469 C 437.043,233.464 436.003,239.844 434.961,239.844 C 433.919,239.844 433.269,238.021 433.269,238.021 C 433.269,238.021 434.375,233.919 432.357,232.096 C 432.748,230.534 433.334,229.101 433.138,227.083 C 432.942,225.065 432.323,221.986 433.724,221.68 z"
         stroke-miterlimit="10" /></g><g
       id="Ebene_88"><path
         style="fill:#ebb437;stroke:#000000;stroke-linecap:round;stroke-linejoin:round;stroke-miterlimit:10"
         inkscape:connector-curvature="0"
         id="path121"
         d="M 431.572,233.129 C 434.958,234.447 427.845,242.985 426.303,243.895 C 423.28,245.68 414.332,246.208 412.324,245.193 C 409.983,244.01 406.684,241.059 406.684,241.059 C 406.684,241.059 417.93,242.879 422.222,241.145 C 427.18,239.145 429.486,232.317 431.572,233.129 z"
         stroke-miterlimit="10" /></g><g
       id="Ebene_87"><ellipse
         d="M 435.45999,244.77 C 435.45999,246.96313 434.59545,248.741 433.52899,248.741 C 432.46253,248.741 431.59799,246.96313 431.59799,244.77 C 431.59799,242.57688 432.46253,240.799 433.52899,240.799 C 434.59545,240.799 435.45999,242.57688 435.45999,244.77 z"
         style="fill:#ebb437;stroke:#ebb437;stroke-width:0.5;stroke-linecap:round;stroke-linejoin:round;stroke-miterlimit:10"
         sodipodi:ry="3.971"
         sodipodi:rx="1.931"
         sodipodi:cy="244.77"
         sodipodi:cx="433.52899"
         id="ellipse124"
         ry="3.971"
         rx="1.931"
         cy="244.77"
         cx="433.52899"
         stroke-miterlimit="10"
         transform="matrix(0.8633,-0.5046,0.5046,0.8633,-64.2705,252.2207)" /></g><g
       id="Ebene_86"><ellipse
         d="M 429.86299,246.26801 C 429.86299,247.41786 429.17306,248.35001 428.32199,248.35001 C 427.47092,248.35001 426.78099,247.41786 426.78099,246.26801 C 426.78099,245.11815 427.47092,244.18601 428.32199,244.18601 C 429.17306,244.18601 429.86299,245.11815 429.86299,246.26801 z"
         style="fill:#ebb437;stroke:#ebb437;stroke-width:0.5;stroke-linecap:round;stroke-linejoin:round;stroke-miterlimit:10"
         sodipodi:ry="2.082"
         sodipodi:rx="1.541"
         sodipodi:cy="246.26801"
         sodipodi:cx="428.32199"
         id="ellipse127"
         ry="2.082"
         rx="1.541"
         cy="246.26801"
         cx="428.32199"
         stroke-miterlimit="10"
         transform="matrix(0.8505,-0.526,0.526,0.8505,-65.4966,262.1055)" /></g><g
       id="Ebene_85"><path
         style="fill:#ebb437;stroke:#ebb437;stroke-width:0.5;stroke-linecap:round;stroke-linejoin:round;stroke-miterlimit:10"
         inkscape:connector-curvature="0"
         id="path130"
         d="M 439.41,230.252 C 439.366,235.591 437.413,240.018 437.544,241.45 C 437.674,242.882 439.106,244.01 440.582,244.878 C 442.059,245.747 443.968,246.44 444.488,245.963 C 445.009,245.486 445.096,243.923 444.619,243.055 C 444.14,242.187 442.361,241.97 441.927,240.581 C 441.493,239.193 441.971,237.586 441.667,235.633 C 441.362,233.681 440.062,231.077 439.41,230.252 z"
         stroke-miterlimit="10" /></g><g
       id="Ebene_84"><path
         style="fill:#ebb437;stroke:#000000;stroke-width:2;stroke-linecap:round;stroke-linejoin:round;stroke-miterlimit:10"
         inkscape:connector-curvature="0"
         id="path133"
         d="M 413.629,246.181 C 415.904,246.285 422,245.286 423.265,246.008 C 424.531,246.729 428.762,252.939 429.167,254.688 C 429.57,256.438 429.224,259.115 428.11,260.401 C 423.698,256.25 417.622,248.872 413.629,246.181 z"
         stroke-miterlimit="10" /></g><g
       id="Ebene_83"><path
         style="fill:#ebb437;stroke:#ebb437;stroke-width:0.5;stroke-linecap:round;stroke-linejoin:round;stroke-miterlimit:10"
         inkscape:connector-curvature="0"
         id="path136"
         d="M 430.599,249.696 C 428.604,250.217 431.641,255.686 431.511,256.988 C 431.38,258.29 429.471,259.895 429.515,260.547 C 429.559,261.199 433.507,263.889 435.938,263.889 C 437.936,263.889 441.927,260.808 442.579,259.332 C 443.231,257.856 443.881,254.341 443.404,251.78 C 442.926,249.219 438.802,246.529 438.802,246.529 C 438.802,246.529 437.718,248.612 437.674,250.218 C 437.63,251.823 438.933,253.777 439.107,255.079 C 439.281,256.381 438.369,258.639 437.891,259.202 C 437.413,259.766 434.81,260.331 434.029,259.723 C 433.248,259.115 435.677,256.381 435.677,254.341 C 435.677,252.518 432.595,249.175 430.599,249.696 z"
         stroke-miterlimit="10" /></g><g
       id="Ebene_82"><path
         style="fill:#ebb437;stroke:#000000;stroke-width:2;stroke-linecap:round;stroke-linejoin:round;stroke-miterlimit:10"
         inkscape:connector-curvature="0"
         id="path139"
         d="M 393.75,239.583 C 395.962,239.583 400,243.75 400,243.75 C 400,243.75 393.334,247.486 390.141,248.285 C 386.946,249.084 381.644,249.402 378.591,250.342 C 375.538,251.282 372.806,258.714 370.034,258.573 C 367.262,258.432 368.108,253.735 368.108,253.735 C 368.108,253.735 368.907,248.52 372.429,246.453 C 375.952,244.386 381.637,244.339 385.253,243.588 C 388.871,242.835 390.509,239.583 393.75,239.583 z"
         stroke-miterlimit="10" /></g><g
       id="Ebene_81"><path
         style="fill:#ebb437;stroke:#ebb437;stroke-width:0.5;stroke-linecap:round;stroke-linejoin:round;stroke-miterlimit:10"
         inkscape:connector-curvature="0"
         id="path142"
         d="M 367.274,246.962 C 367.274,246.962 366.537,250.391 365.669,250.912 C 364.8,251.433 360.33,246.398 360.461,244.054 C 360.591,241.704 367.274,246.962 367.274,246.962 z"
         stroke-miterlimit="10" /></g><g
       id="Ebene_80"><ellipse
         d="M 365.14399,253.877 C 365.14399,255.35933 364.6909,256.561 364.13199,256.561 C 363.57308,256.561 363.11999,255.35933 363.11999,253.877 C 363.11999,252.39467 363.57308,251.193 364.13199,251.193 C 364.6909,251.193 365.14399,252.39467 365.14399,253.877 z"
         style="fill:#ebb437;stroke:#ebb437;stroke-width:0.5;stroke-linecap:round;stroke-linejoin:round;stroke-miterlimit:10"
         sodipodi:ry="2.684"
         sodipodi:rx="1.012"
         sodipodi:cy="253.877"
         sodipodi:cx="364.13199"
         id="ellipse145"
         ry="2.684"
         rx="1.012"
         cy="253.877"
         cx="364.13199"
         stroke-miterlimit="10"
         transform="matrix(0.7859,-0.6183,0.6183,0.7859,-79.0269,279.4818)" /></g><g
       id="Ebene_79"><path
         style="fill:#ebb437;stroke:#000000;stroke-linecap:round;stroke-linejoin:round;stroke-miterlimit:10"
         inkscape:connector-curvature="0"
         id="path148"
         d="M 359.299,246.779 C 357.402,245.465 356.381,248.526 356.381,251.157 C 356.381,254.319 357.986,257.821 360.71,260.788 C 363.434,263.755 370.053,265.451 370.053,265.451 L 370.964,259.895 C 370.964,259.895 364.802,260.063 361.926,256.507 C 359.25,253.2 361.196,248.092 359.299,246.779 z"
         stroke-miterlimit="10" /></g><g
       id="Ebene_78"><path
         style="fill:#ebb437;stroke:#ebb437;stroke-width:0.5;stroke-linecap:round;stroke-linejoin:round;stroke-miterlimit:10"
         inkscape:connector-curvature="0"
         id="path151"
         d="M 359.375,241.189 C 355.729,243.75 354.297,248.698 354.297,248.698 C 354.297,248.698 352.517,241.841 352.561,239.193 C 352.604,236.545 354.21,233.247 356.207,233.421 C 358.203,233.594 357.509,238.542 359.375,241.189 z"
         stroke-miterlimit="10" /></g><g
       id="Ebene_77"><path
         style="fill:#ebb437;stroke:#ebb437;stroke-width:0.5;stroke-linecap:round;stroke-linejoin:round;stroke-miterlimit:10"
         inkscape:connector-curvature="0"
         id="path154"
         d="M 347.57,242.622 C 349.914,242.622 350.955,250.347 350.868,251.563 C 350.781,252.779 347.743,256.423 344.271,258.594 C 340.798,260.764 335.634,262.154 334.115,260.938 C 332.595,259.722 336.282,252.754 338.412,249.957 C 340.625,247.049 345.226,242.622 347.57,242.622 z"
         stroke-miterlimit="10" /></g><g
       id="Ebene_76"><path
         style="fill:#ebb437;stroke:#ebb437;stroke-width:0.5;stroke-linecap:round;stroke-linejoin:round;stroke-miterlimit:10"
         inkscape:connector-curvature="0"
         id="path157"
         d="M 428.581,279.883 C 428.881,280.918 430.224,281.047 431.882,280.566 C 433.54,280.085 434.09,278.64 433.789,277.605 C 433.489,276.569 432.451,276.334 430.793,276.814 C 429.135,277.295 428.279,278.848 428.581,279.883 z"
         stroke-miterlimit="10" /></g><g
       id="Ebene_75"><path
         style="fill:#ebb437;stroke:#ebb437;stroke-width:0.5;stroke-linecap:round;stroke-linejoin:round;stroke-miterlimit:10"
         inkscape:connector-curvature="0"
         id="path160"
         d="M 435.026,282.031 C 435.026,282.031 431.054,283.528 428.125,283.42 C 428.125,284.245 426.302,287.674 426.302,287.674 C 426.302,287.674 432.617,287.935 434.114,286.589 C 435.612,285.243 435.026,282.031 435.026,282.031 z"
         stroke-miterlimit="10" /></g><g
       id="Ebene_74"><path
         style="fill:#ebb437;stroke:#ebb437;stroke-width:0.5;stroke-linecap:round;stroke-linejoin:round;stroke-miterlimit:10"
         inkscape:connector-curvature="0"
         id="path163"
         d="M 435.156,288.933 C 435.156,288.933 428.776,290.105 425.52,289.67 C 425.325,290.625 424.218,291.927 424.218,291.927 C 424.218,291.927 428.949,295.573 431.249,294.661 C 433.55,293.75 435.156,288.933 435.156,288.933 z"
         stroke-miterlimit="10" /></g><g
       id="Ebene_73"><path
         style="fill:#ebb437;stroke:#ebb437;stroke-width:0.5;stroke-linecap:round;stroke-linejoin:round;stroke-miterlimit:10"
         inkscape:connector-curvature="0"
         id="path166"
         d="M 430.469,296.745 C 430.469,296.745 425.066,295.703 422.722,294.27 C 422.266,295.442 420.899,296.874 420.899,296.874 C 420.899,296.874 423.373,300.064 425.782,299.999 C 428.191,299.934 430.469,296.745 430.469,296.745 z"
         stroke-miterlimit="10" /></g><g
       id="Ebene_72"><path
         style="fill:#ebb437;stroke:#ebb437;stroke-width:0.5;stroke-linecap:round;stroke-linejoin:round;stroke-miterlimit:10"
         inkscape:connector-curvature="0"
         id="path169"
         d="M 426.302,301.823 C 426.302,301.823 420.638,300.52 419.206,299.414 C 418.75,300.325 416.341,302.604 416.341,302.604 C 416.341,302.604 418.425,305.143 420.573,304.948 C 422.721,304.753 426.302,301.823 426.302,301.823 z"
         stroke-miterlimit="10" /></g><g
       id="Ebene_71"><path
         style="fill:#ebb437;stroke:#ebb437;stroke-width:0.5;stroke-linecap:round;stroke-linejoin:round;stroke-miterlimit:10"
         inkscape:connector-curvature="0"
         id="path172"
         d="M 414.192,304.817 L 420.051,307.031 C 420.051,307.031 416.862,309.831 414.062,309.961 C 411.262,310.091 410.221,308.333 410.221,308.333 L 414.192,304.817 z"
         stroke-miterlimit="10" /></g><g
       id="Ebene_70"><path
         style="fill:#ebb437;stroke:#ebb437;stroke-width:0.5;stroke-linecap:round;stroke-linejoin:round;stroke-miterlimit:10"
         inkscape:connector-curvature="0"
         id="path175"
         d="M 370.182,276.302 C 370.312,277.864 369.463,277.596 367.805,277.115 C 366.147,276.634 365.047,275.404 365.348,274.368 C 365.648,273.333 366.831,273.087 368.49,273.567 C 370.147,274.049 370.093,275.228 370.182,276.302 z"
         stroke-miterlimit="10" /></g><g
       id="Ebene_69"><path
         style="fill:#ebb437;stroke:#ebb437;stroke-width:0.5;stroke-linecap:round;stroke-linejoin:round;stroke-miterlimit:10"
         inkscape:connector-curvature="0"
         id="path178"
         d="M 364.193,277.344 C 364.193,277.344 367.463,280.69 371.512,281.352 C 371.358,282.163 372.917,286.329 372.917,286.329 C 372.917,286.329 367.172,284.985 365.365,283.269 C 363.558,281.553 364.193,277.344 364.193,277.344 z"
         stroke-miterlimit="10" /></g><g
       id="Ebene_68"><path
         style="fill:#ebb437;stroke:#ebb437;stroke-width:0.5;stroke-linecap:round;stroke-linejoin:round;stroke-miterlimit:10"
         inkscape:connector-curvature="0"
         id="path181"
         d="M 365.365,286.719 C 365.365,286.719 370.333,288.536 374.284,289.583 C 374.545,290.886 375.651,293.359 375.651,293.359 C 375.651,293.359 369.987,293.945 368.229,292.838 C 365.679,291.233 365.365,286.719 365.365,286.719 z"
         stroke-miterlimit="10" /></g><g
       id="Ebene_67"><path
         style="fill:#ebb437;stroke:#ebb437;stroke-width:0.5;stroke-linecap:round;stroke-linejoin:round;stroke-miterlimit:10"
         inkscape:connector-curvature="0"
         id="path184"
         d="M 369.271,295.573 C 369.271,295.573 374.778,296.245 377.865,296.354 C 377.995,297.46 379.948,299.414 379.948,299.414 C 379.948,299.414 375.85,301.969 373.438,300.52 C 371.025,299.072 369.271,295.573 369.271,295.573 z"
         stroke-miterlimit="10" /></g><g
       id="Ebene_66"><path
         style="fill:#ebb437;stroke:#ebb437;stroke-width:0.5;stroke-linecap:round;stroke-linejoin:round;stroke-miterlimit:10"
         inkscape:connector-curvature="0"
         id="path187"
         d="M 375.781,303.255 C 375.781,303.255 380.273,302.278 381.705,301.172 C 382.161,302.083 384.049,303.906 384.049,303.906 C 384.049,303.906 382.096,306.315 379.947,306.12 C 377.798,305.925 375.781,303.255 375.781,303.255 z"
         stroke-miterlimit="10" /></g><g
       id="Ebene_65"><path
         style="fill:#ebb437;stroke:#ebb437;stroke-width:0.5;stroke-linecap:round;stroke-linejoin:round;stroke-miterlimit:10"
         inkscape:connector-curvature="0"
         id="path190"
         d="M 386.198,306.315 L 382.564,307.877 C 382.564,307.877 383.592,309.932 386.393,310.025 C 388.346,310.089 389.192,308.592 389.192,308.592 L 386.198,306.315 z"
         stroke-miterlimit="10" /></g><g
       id="Ebene_64"><path
         style="fill:#ebb437;stroke:#ebb437;stroke-width:0.5;stroke-linecap:round;stroke-linejoin:round;stroke-miterlimit:10"
         inkscape:connector-curvature="0"
         id="path193"
         d="M 408.203,310.026 C 405.989,311.848 402.344,312.695 402.344,312.695 C 402.344,312.695 409.833,324.802 411.98,322.656 C 415.234,319.401 410.677,311.849 408.203,310.026 z"
         stroke-miterlimit="10" /></g><g
       id="Ebene_63"><path
         style="fill:#ebb437;stroke:#ebb437;stroke-width:0.5;stroke-linecap:round;stroke-linejoin:round;stroke-miterlimit:10"
         inkscape:connector-curvature="0"
         id="path196"
         d="M 397.331,313.347 C 397.331,313.347 395.442,315.039 393.945,315.821 C 397.07,317.254 401.628,325.326 403.059,321.68 C 404.492,318.034 397.331,313.347 397.331,313.347 z"
         stroke-miterlimit="10" /></g><g
       id="Ebene_62"><path
         style="fill:#ebb437;stroke:#ebb437;stroke-width:0.5;stroke-linecap:round;stroke-linejoin:round;stroke-miterlimit:10"
         inkscape:connector-curvature="0"
         id="path199"
         d="M 405.339,322.852 C 405.339,322.852 404.13,325.421 404.362,326.888 C 404.948,330.599 413.476,334.961 413.542,331.706 C 413.606,328.45 405.339,322.852 405.339,322.852 z"
         stroke-miterlimit="10" /></g><g
       id="Ebene_61"><path
         style="fill:#ebb437;stroke:#ebb437;stroke-width:0.5;stroke-linecap:round;stroke-linejoin:round;stroke-miterlimit:10"
         inkscape:connector-curvature="0"
         id="path202"
         d="M 391.211,310.156 L 394.141,311.979 C 394.141,311.979 392.122,315.364 389.844,314.323 C 387.565,313.281 391.211,310.156 391.211,310.156 z"
         stroke-miterlimit="10" /></g><g
       id="Ebene_60"><ellipse
         d="M 394.01001,321.32101 C 394.01001,323.49646 392.71298,325.26001 391.11301,325.26001 C 389.51304,325.26001 388.21601,323.49646 388.21601,321.32101 C 388.21601,319.14556 389.51304,317.38201 391.11301,317.38201 C 392.71298,317.38201 394.01001,319.14556 394.01001,321.32101 z"
         style="fill:#ebb437;stroke:#ebb437;stroke-width:0.5;stroke-linecap:round;stroke-linejoin:round;stroke-miterlimit:10"
         sodipodi:ry="3.9389999"
         sodipodi:rx="2.8970001"
         sodipodi:cy="321.32101"
         sodipodi:cx="391.11301"
         id="ellipse205"
         ry="3.9389999"
         rx="2.8970001"
         cy="321.32101"
         cx="391.11301"
         stroke-miterlimit="10" /></g><g
       id="Ebene_59"><path
         style="fill:#ebb437;stroke:#ebb437;stroke-width:0.5;stroke-linecap:round;stroke-linejoin:round;stroke-miterlimit:10"
         inkscape:connector-curvature="0"
         id="path208"
         d="M 397.136,322.591 C 396.355,323.828 395.183,325.652 395.183,325.652 C 395.183,325.652 396.941,328.516 397.461,331.185 C 398.894,331.316 400.651,329.883 400.651,327.279 C 400.651,325.456 398.308,322.722 397.136,322.591 z"
         stroke-miterlimit="10" /></g><g
       id="Ebene_58"><path
         style="fill:#ebb437;stroke:#ebb437;stroke-width:0.5;stroke-linecap:round;stroke-linejoin:round;stroke-miterlimit:10"
         inkscape:connector-curvature="0"
         id="path211"
         d="M 403.19,330.729 L 401.953,332.226 C 401.953,332.226 404.948,338.541 406.836,340.754 C 408.138,334.114 403.19,330.729 403.19,330.729 z"
         stroke-miterlimit="10" /></g><g
       id="Ebene_57"><path
         style="fill:#ebb437;stroke:#ebb437;stroke-width:0.5;stroke-linecap:round;stroke-linejoin:round;stroke-miterlimit:10"
         inkscape:connector-curvature="0"
         id="path214"
         d="M 409.766,335.612 C 409.31,336.393 409.441,339.778 410.222,341.536 C 411.003,343.294 414.334,346.847 417.058,347.722 C 422.527,349.48 434.766,348.699 434.766,348.699 C 434.766,348.699 424.74,344.402 420.052,341.928 C 416.284,339.94 413.802,335.223 413.802,335.223 C 413.802,335.223 410.222,334.831 409.766,335.612 z"
         stroke-miterlimit="10" /></g><g
       id="Ebene_56"><path
         style="fill:#ebb437;stroke:#ebb437;stroke-width:0.5;stroke-linecap:round;stroke-linejoin:round;stroke-miterlimit:10"
         inkscape:connector-curvature="0"
         id="path217"
         d="M 392.513,327.409 C 390.951,327.409 389.844,329.101 389.844,331.184 C 389.844,332.746 391.277,336.002 393.099,336.132 C 394.922,336.262 395.118,331.965 395.118,331.965 C 395.118,331.965 394.075,327.409 392.513,327.409 z"
         stroke-miterlimit="10" /></g><g
       id="Ebene_55"><path
         style="fill:#ebb437;stroke:#ebb437;stroke-width:0.5;stroke-linecap:round;stroke-linejoin:round;stroke-miterlimit:10"
         inkscape:connector-curvature="0"
         id="path220"
         d="M 399.284,333.333 C 399.284,333.333 397.562,335.578 397.917,337.5 C 398.828,342.448 403.74,350.335 406.12,352.539 C 408.789,355.013 411.458,359.237 412.37,360.677 C 414.844,364.583 419.531,374.48 419.531,374.48 C 419.531,374.48 420.052,367.188 418.229,361.719 C 417.595,359.817 414.387,355.534 413.02,353.646 C 411.653,351.758 408.528,349.349 406.445,346.485 C 404.362,343.621 399.284,333.333 399.284,333.333 z"
         stroke-miterlimit="10" /></g><g
       id="Ebene_54"><path
         style="fill:#ebb437;stroke:#ebb437;stroke-width:0.5;stroke-linecap:round;stroke-linejoin:round;stroke-miterlimit:10"
         inkscape:connector-curvature="0"
         id="path223"
         d="M 395.312,338.281 C 395.703,341.276 398.046,344.792 398.046,344.792 C 398.046,344.792 393.477,344.853 392.187,342.773 C 391.015,340.885 391.666,338.671 391.666,338.671 C 391.666,338.671 393.62,338.477 395.312,338.281 z"
         stroke-miterlimit="10" /></g><g
       id="Ebene_53"><path
         style="fill:#ebb437;stroke:#ebb437;stroke-linecap:round;stroke-linejoin:round;stroke-miterlimit:10"
         inkscape:connector-curvature="0"
         id="path226"
         d="M 415.625,351.497 C 413.933,352.734 427.301,364.584 432.119,376.043 C 432.965,375.717 436.263,371.94 437.175,367.188 C 439.323,368.23 442.058,368.75 445.247,368.946 C 448.437,369.141 452.995,368.751 452.995,368.751 C 452.995,368.751 451.237,363.152 447.526,362.11 C 443.815,361.068 439.973,362.631 436.718,361.98 C 433.464,361.328 416.676,350.729 415.625,351.497 z"
         stroke-miterlimit="10" /></g><g
       id="Ebene_52"><path
         style="fill:#ebb437;stroke:#ebb437;stroke-linecap:round;stroke-linejoin:round;stroke-miterlimit:10"
         inkscape:connector-curvature="0"
         id="path229"
         d="M 453.19,363.867 L 456.51,368.815 L 461.913,368.945 C 461.913,368.945 460.807,365.885 458.202,364.518 C 456.938,363.854 453.19,363.867 453.19,363.867"
         stroke-miterlimit="10" /></g><g
       id="Ebene_51"><polygon
         style="fill:#ebb437;stroke:#ebb437;stroke-linecap:round;stroke-linejoin:round;stroke-miterlimit:10"
         id="polygon232"
         points="459.896,374.739 455.599,371.289 449.023,371.289 452.669,374.675 "
         stroke-miterlimit="10" /></g><g
       id="Ebene_50"><polygon
         style="fill:#ebb437;stroke:#ebb437;stroke-linecap:round;stroke-linejoin:round;stroke-miterlimit:10"
         id="polygon235"
         points="460.938,371.159 465.3,375.391 471.028,375.651 465.82,371.094 "
         stroke-miterlimit="10" /></g><g
       id="Ebene_49"><polygon
         style="fill:#ebb437;stroke:#ebb437;stroke-linecap:round;stroke-linejoin:round;stroke-miterlimit:10"
         id="polygon238"
         points="448.698,374.805 444.661,371.289 438.997,371.094 444.466,376.433 448.828,376.823 "
         stroke-miterlimit="10" /></g><g
       id="Ebene_48"><polygon
         style="fill:#ebb437;stroke:#ebb437;stroke-linecap:round;stroke-linejoin:round;stroke-miterlimit:10"
         id="polygon241"
         points="442.253,378.255 437.109,374.284 434.7,377.604 438.606,381.966 442.903,382.356 "
         stroke-miterlimit="10" /></g><g
       id="Ebene_47"><polygon
         style="fill:#ebb437;stroke:#ebb437;stroke-linecap:round;stroke-linejoin:round;stroke-miterlimit:10"
         id="polygon244"
         points="445.833,379.102 445.703,382.617 449.284,385.677 451.888,385.547 451.823,382.422 448.958,379.102 "
         stroke-miterlimit="10" /></g><g
       id="Ebene_46"><polygon
         style="fill:#ebb437;stroke:#ebb437;stroke-linecap:round;stroke-linejoin:round;stroke-miterlimit:10"
         id="polygon247"
         points="441.016,384.831 441.146,387.435 446.55,391.992 448.894,391.927 448.894,389.258 444.466,384.636 "
         stroke-miterlimit="10" /></g><g
       id="Ebene_45"><polygon
         style="fill:#ebb437;stroke:#ebb437;stroke-linecap:round;stroke-linejoin:round;stroke-miterlimit:10"
         id="polygon250"
         points="452.278,377.148 452.344,379.036 455.729,381.966 459.44,382.031 459.31,379.817 455.925,377.214 "
         stroke-miterlimit="10" /></g><g
       id="Ebene_44"><polygon
         style="fill:#ebb437;stroke:#ebb437;stroke-linecap:round;stroke-linejoin:round;stroke-miterlimit:10"
         id="polygon253"
         points="467.253,377.474 461.263,377.604 467.708,381.836 470.703,381.836 470.703,379.753 "
         stroke-miterlimit="10" /></g><g
       id="Ebene_43"><polygon
         style="fill:#ebb437;stroke:#ebb437;stroke-linecap:round;stroke-linejoin:round;stroke-miterlimit:10"
         id="polygon256"
         points="461.653,381.511 461.914,384.245 464.844,387.695 468.489,387.891 468.555,385.481 464.258,381.575 "
         stroke-miterlimit="10" /></g><g
       id="Ebene_42"><polygon
         style="fill:#ebb437;stroke:#ebb437;stroke-linecap:round;stroke-linejoin:round;stroke-miterlimit:10"
         id="polygon259"
         points="459.896,385.352 463.802,389.453 463.672,392.708 460.286,392.317 456.511,387.956 456.445,385.156 "
         stroke-miterlimit="10" /></g><g
       id="Ebene_41"><polygon
         style="fill:#ebb437;stroke:#ebb437;stroke-linecap:round;stroke-linejoin:round;stroke-miterlimit:10"
         id="polygon262"
         points="453.255,388.737 451.042,388.672 454.102,392.903 457.422,393.099 453.841,386.653 "
         stroke-miterlimit="10" /></g><g
       id="Ebene_40"><polygon
         style="fill:#ebb437;stroke:#ebb437;stroke-linecap:round;stroke-linejoin:round;stroke-miterlimit:10"
         id="polygon265"
         points="472.917,380.534 472.852,383.724 476.367,385.872 479.297,386.458 479.231,383.854 475.456,380.469 "
         stroke-miterlimit="10" /></g><g
       id="Ebene_39"><polygon
         style="fill:#ebb437;stroke:#ebb437;stroke-linecap:round;stroke-linejoin:round;stroke-miterlimit:10"
         id="polygon268"
         points="465.82,390.104 465.82,392.903 469.856,395.703 472.786,395.769 472.461,393.294 468.425,390.039 "
         stroke-miterlimit="10" /></g><g
       id="Ebene_38"><polygon
         style="fill:#ebb437;stroke:#ebb437;stroke-linecap:round;stroke-linejoin:round;stroke-miterlimit:10"
         id="polygon271"
         points="470.898,386.133 470.964,389.192 476.237,393.034 480.013,393.359 479.362,390.95 473.633,386.198 "
         stroke-miterlimit="10" /></g><g
       id="Ebene_37"><path
         style="fill:#ebb437;stroke:#ebb437;stroke-linecap:round;stroke-linejoin:round;stroke-miterlimit:10"
         inkscape:connector-curvature="0"
         id="path274"
         d="M 479.167,202.779 C 464.844,219.793 445.4,235.07 445.4,235.07 C 445.4,235.07 448.236,237.671 452.256,236.633 C 457.638,235.244 469.158,221.492 471.874,217.796 C 475,213.542 477.778,208.16 479.167,202.779 z"
         stroke-miterlimit="10" /></g><g
       id="Ebene_36"><path
         style="fill:#ebb437;stroke:#ebb437;stroke-linecap:round;stroke-linejoin:round;stroke-miterlimit:10"
         inkscape:connector-curvature="0"
         id="path277"
         d="M 452.171,217.274 C 452.778,219.01 453.213,223.263 452.518,225 C 451.824,226.736 444.011,232.466 444.011,232.466 L 443.404,228.906 C 443.403,228.906 448.958,223.351 452.171,217.274 z"
         stroke-miterlimit="10" /></g><g
       id="Ebene_35"><path
         style="fill:#ebb437;stroke:#ebb437;stroke-linecap:round;stroke-linejoin:round;stroke-miterlimit:10"
         inkscape:connector-curvature="0"
         id="path280"
         d="M 468.229,192.535 C 464.799,192.991 457.075,193.121 453.819,192.535 C 453.341,195.031 456.931,197.921 456.77,199.827 C 456.466,203.429 454.21,206.88 453.994,209.723 C 453.776,212.566 455.903,221.529 455.903,221.529 C 455.903,221.529 459.332,216.472 460.417,212.675 C 461.501,208.877 460.982,203.365 461.546,201.13 C 462.109,198.893 468.599,197.092 468.229,192.535 z"
         stroke-miterlimit="10" /></g><g
       id="Ebene_34"><path
         style="fill:#ebb437;stroke:#ebb437;stroke-linecap:round;stroke-linejoin:round;stroke-miterlimit:10"
         inkscape:connector-curvature="0"
         id="path283"
         d="M 475.325,178.125 L 469.792,183.268 V 190.039 C 469.792,190.039 473.828,187.24 474.935,184.766 C 475.661,183.143 475.325,178.125 475.325,178.125 z"
         stroke-miterlimit="10" /></g><g
       id="Ebene_33"><path
         style="fill:#ebb437;stroke:#ebb437;stroke-linecap:round;stroke-linejoin:round;stroke-miterlimit:10"
         inkscape:connector-curvature="0"
         id="path286"
         d="M 467.317,182.227 C 467.317,182.227 467.708,188.217 466.731,189.389 C 465.754,190.561 464.387,189.975 464.387,189.975 L 464.257,184.376 L 467.317,182.227 z"
         stroke-miterlimit="10" /></g><g
       id="Ebene_32"><path
         style="fill:#ebb437;stroke:#ebb437;stroke-linecap:round;stroke-linejoin:round;stroke-miterlimit:10"
         inkscape:connector-curvature="0"
         id="path289"
         d="M 461.458,189.518 L 461.394,180.664 C 461.394,180.664 458.724,181.445 458.724,183.073 C 458.724,184.701 461.458,189.518 461.458,189.518 z"
         stroke-miterlimit="10" /></g><g
       id="Ebene_31"><path
         style="fill:#ebb437;stroke:#ebb437;stroke-linecap:round;stroke-linejoin:round;stroke-miterlimit:10"
         inkscape:connector-curvature="0"
         id="path292"
         d="M 457.683,189.518 L 454.493,180.794 L 450.847,184.44 C 450.847,184.44 450.977,188.932 452.539,189.713 C 454.101,190.494 457.683,189.518 457.683,189.518 z"
         stroke-miterlimit="10" /></g><g
       id="Ebene_30"><polygon
         style="fill:#ebb437;stroke:#ebb437;stroke-linecap:round;stroke-linejoin:round;stroke-miterlimit:10"
         id="polygon295"
         points="475.521,174.479 471.81,177.148 470.442,169.336 474.219,166.016 "
         stroke-miterlimit="10" /></g><g
       id="Ebene_29"><polygon
         style="fill:#ebb437;stroke:#ebb437;stroke-linecap:round;stroke-linejoin:round;stroke-miterlimit:10"
         id="polygon298"
         points="467.969,171.615 469.661,178.581 468.294,180.143 466.341,174.479 "
         stroke-miterlimit="10" /></g><g
       id="Ebene_28"><path
         style="fill:#ebb437;stroke:#ebb437;stroke-linecap:round;stroke-linejoin:round;stroke-miterlimit:10"
         inkscape:connector-curvature="0"
         id="path301"
         d="M 463.216,169.792 L 464.453,180.86 C 464.453,180.86 461.914,178.126 461.653,176.237 C 461.394,174.349 463.216,169.792 463.216,169.792 z"
         stroke-miterlimit="10" /></g><g
       id="Ebene_27"><polygon
         style="fill:#ebb437;stroke:#ebb437;stroke-linecap:round;stroke-linejoin:round;stroke-miterlimit:10"
         id="polygon304"
         points="457.292,168.229 459.896,174.87 456.836,179.102 455.273,173.112 "
         stroke-miterlimit="10" /></g><g
       id="Ebene_26"><polygon
         style="fill:#ebb437;stroke:#ebb437;stroke-linecap:round;stroke-linejoin:round;stroke-miterlimit:10"
         id="polygon307"
         points="450.13,169.987 453.32,172.787 453.32,178.255 450.261,180.924 448.372,177.799 448.438,172.787 "
         stroke-miterlimit="10" /></g><g
       id="Ebene_25"><polygon
         style="fill:#ebb437;stroke:#ebb437;stroke-linecap:round;stroke-linejoin:round;stroke-miterlimit:10"
         id="polygon310"
         points="455.599,166.146 453.516,168.945 450.391,166.732 450.195,162.109 452.148,158.659 454.492,160.417 "
         stroke-miterlimit="10" /></g><g
       id="Ebene_24"><polygon
         style="fill:#ebb437;stroke:#ebb437;stroke-linecap:round;stroke-linejoin:round;stroke-miterlimit:10"
         id="polygon313"
         points="460.547,159.961 458.854,155.469 456.966,159.505 458.008,165.755 460.677,167.708 "
         stroke-miterlimit="10" /></g><g
       id="Ebene_23"><polygon
         style="fill:#ebb437;stroke:#ebb437;stroke-linecap:round;stroke-linejoin:round;stroke-miterlimit:10"
         id="polygon316"
         points="466.536,162.174 464.192,157.748 462.761,160.156 462.695,166.016 466.341,168.88 "
         stroke-miterlimit="10" /></g><g
       id="Ebene_22"><polygon
         style="fill:#ebb437;stroke:#ebb437;stroke-linecap:round;stroke-linejoin:round;stroke-miterlimit:10"
         id="polygon319"
         points="471.745,160.417 470.638,157.162 468.489,161.198 468.685,167.708 471.159,165.69 "
         stroke-miterlimit="10" /></g><g
       id="Ebene_21"><polygon
         style="fill:#ebb437;stroke:#ebb437;stroke-linecap:round;stroke-linejoin:round;stroke-miterlimit:10"
         id="polygon322"
         points="467.317,157.292 469.401,153.451 467.058,146.875 464.778,144.987 462.956,149.87 463.151,155.013 "
         stroke-miterlimit="10" /></g><g
       id="Ebene_20"><path
         style="fill:#ebb437;stroke:#ebb437;stroke-width:0.5;stroke-linecap:round;stroke-linejoin:round;stroke-miterlimit:10"
         inkscape:connector-curvature="0"
         id="path325"
         d="M 349.87,234.505 C 349.87,234.505 345.768,232.617 342.448,232.031 C 339.128,231.445 326.628,231.64 322.006,231.51 C 317.383,231.38 307.032,230.143 304.298,229.036 C 304.298,230.013 304.363,232.617 309.116,234.635 C 313.868,236.654 328.712,235.416 333.335,235.547 C 337.957,235.677 348.113,238.802 349.09,238.281 C 350.067,237.76 349.87,234.505 349.87,234.505 z"
         stroke-miterlimit="10" /></g><g
       id="Ebene_19"><path
         style="fill:#ebb437;stroke:#ebb437;stroke-width:0.5;stroke-linecap:round;stroke-linejoin:round;stroke-miterlimit:10"
         inkscape:connector-curvature="0"
         id="path328"
         d="M 342.123,240.104 C 342.123,239.323 336.329,238.346 334.115,238.802 C 331.901,239.258 327.829,241.594 324.87,244.205 C 321.55,247.135 317.839,252.734 317.839,252.734 C 317.839,252.734 327.54,247.396 337.24,244.986 C 338.998,244.01 342.123,240.885 342.123,240.104 z"
         stroke-miterlimit="10" /></g><g
       id="Ebene_18"><path
         style="fill:#ebb437;stroke:#ebb437;stroke-width:0.5;stroke-linecap:round;stroke-linejoin:round;stroke-miterlimit:10"
         inkscape:connector-curvature="0"
         id="path331"
         d="M 328.906,237.826 C 328.906,237.826 325.325,240.756 323.307,241.276 C 321.289,241.797 316.927,240.951 312.695,242.448 C 308.463,243.946 302.778,250.696 301.389,252.779 C 300.868,247.31 297.873,240.604 295.66,237.675 C 298.004,237.61 301.107,238.737 301.107,238.737 C 301.107,238.737 303.125,240.69 305.013,240.56 C 306.901,240.43 308.203,238.737 310.547,238.412 C 312.891,238.086 328.906,237.826 328.906,237.826 z"
         stroke-miterlimit="10" /></g><g
       id="Ebene_17"><polygon
         style="fill:#ebb437;stroke:#ebb437;stroke-linecap:round;stroke-linejoin:round;stroke-miterlimit:10"
         id="polygon334"
         points="291.927,253.255 297.526,249.023 298.568,254.167 295.312,257.878 291.992,257.747 "
         stroke-miterlimit="10" /></g><g
       id="Ebene_16"><polygon
         style="fill:#ebb437;stroke:#ebb437;stroke-linecap:round;stroke-linejoin:round;stroke-miterlimit:10"
         id="polygon337"
         points="295.312,244.987 297.721,245.703 290.234,251.562 287.174,251.302 287.109,248.242 "
         stroke-miterlimit="10" /></g><g
       id="Ebene_15"><path
         style="fill:#ebb437;stroke:#ebb437;stroke-linecap:round;stroke-linejoin:round;stroke-miterlimit:10"
         inkscape:connector-curvature="0"
         id="path340"
         d="M 294.727,242.057 L 287.045,244.922 L 286.98,242.123 C 286.98,242.123 290.04,238.477 291.733,238.477 C 293.424,238.477 294.727,242.057 294.727,242.057 z"
         stroke-miterlimit="10" /></g><g
       id="Ebene_14"><polygon
         style="fill:#ebb437;stroke:#ebb437;stroke-linecap:round;stroke-linejoin:round;stroke-miterlimit:10"
         id="polygon343"
         points="287.891,265.755 293.099,260.417 288.477,259.05 284.245,262.305 284.18,265.886 "
         stroke-miterlimit="10" /></g><g
       id="Ebene_13"><polygon
         style="fill:#ebb437;stroke:#ebb437;stroke-linecap:round;stroke-linejoin:round;stroke-miterlimit:10"
         id="polygon346"
         points="288.737,253.841 284.766,253.711 281.12,256.641 281.12,260.156 283.463,260.222 288.737,256.055 "
         stroke-miterlimit="10" /></g><g
       id="Ebene_12"><polygon
         style="fill:#ebb437;stroke:#ebb437;stroke-linecap:round;stroke-linejoin:round;stroke-miterlimit:10"
         id="polygon349"
         points="284.049,248.633 283.919,251.367 279.362,255.078 277.344,254.752 277.279,252.018 281.836,248.698 "
         stroke-miterlimit="10" /></g><g
       id="Ebene_11"><polygon
         style="fill:#ebb437;stroke:#ebb437;stroke-linecap:round;stroke-linejoin:round;stroke-miterlimit:10"
         id="polygon352"
         points="280.99,243.62 284.831,243.424 284.831,245.377 277.279,249.023 274.805,248.633 "
         stroke-miterlimit="10" /></g><g
       id="Ebene_10"><polygon
         style="fill:#ebb437;stroke:#ebb437;stroke-linecap:round;stroke-linejoin:round;stroke-miterlimit:10"
         id="polygon355"
         points="287.109,237.826 284.701,240.69 277.409,242.318 274.219,241.667 277.213,238.151 283.268,237.24 "
         stroke-miterlimit="10" /></g><g
       id="Ebene_9"><path
         style="fill:#ebb437;stroke:#ebb437;stroke-linecap:round;stroke-linejoin:round;stroke-miterlimit:10"
         inkscape:connector-curvature="0"
         id="path358"
         d="M 274.544,244.662 C 272.2,243.881 270.768,242.123 270.768,242.123 C 270.768,242.123 266.471,243.946 265.299,245.769 C 265.074,246.12 264.257,248.764 265.104,249.285 C 265.951,249.806 268.685,249.676 268.685,249.676 C 268.685,249.676 272.461,247.461 274.544,244.662 z"
         stroke-miterlimit="10" /></g><g
       id="Ebene_8"><polygon
         style="fill:#ebb437;stroke:#ebb437;stroke-linecap:round;stroke-linejoin:round;stroke-miterlimit:10"
         id="polygon361"
         points="274.935,254.623 274.74,251.042 270.898,250.912 268.229,252.799 268.685,254.167 "
         stroke-miterlimit="10" /></g><g
       id="Ebene_7"><polygon
         style="fill:#ebb437;stroke:#ebb437;stroke-linecap:round;stroke-linejoin:round;stroke-miterlimit:10"
         id="polygon364"
         points="278.255,257.292 274.935,257.031 272.461,259.31 272.331,262.109 274.87,261.849 278.646,259.57 "
         stroke-miterlimit="10" /></g><g
       id="Ebene_6"><polygon
         style="fill:#ebb437;stroke:#ebb437;stroke-linecap:round;stroke-linejoin:round;stroke-miterlimit:10"
         id="polygon367"
         points="281.25,262.63 281.185,264.909 276.042,267.383 272.787,267.383 273.307,264.388 278.385,262.109 "
         stroke-miterlimit="10" /></g><g
       id="Ebene_5"><polygon
         style="fill:#ebb437;stroke:#ebb437;stroke-linecap:round;stroke-linejoin:round;stroke-miterlimit:10"
         id="polygon370"
         points="269.466,262.63 269.271,265.755 264.844,268.229 262.37,268.294 262.305,265.495 266.406,262.305 "
         stroke-miterlimit="10" /></g><g
       id="Ebene_4"><polygon
         style="fill:#ebb437;stroke:#ebb437;stroke-linecap:round;stroke-linejoin:round;stroke-miterlimit:10"
         id="polygon373"
         points="270.898,256.315 270.312,258.333 267.057,260.026 264.193,260.156 264.127,257.878 267.773,255.859 "
         stroke-miterlimit="10" /></g><g
       id="Ebene_3"><polygon
         style="fill:#ebb437;stroke:#ebb437;stroke-linecap:round;stroke-linejoin:round;stroke-miterlimit:10"
         id="polygon376"
         points="265.452,252.213 265.299,253.906 261.719,257.031 257.812,256.966 257.877,254.167 261.545,250.564 263.412,250.608 263.194,252.518 "
         stroke-miterlimit="10" /></g><g
       id="Ebene_2"><polygon
         style="fill:#ebb437;stroke:#ebb437;stroke-linecap:round;stroke-linejoin:round;stroke-miterlimit:10"
         id="polygon379"
         points="261.198,259.766 261.198,262.956 255.99,266.797 250.716,265.56 251.367,263.411 256.706,259.44 "
         stroke-miterlimit="10" /></g></g><text
     xml:space="preserve"
     style="font-size:189.84375px;font-style:oblique;font-variant:normal;font-weight:bold;font-stretch:normal;text-align:center;line-height:104.99999523%;letter-spacing:0px;word-spacing:0px;text-anchor:middle;opacity:0.81159417;fill:#aa24d7;fill-opacity:1;stroke:#000000;stroke-width:3.515625;stroke-miterlimit:4;stroke-opacity:1;stroke-dasharray:none;font-family:DejaVu Sans;-inkscape-font-specification:DejaVu Sans Bold Oblique"
     x="324.82758"
     y="588.0979"
     id="text2989"
     sodipodi:linespacing="105%"><tspan
       sodipodi:role="line"
       id="tspan2991"
       x="324.82758"
       y="588.0979"
       style="stroke-width:3.515625">e</tspan></text>
<text
     xml:space="preserve"
     style="font-size:189.84375px;font-style:oblique;font-variant:normal;font-weight:bold;font-stretch:normal;text-align:center;line-height:104.99999523%;letter-spacing:0px;word-spacing:0px;text-anchor:middle;opacity:0.81159417;fill:#4155ff;fill-opacity:1;stroke:#000000;stroke-width:3.515625;stroke-miterlimit:4;stroke-opacity:1;stroke-dasharray:none;font-family:DejaVu Sans;-inkscape-font-specification:DejaVu Sans Bold Oblique"
     x="122.89751"
     y="197.61281"
     id="text2993"
     sodipodi:linespacing="105%"><tspan
       sodipodi:role="line"
       id="tspan2995"
       x="122.89751"
       y="197.61281"
       style="stroke-width:3.515625"></tspan></text>
<text
     xml:space="preserve"
     style="font-size:189.84375px;font-style:oblique;font-variant:normal;font-weight:bold;font-stretch:normal;text-align:center;line-height:104.99999523%;letter-spacing:0px;word-spacing:0px;text-anchor:middle;opacity:0.81159417;fill:#ff7d31;fill-opacity:1;stroke:#000000;stroke-width:3.515625;stroke-miterlimit:4;stroke-opacity:1;stroke-dasharray:none;font-family:DejaVu Sans;-inkscape-font-specification:DejaVu Sans Bold Oblique"
     x="567.74213"
     y="228.09836"
     id="text2997"
     sodipodi:linespacing="105%"><tspan
       sodipodi:role="line"
       id="tspan2999"
       x="567.74213"
       y="228.09836"
       style="stroke-width:3.515625"></tspan></text>
</svg>