<?xml version="1.0" encoding="UTF-8" standalone="no"?>
<svg
   xmlns:dc="http://purl.org/dc/elements/1.1/"
   xmlns:cc="http://creativecommons.org/ns#"
   xmlns:rdf="http://www.w3.org/1999/02/22-rdf-syntax-ns#"
   xmlns:svg="http://www.w3.org/2000/svg"
   xmlns="http://www.w3.org/2000/svg"
   xmlns:sodipodi="http://sodipodi.sourceforge.net/DTD/sodipodi-0.dtd"
   xmlns:inkscape="http://www.inkscape.org/namespaces/inkscape"
   width="650"
   height="600"
   viewBox="0 0 650 600"
   id="svg2991"
   version="1.1"
   inkscape:version="0.48.4 r9939"
   sodipodi:docname="triskelion2.svg">
  <metadata
     id="metadata3005">
    <rdf:RDF>
      <cc:Work
         rdf:about="">
        <dc:format>image/svg+xml</dc:format>
        <dc:type
           rdf:resource="http://purl.org/dc/dcmitype/StillImage" />
      </cc:Work>
    </rdf:RDF>
  </metadata>
  <defs
     id="defs3003" />
  <sodipodi:namedview
     pagecolor="#ffffff"
     bordercolor="#666666"
     borderopacity="1"
     objecttolerance="10"
     gridtolerance="10"
     guidetolerance="10"
     inkscape:pageopacity="1"
     inkscape:pageshadow="2"
     inkscape:window-width="1360"
     inkscape:window-height="715"
     id="namedview3001"
     showgrid="false"
     inkscape:zoom="0.55625733"
     inkscape:cx="138.88503"
     inkscape:cy="268.61885"
     inkscape:window-x="0"
     inkscape:window-y="0"
     inkscape:window-maximized="0"
     inkscape:current-layer="svg2991" />
  <title
     id="title2993">Triple spiral or spiral triskelion symbol with hollow triangle in center</title>
  <g
     transform="translate(-99,794.3) scale(0.13,-0.13)"
     style="fill:#000000;stroke:none;opacity:0.30434783"
     id="g2995">
    <path
       style="fill:#ffffff"
       d="M756.223,2572.81 C756.223,2649.42,763.617,2728.25,778.305,2801.33 C863.366,3224.53,1170.86,3553.3,1578.2,3691.17 L3226.97,4249.17 C3173.91,4237.44,3118.88,4230.7,3056.87,4230.7 C2597.15,4230.7,2198.44,4617.12,2198.44,5121.34 C2198.44,5715.12,2703.68,6118.05,3224.58,6118.05 C3296.66,6118.05,3370.56,6111.29,3439.37,6097.76 C3985.99,5990.24,4359.37,5496.53,4359.37,4955.8 C4359.37,4870.25,4350.13,4782.33,4333.81,4700.66 L3992.68,2993.8 C4105.49,3350.97,4444.65,3571.11,4802.12,3571.11 C5323.98,3571.11,5752.78,3133.22,5752.78,2590.21 C5752.78,2522.69,5746.64,2453.73,5734.26,2389.25 C5630.12,1847,5141.01,1501.43,4635.95,1501.43 C4276.43,1501.43,4009.04,1652.41,3830.27,1809.48 L2522.68,2958.32 C2671.38,2795.84,2734.71,2592.48,2734.71,2405.94 C2734.71,1922.15,2329.41,1501.37,1798.99,1501.37 C1530.71,1501.37,1299.68,1604.07,1128.29,1752.38 C880.809,1966.55,756.223,2275.32,756.223,2572.81Z M2742.37,3501.37 L3412.55,2912.58 L3587.36,3787.36Z"
       id="path2997" />
    <path
       d="M4718.04,2673.13 C4712.77,2668.1,4705.02,2663.9,4697.94,2662.14 C4690.39,2660.26,4681.06,2660.42,4673.51,2662.3 C4665.11,2664.39,4656,2669.22,4649.31,2674.72 C4641.72,2680.98,4634.59,2690.17,4630.07,2698.9 C4624.92,2708.86,4621.35,2721.56,4620.17,2732.71 C4618.82,2745.36,4620.05,2760.23,4623.09,2772.58 C4626.52,2786.5,4633.33,2801.81,4641.07,2813.88 C4649.72,2827.35,4662.3,2841.15,4674.7,2851.27 C4688.44,2862.47,4706.34,2872.78,4722.82,2879.33 C4740.92,2886.52,4763.04,2891.5,4782.46,2893.06 C4803.66,2894.76,4828.32,2892.95,4849.1,2888.47 C4871.65,2883.6,4896.71,2874.1,4916.95,2863.04 C4938.77,2851.1,4961.82,2833.66,4979.43,2816.08 C4998.32,2797.21,5016.86,2772.35,5029.78,2748.98 C5043.59,2724,5055.3,2693,5061.7,2665.18 C5068.52,2635.56,5071.46,2600.41,5069.93,2570.06 C5068.3,2537.86,5061.15,2501.13,5050.84,2470.59 C5039.92,2438.28,5022.14,2402.94,5002.9,2374.78 C4982.61,2345.09,4954.5,2314.25,4926.97,2291.12 C4898.01,2266.78,4860.82,2243.47,4826.39,2227.79 C4790.26,2211.34,4746.12,2198.21,4706.91,2192.01 C4665.84,2185.52,4617.63,2184.61,4576.32,2189.3 C4533.15,2194.2,4484.33,2206.68,4444.01,2222.89 C4401.95,2239.79,4356.31,2265.87,4320.24,2293.33 C4282.68,2321.93,4244.04,2360.71,4215.39,2398.23 C4185.6,2437.26,4157.52,2486.77,4139.1,2532.28 C4119.98,2579.54,4105.43,2636.82,4099.46,2687.45 C4093.27,2739.95,4094.39,2801.23,4102.25,2853.51 C4110.4,2907.65,4128.23,2968.57,4150.34,3018.66 C4173.22,3070.47,4207.59,3126.42,4243.29,3170.39 C4280.18,3215.83,4329.64,3262.27,4377.17,3296.43 C4426.23,3331.68,4488.09,3364.54,4544.69,3385.68 C4603.06,3407.48,4673.5,3423.45,4735.54,3429.18 C4799.47,3435.09,4873.83,3431.94,4937.07,3420.88 C5002.18,3409.5,5075.2,3386.33,5135.05,3358.29 C5196.62,3329.45,5262.88,3286.79,5314.75,3242.84 C5368.07,3197.67,5422.33,3137.53,5461.98,3079.99 C5502.7,3020.88,5540.34,2946.69,5564.2,2879 C5588.68,2809.51,5606.07,2725.92,5611.55,2652.45 C5617.18,2577.1,5612,2489.67,5597.75,2415.46 C5583.14,2339.39,5554.62,2254.26,5520.66,2184.64 C5485.87,2113.31,5434.9,2036.75,5382.7,1976.98 C5329.26,1915.77,5258.43,1853.71,5190.87,1808.56 C5121.73,1762.37,5035.2,1719.95,4956.41,1693.38 C4875.82,1666.2,4779.07,1647.39,4694.18,1642.16 C4607.4,1636.81,4506.89,1644.02,4421.72,1661.47 C4334.68,1679.31,4237.45,1713.17,4158.06,1753.06 C4076.98,1793.81,3990.11,1853.07,3922.44,1913.52 L2545.26,3123.5 C2488.12,3172.95,2414.99,3221.15,2346.92,3253.96 C2280.56,3285.94,2199.46,3312.68,2127.05,3326.22 C2056.49,3339.4,1973.42,3343.9,1901.88,3338.19 C1832.22,3332.62,1753.01,3315.71,1687.23,3292.11 C1623.23,3269.16,1553.15,3233.12,1497.39,3194.22 C1443.19,3156.4,1386.61,3104.75,1344.2,3054.05 C1303,3004.81,1263.1,2941.99,1236.25,2883.68 C1210.19,2827.08,1188.8,2758.09,1178.49,2696.64 C1168.5,2637.05,1166.03,2567.06,1172.03,2506.94 C1177.84,2448.7,1193.33,2382.64,1214.24,2327.97 C1234.47,2275.07,1265.74,2217.33,1299.17,2171.61 C1331.49,2127.42,1375.33,2081.52,1418.15,2047.39 C1459.49,2014.44,1512,1982.84,1560.56,1961.95 C1607.39,1941.8,1664.28,1925.76,1714.76,1918.69 C1763.39,1911.88,1820.31,1911.44,1869,1917.73 C1915.82,1923.78,1968.72,1937.85,2012.27,1956.09 C2054.09,1973.59,2099.49,2000.08,2135.16,2028.05 C2169.35,2054.87,2204.58,2090.9,2230.41,2125.84 C2255.13,2159.27,2278.44,2201.48,2293.35,2240.29 C2307.59,2277.35,2318.29,2322.14,2322.11,2361.66 C2325.74,2399.31,2324.15,2443.17,2317.55,2480.42 C2311.28,2515.83,2298.63,2555.59,2283.06,2588.01 C2268.3,2618.75,2246.58,2651.83,2224.06,2677.43 C2202.77,2701.64,2174.53,2726.19,2147.46,2743.7 C2121.94,2760.21,2090.03,2775.23,2060.97,2784.14 C2033.68,2792.5,2000.98,2797.86,1972.44,2798.39 C1945.74,2798.89,1914.94,2795.27,1889.15,2788.33 C1865.12,2781.87,1838.5,2770.64,1817.25,2757.7 C1797.55,2745.71,1776.78,2728.76,1761.3,2711.67 C1747.02,2695.91,1733.13,2675.45,1724,2656.25 C1715.64,2638.65,1708.89,2617,1706.07,2597.73 C1703.5,2580.19,1703.48,2559.53,1706.31,2542.03 C1708.87,2526.23,1714.54,2508.44,1721.88,2494.21 C1728.45,2481.47,1738.31,2467.92,1748.65,2457.99 C1757.83,2449.18,1770.09,2440.68,1781.72,2435.52 C1791.97,2430.97,1804.75,2427.71,1815.95,2427.2 C1825.78,2426.74,1837.3,2428.32,1846.51,2431.77 C1854.62,2434.81,1863.36,2440.28,1869.37,2446.51 C1874.77,2452.11,1879.58,2460.11,1881.72,2467.59 C1883.73,2474.6,1883.98,2483.41,1882.25,2490.5 C1880.53,2497.58,1880.77,2506.4,1882.78,2513.41 C1884.93,2520.88,1889.74,2528.89,1895.14,2534.48 C1901.15,2540.71,1909.89,2546.19,1918,2549.22 C1927.21,2552.67,1938.73,2554.25,1948.56,2553.8 C1959.76,2553.28,1972.54,2550.03,1982.79,2545.48 C1994.42,2540.31,2006.68,2531.82,2015.86,2523 C2026.2,2513.07,2036.05,2499.52,2042.63,2486.78 C2049.97,2472.56,2055.64,2454.76,2058.2,2438.96 C2061.03,2421.46,2061.01,2400.81,2058.44,2383.27 C2055.62,2363.99,2048.87,2342.34,2040.51,2324.75 C2031.38,2305.54,2017.49,2285.09,2003.21,2269.33 C1987.73,2252.24,1966.96,2235.28,1947.26,2223.29 C1926.01,2210.36,1899.39,2199.12,1875.36,2192.66 C1849.57,2185.73,1818.77,2182.1,1792.07,2182.6 C1763.53,2183.13,1730.83,2188.49,1703.54,2196.86 C1674.48,2205.76,1642.57,2220.79,1617.05,2237.29 C1589.98,2254.81,1561.74,2279.36,1540.45,2303.57 C1517.93,2329.17,1496.21,2362.24,1481.45,2392.98 C1465.88,2425.4,1453.23,2465.16,1446.95,2500.57 C1440.36,2537.82,1438.77,2581.68,1442.4,2619.34 C1446.22,2658.85,1456.92,2703.64,1471.16,2740.7 C1486.07,2779.51,1509.38,2821.72,1534.1,2855.15 C1559.93,2890.09,1595.15,2926.13,1629.35,2952.94 C1665.02,2980.91,1710.42,3007.4,1752.24,3024.91 C1795.79,3043.14,1848.69,3057.21,1895.51,3063.26 C1944.2,3069.55,2001.12,3069.11,2049.74,3062.3 C2100.23,3055.24,2157.12,3039.19,2203.95,3019.05 C2252.51,2998.16,2305.02,2966.55,2346.36,2933.6 C2389.17,2899.48,2433.02,2853.58,2465.34,2809.38 C2498.77,2763.66,2530.03,2705.92,2550.27,2653.02 C2571.18,2598.35,2586.67,2532.3,2592.48,2474.06 C2598.48,2413.94,2596.01,2343.94,2586.02,2284.36 C2575.71,2222.9,2554.32,2153.92,2528.26,2097.32 C2501.41,2039,2461.51,1976.18,2420.31,1926.94 C2377.9,1876.25,2321.32,1824.6,2267.11,1786.78 C2211.36,1747.88,2141.28,1711.83,2077.28,1688.88 C2011.5,1665.29,1932.29,1648.37,1862.63,1642.81 C1791.09,1637.09,1708.02,1641.59,1637.46,1654.78 C1565.04,1668.31,1483.95,1695.05,1417.59,1727.04 C1349.52,1759.84,1276.39,1808.04,1219.25,1857.49 C1160.67,1908.18,1101.21,1975.44,1057.9,2039.66 C1013.53,2105.45,972.702,2187.87,947.035,2262.96 C920.756,2339.85,902.417,2432.22,897.102,2513.3 C891.664,2596.27,898.195,2692.42,914.58,2773.94 C931.339,2857.32,963.423,2950.52,1001.34,3026.65 C1040.1,3104.48,1096.59,3187.92,1154.3,3252.96 C1213.26,3319.41,1291.2,3386.69,1365.44,3435.49 C1441.27,3485.34,1536.03,3530.94,1622.22,3559.32 L3358.68,4147 C3430.07,4171.76,3508.37,4210.99,3570.82,4253.54 C3631.71,4295.02,3695.41,4351.88,3743.34,4407.82 C3790.03,4462.33,3835.47,4532.02,3866.29,4596.84 C3896.3,4659.95,3921.26,4737.01,3933.71,4805.77 C3945.83,4872.67,3949.66,4951.38,3943.85,5019.12 C3938.2,5084.97,3921.76,5159.8,3899.06,5221.87 C3877.01,5282.17,3842.56,5348.14,3805.49,5400.55 C3769.5,5451.42,3720.45,5504.44,3672.38,5544.09 C3625.78,5582.53,3566.39,5619.67,3511.33,5644.54 C3457.99,5668.62,3393.03,5688.23,3335.24,5697.46 C3279.31,5706.39,3213.67,5708.18,3157.36,5702.09 C3102.92,5696.2,3041.25,5681.18,2990.29,5661.16 C2941.09,5641.84,2887.46,5612.16,2845.09,5580.55 C2804.23,5550.07,2761.89,5508.83,2730.52,5468.64 C2700.32,5429.93,2671.48,5380.86,2652.58,5335.54 C2634.41,5291.97,2620.14,5239.12,2614.16,5192.29 C2608.41,5147.32,2608.65,5094.76,2615.04,5049.88 C2621.16,5006.86,2634.76,4958.34,2652.1,4918.5 C2668.7,4880.38,2693.59,4839.08,2719.75,4806.77 C2744.72,4775.9,2778.16,4744.24,2810.48,4721.18 C2841.27,4699.2,2880.04,4678.65,2915.6,4665.74 C2949.41,4653.46,2990.16,4644.54,3026.02,4641.81 C3060.03,4639.23,3099.53,4641.5,3132.96,4648.2 C3164.58,4654.54,3199.96,4666.72,3228.66,4681.41 C3255.71,4695.25,3284.68,4715.38,3306.92,4736.09 C3327.81,4755.54,3348.8,4781.18,3363.53,4805.63 C3377.31,4828.5,3389.58,4856.99,3396.47,4882.79 C3402.88,4906.83,3406.47,4935.51,3405.89,4960.38 C3405.35,4983.43,3401.05,5009.89,3393.99,5031.85 C3387.49,5052.09,3376.72,5074.35,3364.65,5091.86 C3353.59,5107.9,3338.22,5124.56,3322.94,5136.65 C3309.03,5147.64,3291.15,5157.99,3274.58,5164.28 C3259.62,5169.97,3241.37,5173.96,3225.38,5174.71 C3211.06,5175.39,3194.4,5173.63,3180.63,5169.64 C3168.41,5166.1,3154.92,5159.72,3144.63,5152.23 C3135.56,5145.63,3126.36,5136.19,3120.31,5126.75 C3115,5118.47,3110.61,5107.7,3108.99,5098 C3107.57,5089.46,3107.94,5079.15,3110.33,5070.83 C3112.48,5063.36,3117,5055.19,3122.4,5049.6 C3127.47,5044.35,3134.98,5039.73,3141.98,5037.68 C3148.98,5035.63,3156.49,5031.01,3161.55,5025.77 C3166.96,5020.17,3171.48,5012,3173.63,5004.53 C3176.02,4996.21,3176.39,4985.9,3174.97,4977.36 C3173.35,4967.66,3168.95,4956.89,3163.65,4948.61 C3157.6,4939.17,3148.39,4929.73,3139.33,4923.13 C3129.04,4915.64,3115.55,4909.27,3103.33,4905.73 C3089.56,4901.74,3072.9,4899.97,3058.58,4900.65 C3042.59,4901.41,3024.34,4905.39,3009.38,4911.08 C2992.8,4917.38,2974.93,4927.72,2961.02,4938.72 C2945.74,4950.8,2930.37,4967.47,2919.31,4983.51 C2907.24,5001.01,2896.47,5023.27,2889.96,5043.52 C2882.9,5065.47,2878.6,5091.93,2878.07,5114.98 C2877.49,5139.86,2881.07,5168.53,2887.49,5192.57 C2894.38,5218.37,2906.65,5246.86,2920.43,5269.73 C2935.16,5294.18,2956.15,5319.82,2977.04,5339.28 C2999.28,5359.99,3028.25,5380.11,3055.3,5393.96 C3084,5408.64,3119.38,5420.82,3150.99,5427.16 C3184.43,5433.86,3223.93,5436.13,3257.93,5433.55 C3293.79,5430.82,3334.55,5421.9,3368.35,5409.62 C3403.91,5396.71,3442.69,5376.16,3473.48,5354.19 C3505.8,5331.12,3539.23,5299.46,3564.21,5268.6 C3590.36,5236.28,3615.26,5194.99,3631.86,5156.87 C3649.2,5117.02,3662.8,5068.5,3668.92,5025.48 C3675.31,4980.61,3675.55,4928.04,3669.8,4883.08 C3663.82,4836.24,3649.55,4783.39,3631.38,4739.82 C3612.48,4694.51,3583.64,4645.43,3553.43,4606.73 C3522.07,4566.54,3479.73,4525.3,3438.87,4494.81 C3396.5,4463.2,3342.87,4433.53,3293.67,4414.2 C3242.71,4394.19,3181.03,4379.17,3126.6,4373.28 C3070.29,4367.18,3004.65,4368.97,2948.72,4377.9 C2890.92,4387.13,2825.97,4406.74,2772.63,4430.83 C2717.56,4455.69,2658.18,4492.83,2611.57,4531.28 C2563.51,4570.93,2514.46,4623.95,2478.47,4674.81 C2441.39,4727.23,2406.94,4793.19,2384.9,4853.49 C2362.2,4915.56,2345.76,4990.39,2340.11,5056.24 C2334.3,5123.98,2338.12,5202.69,2350.24,5269.59 C2362.7,5338.35,2387.66,5415.41,2417.67,5478.52 C2448.49,5543.34,2493.93,5613.03,2540.62,5667.54 C2588.55,5723.49,2652.25,5780.34,2713.14,5821.83 C2775.58,5864.37,2853.89,5903.6,2925.28,5928.37 C2998.47,5953.75,3086.45,5971.61,3163.72,5977.01 C3242.89,5982.54,3334.67,5976.69,3412.54,5961.37 C3492.27,5945.69,3581.43,5915.38,3654.3,5879.45 C3728.88,5842.67,3808.88,5788.94,3871.29,5733.99 C3935.12,5677.79,3999.79,5603.4,4046.76,5532.5 C4094.78,5460.02,4138.79,5369.37,4166.27,5286.88 C4194.34,5202.59,4213.63,5101.45,4218.77,5012.76 C4224.03,4922.17,4216.14,4817.3,4197.62,4728.47 L3838.34,2930.81 C3824.09,2856.6,3818.91,2769.17,3824.53,2693.82 C3830.02,2620.35,3847.41,2536.75,3871.89,2467.27 C3895.75,2399.58,3933.39,2325.39,3974.11,2266.28 C4013.76,2208.74,4068.02,2148.6,4121.34,2103.43 C4173.21,2059.48,4239.47,2016.81,4301.04,1987.98 C4360.89,1959.94,4433.91,1936.77,4499.02,1925.39 C4562.26,1914.33,4636.61,1911.18,4700.54,1917.09 C4762.59,1922.82,4833.03,1938.78,4891.4,1960.59 C4948,1981.73,5009.85,2014.58,5058.92,2049.84 C5106.45,2083.99,5155.91,2130.44,5192.8,2175.88 C5228.5,2219.85,5262.87,2275.8,5285.75,2327.61 C5307.86,2377.7,5325.69,2438.62,5333.84,2492.76 C5341.7,2545.04,5342.82,2606.31,5336.63,2658.82 C5330.66,2709.44,5316.11,2766.73,5296.99,2813.99 C5278.57,2859.5,5250.49,2909.01,5220.7,2948.03 C5192.05,2985.56,5153.41,3024.34,5115.85,3052.94 C5079.78,3080.4,5034.14,3106.47,4992.08,3123.38 C4951.76,3139.58,4902.94,3152.07,4859.77,3156.97 C4818.46,3161.66,4770.25,3160.75,4729.18,3154.25 C4689.97,3148.06,4645.83,3134.93,4609.7,3118.48 C4575.27,3102.8,4538.08,3079.49,4509.12,3055.15 C4481.59,3032.02,4453.48,3001.18,4433.19,2971.49 C4413.95,2943.33,4396.17,2907.99,4385.25,2875.68 C4374.94,2845.13,4367.79,2808.41,4366.16,2776.2 C4364.63,2745.85,4367.57,2710.7,4374.39,2681.09 C4380.79,2653.27,4392.5,2622.27,4406.3,2597.29 C4419.23,2573.92,4437.76,2549.05,4456.66,2530.19 C4474.27,2512.61,4497.31,2495.17,4519.14,2483.23 C4539.38,2472.17,4564.44,2462.66,4586.98,2457.8 C4607.77,2453.31,4632.43,2451.51,4653.63,2453.21 C4673.05,2454.76,4695.17,2459.74,4713.27,2466.94 C4729.75,2473.49,4747.64,2483.79,4761.38,2495 C4773.79,2505.11,4786.37,2518.92,4795.02,2532.39 C4802.76,2544.45,4809.57,2559.76,4813,2573.68 C4816.04,2586.04,4817.27,2600.9,4815.92,2613.56 C4814.74,2624.71,4811.17,2637.41,4806.01,2647.37 C4801.5,2656.1,4794.37,2665.29,4786.78,2671.54 C4780.09,2677.05,4770.98,2681.88,4762.58,2683.97 C4755.03,2685.84,4745.7,2686.01,4738.15,2684.13 C4731.07,2682.36,4723.32,2678.17,4718.04,2673.13Z M3501.67,2649.25 L3770.85,3996.21 L2469.76,3555.85Z"
       id="path2999" />
  </g>
  <text
     xml:space="preserve"
     style="font-size:253.12500000000000000px;font-style:oblique;font-variant:normal;font-weight:bold;font-stretch:normal;text-align:center;line-height:104.99999523000001034%;letter-spacing:0px;word-spacing:0px;text-anchor:middle;fill:#aa24d7;fill-opacity:1;stroke:#000000;stroke-width:4.68750000000000000;stroke-miterlimit:4;stroke-opacity:1;stroke-dasharray:none;font-family:DejaVu Sans;-inkscape-font-specification:DejaVu Sans Bold Oblique;opacity:0.8115942"
     x="145.35202"
     y="526.75494"
     id="text2989"
     sodipodi:linespacing="105%"><tspan
       sodipodi:role="line"
       id="tspan2991"
       x="145.35202"
       y="526.75494"
       style="stroke-width:4.68750000000000000">e</tspan></text>
  <text
     xml:space="preserve"
     style="font-size:253.12500000000000000px;font-style:oblique;font-variant:normal;font-weight:bold;font-stretch:normal;text-align:center;line-height:104.99999523000001034%;letter-spacing:0px;word-spacing:0px;text-anchor:middle;fill:#4155ff;fill-opacity:1;stroke:#000000;stroke-width:4.68750000000000000;stroke-miterlimit:4;stroke-opacity:1;stroke-dasharray:none;font-family:DejaVu Sans;-inkscape-font-specification:DejaVu Sans Bold Oblique;opacity:0.8115942"
     x="322.36115"
     y="188.99506"
     id="text2993"
     sodipodi:linespacing="105%"><tspan
       sodipodi:role="line"
       id="tspan2995"
       x="322.36115"
       y="188.99506"
       style="stroke-width:4.68750000000000000">μ</tspan></text>
  <text
     xml:space="preserve"
     style="font-size:253.12500000000000000px;font-style:oblique;font-variant:normal;font-weight:bold;font-stretch:normal;text-align:center;line-height:104.99999523000001034%;letter-spacing:0px;word-spacing:0px;text-anchor:middle;fill:#ff7d31;fill-opacity:1;stroke:#000000;stroke-width:4.68750000000000000;stroke-miterlimit:4;stroke-opacity:1;stroke-dasharray:none;font-family:DejaVu Sans;-inkscape-font-specification:DejaVu Sans Bold Oblique;opacity:0.8115942"
     x="500.8696"
     y="527.51709"
     id="text2997"
     sodipodi:linespacing="105%"><tspan
       sodipodi:role="line"
       id="tspan2999"
       x="500.8696"
       y="527.51709"
       style="stroke-width:4.68750000000000000">τ</tspan></text>
</svg>
