<?xml version="1.0" encoding="UTF-8" standalone="no"?>
<!-- Created with Inkscape (http://www.inkscape.org/) -->

<svg
   xmlns:dc="http://purl.org/dc/elements/1.1/"
   xmlns:cc="http://creativecommons.org/ns#"
   xmlns:rdf="http://www.w3.org/1999/02/22-rdf-syntax-ns#"
   xmlns:svg="http://www.w3.org/2000/svg"
   xmlns="http://www.w3.org/2000/svg"
   xmlns:xlink="http://www.w3.org/1999/xlink"
   xmlns:sodipodi="http://sodipodi.sourceforge.net/DTD/sodipodi-0.dtd"
   xmlns:inkscape="http://www.inkscape.org/namespaces/inkscape"
   id="svg2"
   version="1.1"
   inkscape:version="0.48.0 r9654"
   width="563"
   height="720"
   sodipodi:docname="cookiejar.svg"
   inkscape:export-filename="/home/pivarski/fun/www.coffeeshopphysics.com/staging/drafts/nukes_equals_booze/cookiejar.png"
   inkscape:export-xdpi="90"
   inkscape:export-ydpi="90">
  <metadata
     id="metadata8">
    <rdf:RDF>
      <cc:Work
         rdf:about="">
        <dc:format>image/svg+xml</dc:format>
        <dc:type
           rdf:resource="http://purl.org/dc/dcmitype/StillImage" />
        <dc:title />
      </cc:Work>
    </rdf:RDF>
  </metadata>
  <defs
     id="defs6" />
  <sodipodi:namedview
     pagecolor="#ffffff"
     bordercolor="#666666"
     borderopacity="1"
     objecttolerance="10"
     gridtolerance="10"
     guidetolerance="10"
     inkscape:pageopacity="0"
     inkscape:pageshadow="2"
     inkscape:window-width="1011"
     inkscape:window-height="846"
     id="namedview4"
     showgrid="false"
     inkscape:zoom="0.79444444"
     inkscape:cx="227.66086"
     inkscape:cy="330.07426"
     inkscape:window-x="0"
     inkscape:window-y="0"
     inkscape:window-maximized="0"
     inkscape:current-layer="svg2" />
  <path
     style="color:#000000;fill:none;stroke:#000000;stroke-width:4;stroke-linecap:butt;stroke-linejoin:miter;stroke-miterlimit:4;stroke-opacity:1;stroke-dasharray:none;stroke-dashoffset:0;marker:none;visibility:visible;display:inline;overflow:visible;enable-background:accumulate"
     d="m 249.23077,77.097901 c -4.81767,30.013729 40.77252,30.907409 61.92724,29.335389 12.2594,-1.60647 26.28276,-8.43506 24.61122,-23.041683"
     id="path2989"
     inkscape:connector-curvature="0" />
  <path
     style="color:#000000;fill:none;stroke:#000000;stroke-width:4;stroke-linecap:butt;stroke-linejoin:miter;stroke-miterlimit:4;stroke-opacity:1;stroke-dasharray:none;stroke-dashoffset:0;marker:none;visibility:visible;display:inline;overflow:visible;enable-background:accumulate"
     d="m 249.86014,38.706293 c 9.87081,-9.82686 23.21741,-13.74876 37.13523,-13.857165 1.35738,-0.01057 2.38641,4.020417 3.75195,4.08045 1.15411,0.05074 2.64395,-3.879292 3.80035,-3.780678 13.12383,1.119157 26.29014,5.246069 37.12123,10.668666 29.62888,29.785655 -33.80499,30.523734 -53.35552,24.396136 -11.0294,-2.671354 -27.50333,-8.372558 -28.45324,-21.507409 z"
     id="path2991"
     inkscape:connector-curvature="0"
     sodipodi:nodetypes="csssccc" />
  <path
     style="color:#000000;fill:none;stroke:#000000;stroke-width:4;stroke-linecap:butt;stroke-linejoin:miter;stroke-miterlimit:4;stroke-opacity:1;stroke-dasharray:none;stroke-dashoffset:0;marker:none;visibility:visible;display:inline;overflow:visible;enable-background:accumulate"
     d="m 339.86014,47.517482 c 5.21411,12.319944 -2.67191,24.587307 -4.09091,35.874125"
     id="path2995"
     inkscape:connector-curvature="0"
     sodipodi:nodetypes="cc" />
  <path
     style="color:#000000;fill:none;stroke:#000000;stroke-width:4;stroke-linecap:butt;stroke-linejoin:miter;stroke-miterlimit:4;stroke-opacity:1;stroke-dasharray:none;stroke-dashoffset:0;marker:none;visibility:visible;display:inline;overflow:visible;enable-background:accumulate"
     d="m 249.44057,39.990736 c -2.19439,12.157493 0.11807,24.48939 0,36.71516"
     id="path2997"
     inkscape:connector-curvature="0" />
  <path
     style="color:#000000;fill:none;stroke:#000000;stroke-width:4;stroke-linecap:butt;stroke-linejoin:miter;stroke-miterlimit:4;stroke-opacity:1;stroke-dasharray:none;stroke-dashoffset:0;marker:none;visibility:visible;display:inline;overflow:visible;enable-background:accumulate"
     d="m 248.32799,70.475445 c -14.08887,7.553553 -24.29827,36.931355 -8.67813,47.173415"
     id="path2999"
     inkscape:connector-curvature="0" />
  <path
     style="color:#000000;fill:none;stroke:#000000;stroke-width:4;stroke-linecap:butt;stroke-linejoin:miter;stroke-miterlimit:4;stroke-opacity:1;stroke-dasharray:none;stroke-dashoffset:0;marker:none;visibility:visible;display:inline;overflow:visible;enable-background:accumulate"
     d="m 337.55695,78.263509 c 30.9455,27.115811 -2.10204,50.922041 -31.59728,50.511161"
     id="path3001"
     inkscape:connector-curvature="0" />
  <path
     style="color:#000000;fill:none;stroke:#000000;stroke-width:4;stroke-linecap:butt;stroke-linejoin:miter;stroke-miterlimit:4;stroke-opacity:1;stroke-dasharray:none;stroke-dashoffset:0;marker:none;visibility:visible;display:inline;overflow:visible;enable-background:accumulate"
     d="m 232.08042,105.57692 c 1.96999,14.59042 -0.91583,23.46428 -4.56294,31.31119"
     id="path3003"
     inkscape:connector-curvature="0"
     sodipodi:nodetypes="cc" />
  <path
     style="color:#000000;fill:none;stroke:#000000;stroke-width:4;stroke-linecap:butt;stroke-linejoin:miter;stroke-miterlimit:4;stroke-opacity:1;stroke-dasharray:none;stroke-dashoffset:0;marker:none;visibility:visible;display:inline;overflow:visible;enable-background:accumulate"
     d="m 347.72727,109.35315 c 1.97027,8.37539 -0.12663,18.7676 -1.88811,26.90559"
     id="path3007"
     inkscape:connector-curvature="0"
     sodipodi:nodetypes="cc" />
  <path
     style="color:#000000;fill:none;stroke:#000000;stroke-width:4;stroke-linecap:butt;stroke-linejoin:miter;stroke-miterlimit:4;stroke-opacity:1;stroke-dasharray:none;stroke-dashoffset:0;marker:none;visibility:visible;display:inline;overflow:visible;enable-background:accumulate"
     d="m 347.72727,90.314684 c 27.24982,-18.773876 70.06332,-36.089178 97.22082,-8.029535 23.7131,23.698411 13.04531,61.052261 1.0948,87.856381 -3.31815,6.67899 -7.2609,13.04887 -11.77716,18.98434"
     id="path3009"
     inkscape:connector-curvature="0" />
  <path
     style="color:#000000;fill:none;stroke:#000000;stroke-width:4;stroke-linecap:butt;stroke-linejoin:miter;stroke-miterlimit:4;stroke-opacity:1;stroke-dasharray:none;stroke-dashoffset:0;marker:none;visibility:visible;display:inline;overflow:visible;enable-background:accumulate"
     d="m 351.18881,160.17482 c 8.92549,-35.19521 48.82232,-66.779715 85.19228,-51.3786 22.96012,16.81693 8.26615,51.9826 -6.01511,70.26001 l -2.70864,3.14657"
     id="path3011"
     inkscape:connector-curvature="0" />
  <path
     style="color:#000000;fill:none;stroke:#000000;stroke-width:4;stroke-linecap:butt;stroke-linejoin:miter;stroke-miterlimit:4;stroke-opacity:1;stroke-dasharray:none;stroke-dashoffset:0;marker:none;visibility:visible;display:inline;overflow:visible;enable-background:accumulate"
     d="m 401.06643,107.62238 c 43.83372,-11.098653 9.2831,60.79715 -15.38008,47.13811 -8.27367,-5.33226 -17.01001,-9.64585 -26.00103,-13.62413"
     id="path3013"
     inkscape:connector-curvature="0" />
  <path
     style="color:#000000;fill:none;stroke:#000000;stroke-width:4;stroke-linecap:butt;stroke-linejoin:miter;stroke-miterlimit:4;stroke-opacity:1;stroke-dasharray:none;stroke-dashoffset:0;marker:none;visibility:visible;display:inline;overflow:visible;enable-background:accumulate"
     d="m 232.36083,120.82926 c -56.11089,12.59899 -115.65289,33.49135 -152.548086,80.18218 -30.461072,31.43049 -21.913763,84.38724 9.722736,111.70808 56.62797,50.87597 133.68048,73.98971 208.95487,73.47432 52.59526,1.7317 109.43561,-9.27632 150.32907,-44.27798 31.95049,-23.73521 42.06947,-69.2762 23.91691,-104.45175 -9.14509,-18.70636 -24.83311,-33.11939 -38.60738,-48.38757"
     id="path3015"
     inkscape:connector-curvature="0"
     sodipodi:nodetypes="ccccccc" />
  <path
     style="color:#000000;fill:none;stroke:#000000;stroke-width:4;stroke-linecap:butt;stroke-linejoin:miter;stroke-miterlimit:4;stroke-opacity:1;stroke-dasharray:none;stroke-dashoffset:0;marker:none;visibility:visible;display:inline;overflow:visible;enable-background:accumulate"
     d="m 440.80443,181.95602 c 36.4859,25.75611 71.37696,64.33624 72.67955,111.18747 0.59829,22.46515 -19.14439,36.77465 -33.73922,50.80427"
     id="path3017"
     inkscape:connector-curvature="0" />
  <path
     style="color:#000000;fill:none;stroke:#000000;stroke-width:4;stroke-linecap:butt;stroke-linejoin:miter;stroke-miterlimit:4;stroke-opacity:1;stroke-dasharray:none;stroke-dashoffset:0;marker:none;visibility:visible;display:inline;overflow:visible;enable-background:accumulate"
     d="m 150.41958,147.27273 c -41.74923,19.44869 -93.55054,40.23696 -104.537561,90.52211 -7.33436,36.44077 3.330791,73.59527 0.934768,110.47563 1.035017,69.55892 -4.414747,139.43016 2.816903,208.73625 14.739343,64.95488 77.03223,107.37066 137.63892,124.84442 49.14229,12.80525 102.27837,13.10655 151.56858,0.59316 C 389.95971,668.35365 440.37333,630.96776 449.27741,575.68462 468.12431,488.51087 494.5087,402.9791 509.47553,315 l -0.60818,-1.52043 -10e-5,-2.5e-4 -0.46613,-1.16528"
     id="path3038"
     inkscape:connector-curvature="0"
     sodipodi:nodetypes="ccccccccccc" />
  <path
     style="color:#000000;fill:none;stroke:#000000;stroke-width:4;stroke-linecap:butt;stroke-linejoin:miter;stroke-miterlimit:4;stroke-opacity:1;stroke-dasharray:none;stroke-dashoffset:0;marker:none;visibility:visible;display:inline;overflow:visible;enable-background:accumulate"
     d="m 52.552448,290.76923 c 25.916572,55.37961 86.579912,81.73153 142.753822,95.39553 39.04056,11.31384 80.17353,14.30745 120.63779,11.91216"
     id="path3040"
     inkscape:connector-curvature="0" />
  <g
     id="g3906"
     transform="matrix(0.99095158,0.13421987,-0.13421987,0.99095158,52.710937,-12.07152)">
    <circle
       d="M 50,0 C 50,27.614237 27.614237,50 0,50 -27.614237,50 -50,27.614237 -50,0 c 0,-27.614237 22.385763,-50 50,-50 27.614237,0 50,22.385763 50,50 z"
       transform="matrix(0.34041917,0,0,0.34041917,208.951,509.97281)"
       sodipodi:ry="50"
       sodipodi:rx="50"
       sodipodi:cy="0"
       sodipodi:cx="0"
       cy="0"
       cx="0"
       id="circle3056"
       r="50" />
    <path
       inkscape:connector-curvature="0"
       id="bld"
       d="M 234.48244,509.97281 A 25.531438,25.531438 0 0 0 221.71672,487.8619 l 29.78668,-51.59188 a 85.104793,85.104793 0 0 1 42.5524,73.70279 z" />
    <use
       height="600"
       width="600"
       y="0"
       x="0"
       id="use3059"
       transform="matrix(-0.5,0.8660254,-0.8660254,-0.5,755.07591,584.00236)"
       xlink:href="#bld" />
    <use
       height="600"
       width="600"
       y="0"
       x="0"
       id="use3061"
       transform="matrix(-0.5,-0.8660254,0.8660254,-0.5,-128.2229,945.91607)"
       xlink:href="#bld" />
    <path
       d="m 298.1716,509.94479 c 0,49.40269 -40.04879,89.45148 -89.45148,89.45148 -49.40268,0 -89.45147,-40.04879 -89.45147,-89.45148 0,-49.40268 40.04879,-89.45147 89.45147,-89.45147 49.40269,0 89.45148,40.04879 89.45148,89.45147 z"
       sodipodi:ry="89.451477"
       sodipodi:rx="89.451477"
       sodipodi:cy="509.94479"
       sodipodi:cx="208.72012"
       id="path3136"
       style="color:#000000;fill:none;stroke:#000000;stroke-width:3;stroke-linecap:butt;stroke-linejoin:miter;stroke-miterlimit:4;stroke-opacity:1;stroke-dasharray:none;stroke-dashoffset:0;marker:none;visibility:visible;display:inline;overflow:visible;enable-background:accumulate"
       sodipodi:type="arc" />
  </g>
</svg>
