<?xml version="1.0" encoding="UTF-8" standalone="no"?>
<svg
   xmlns:dc="http://purl.org/dc/elements/1.1/"
   xmlns:cc="http://creativecommons.org/ns#"
   xmlns:rdf="http://www.w3.org/1999/02/22-rdf-syntax-ns#"
   xmlns:svg="http://www.w3.org/2000/svg"
   xmlns="http://www.w3.org/2000/svg"
   xmlns:xlink="http://www.w3.org/1999/xlink"
   xmlns:sodipodi="http://sodipodi.sourceforge.net/DTD/sodipodi-0.dtd"
   xmlns:inkscape="http://www.inkscape.org/namespaces/inkscape"
   style="text-anchor:middle;fill:none;stroke:#000000;stroke-width:2.5;stroke-linejoin:miter;font-family:'Helvetica, Arial, FreeSans, Sans, sans, sans-serif'"
   width="541.97784"
   height="487.79001"
   version="1.1"
   viewBox="0 0 541.97784 487.79001"
   id="svg2"
   inkscape:version="0.48.3.1 r9886"
   sodipodi:docname="visible_spectrum.svg"
   inkscape:export-filename="./visible_spectrum.png"
   inkscape:export-xdpi="41.509998"
   inkscape:export-ydpi="41.509998">
  <metadata
     id="metadata146">
    <rdf:RDF>
      <cc:Work
         rdf:about="">
        <dc:format>image/svg+xml</dc:format>
        <dc:type
           rdf:resource="http://purl.org/dc/dcmitype/StillImage" />
        <dc:title></dc:title>
      </cc:Work>
    </rdf:RDF>
  </metadata>
  <sodipodi:namedview
     pagecolor="#ffffff"
     bordercolor="#666666"
     borderopacity="1"
     objecttolerance="10"
     gridtolerance="10"
     guidetolerance="10"
     inkscape:pageopacity="1"
     inkscape:pageshadow="2"
     inkscape:window-width="1434"
     inkscape:window-height="847"
     id="namedview144"
     showgrid="false"
     inkscape:zoom="0.93333333"
     inkscape:cx="275.43745"
     inkscape:cy="250.05695"
     inkscape:window-x="0"
     inkscape:window-y="0"
     inkscape:window-maximized="0"
     inkscape:current-layer="frame_0"
     inkscape:object-nodes="false"
     inkscape:snap-smooth-nodes="false"
     fit-margin-top="10"
     fit-margin-left="10"
     fit-margin-right="10"
     fit-margin-bottom="10"
     inkscape:snap-nodes="false" />
  <defs
     id="defs4">
    <linearGradient
       inkscape:collect="always"
       id="linearGradient4254">
      <stop
         style="stop-color:#e1ede1;stop-opacity:1"
         offset="0"
         id="stop4256" />
      <stop
         style="stop-color:#decec1;stop-opacity:1"
         offset="1"
         id="stop4258" />
    </linearGradient>
    <clipPath
       id="Grid_0_clip">
      <rect
         x="60"
         y="25"
         width="1425"
         height="400"
         id="rect7" />
    </clipPath>
    <clipPath
       id="Grid_1_clip">
      <rect
         x="60"
         y="25"
         width="1425"
         height="400"
         id="rect10" />
    </clipPath>
    <clipPath
       id="Grid_2_clip">
      <rect
         x="60"
         y="25"
         width="1425"
         height="400"
         id="rect13" />
    </clipPath>
    <clipPath
       id="Grid_3_clip">
      <rect
         x="60"
         y="25"
         width="1425"
         height="400"
         id="rect16" />
    </clipPath>
    <clipPath
       id="Grid_4_clip">
      <rect
         x="60"
         y="25"
         width="1425"
         height="400"
         id="rect19" />
    </clipPath>
    <clipPath
       id="Grid_5_clip">
      <rect
         x="60"
         y="25"
         width="1425"
         height="400"
         id="rect22" />
    </clipPath>
    <clipPath
       id="Scatter_0_clip">
      <rect
         x="60"
         y="25"
         width="1425"
         height="400"
         id="rect25" />
    </clipPath>
    <clipPath
       id="Scatter_1_clip">
      <rect
         x="60"
         y="25"
         width="1425"
         height="400"
         id="rect28" />
    </clipPath>
    <clipPath
       id="Scatter_2_clip">
      <rect
         x="60"
         y="25"
         width="1425"
         height="400"
         id="rect31" />
    </clipPath>
    <clipPath
       id="Scatter_3_clip">
      <rect
         x="60"
         y="25"
         width="1425"
         height="400"
         id="rect34" />
    </clipPath>
    <clipPath
       id="Scatter_4_clip">
      <rect
         x="60"
         y="25"
         width="1425"
         height="400"
         id="rect37" />
    </clipPath>
    <clipPath
       id="Scatter_5_clip">
      <rect
         x="60"
         y="25"
         width="1425"
         height="400"
         id="rect40" />
    </clipPath>
    <clipPath
       id="Scatter_6_clip">
      <rect
         x="60"
         y="25"
         width="1425"
         height="400"
         id="rect43" />
    </clipPath>
    <clipPath
       id="Scatter_6_clip-8">
      <rect
         x="60"
         y="25"
         width="1425"
         height="400"
         id="rect43-2" />
    </clipPath>
    <clipPath
       id="Scatter_5_clip-5">
      <rect
         x="60"
         y="25"
         width="1425"
         height="400"
         id="rect40-3" />
    </clipPath>
    <clipPath
       id="Scatter_4_clip-6">
      <rect
         x="60"
         y="25"
         width="1425"
         height="400"
         id="rect37-5" />
    </clipPath>
    <clipPath
       id="Scatter_3_clip-3">
      <rect
         x="60"
         y="25"
         width="1425"
         height="400"
         id="rect34-9" />
    </clipPath>
    <linearGradient
       inkscape:collect="always"
       xlink:href="#linearGradient4254"
       id="linearGradient4260"
       x1="275.1561"
       y1="320.87808"
       x2="286.14148"
       y2="325.18701"
       gradientUnits="userSpaceOnUse" />
  </defs>
  <path
     style="text-anchor:middle;fill:none;stroke:#000000;stroke-width:4.73694897;stroke-linejoin:miter;stroke-opacity:1;stroke-dasharray:4.73694914, 4.73694914"
     inkscape:connector-curvature="0"
     id="path66"
     d="M 47.977852,137.72228 L 50.830652,135.44475 L 53.683652,133.21335 L 56.536452,131.02433 L 59.389252,128.88144 L 62.242052,126.78342 L 65.095052,124.72903 L 67.947852,122.71952 L 70.800652,120.75614 L 73.653452,118.83639 L 76.506452,116.96151 L 79.359252,115.13151 L 82.212052,113.34639 L 85.064852,111.6049 L 87.917852,109.90828 L 90.770652,108.25654 L 93.623455,106.64719 L 96.476255,105.08272 L 99.329255,103.56187 L 102.18206,102.08466 L 105.03486,100.65108 L 107.88786,99.259879 L 110.74066,97.911059 L 113.59346,96.604629 L 116.44626,95.340589 L 119.29926,94.117679 L 122.15206,92.93715 L 125.00486,91.79777 L 127.85766,90.69952 L 130.70986,89.63991 L 133.56386,88.62269 L 136.41586,87.64412 L 139.26986,86.70419 L 142.12186,85.80414 L 144.97386,84.94275 L 147.82786,84.11875 L 150.67986,83.33339 L 153.53386,82.58419 L 156.38586,81.87363 L 159.23986,81.19798 L 162.09186,80.55972 L 164.94386,79.95637 L 167.79786,79.38793 L 170.64986,78.85438 L 173.50386,78.35575 L 176.35586,77.89077 L 179.20986,77.45944 L 182.06186,77.06178 L 184.91386,76.69528 L 187.76786,76.3612 L 190.61986,76.05952 L 193.47386,75.78776 L 196.32586,75.54842 L 199.17986,75.33774 L 202.03186,75.15823 L 204.88386,75.00739 L 207.73786,74.88523 L 210.58986,74.79173 L 213.44386,74.72691 L 216.29586,74.68951 L 219.14986,74.67829 L 222.00186,74.6945 L 224.85386,74.73813 L 227.70786,74.80545 L 230.55986,74.89894 L 233.41386,75.01861 L 236.26586,75.16073 L 239.11986,75.32777 L 241.97186,75.5185 L 244.82386,75.73291 L 247.67786,75.96977 L 250.52986,76.22906 L 253.38386,76.51079 L 256.23586,76.81246 L 259.08986,77.13658 L 261.94186,77.48064 L 264.79386,77.84589 L 267.64786,78.23109 L 270.49986,78.63498 L 273.35386,79.05882 L 276.20586,79.50012 L 279.05986,79.96136 L 281.91186,80.44005 L 284.76386,80.93619 L 287.61786,81.44854 L 290.46986,81.97959 L 293.32386,82.5256 L 296.17586,83.08906 L 299.02986,83.66748 L 301.88186,84.26086 L 304.73386,84.87044 L 307.58786,85.49374 L 310.43986,86.132 L 313.29386,86.78397 L 316.14586,87.4509 L 318.99986,88.13029 L 321.85186,88.82215 L 324.70386,89.52772 L 327.55786,90.24451 L 330.40986,90.97502 L 333.26386,91.71674 L 336.11586,92.46968 L 338.96786,93.23384 L 341.82186,94.009219 L 344.67386,94.794579 L 347.52786,95.591149 L 350.37986,96.397699 L 353.23386,97.214219 L 356.08586,98.039459 L 358.93786,98.874679 L 361.79186,99.718619 L 364.64386,100.57129 L 367.49786,101.43269 L 370.34986,102.30157 L 373.20386,103.17917 L 376.05586,104.06425 L 378.90786,104.95681 L 381.76186,105.8556 L 384.61386,106.76313 L 387.46786,107.67688 L 390.31986,108.59686 L 393.17386,109.52308 L 396.02586,110.45554 L 398.87786,111.39422 L 401.73186,112.33914 L 404.58386,113.28904 L 407.43786,114.24393 L 410.28986,115.20381 L 413.14386,116.16867 L 415.99586,117.13852 L 418.84786,118.11336 L 421.70186,119.09194 L 424.55386,120.07425 L 427.40786,121.06031 L 430.25986,122.05135 L 433.11386,123.04489 L 435.96586,124.04216 L 438.81786,125.04318 L 441.67186,126.04668 L 444.52386,127.05393 L 447.37786,128.06367 L 450.22986,129.07591 L 453.08386,130.09063 L 455.93586,131.10785 L 458.78786,132.12632 L 461.64186,133.14853 L 464.49386,134.17073 L 467.34786,135.19543 L 470.19986,136.22263 L 473.05386,137.25107 L 475.90586,138.27951 L 478.75786,139.31044 L 481.61186,140.34262 L 484.46386,141.3748 L 487.31786,142.40823 L 490.16986,143.4429 L 493.02386,144.47757 L 495.87586,145.51349 L 498.72786,146.54941 L 501.58186,147.58533 L 504.43386,148.6225 L 507.28786,149.65842 L 510.13986,150.69558 L 512.99386,151.7315 L 515.84586,152.76742 L 518.69786,153.80334 L 521.55186,154.83926 L 524.40386,155.87393 L 527.25786,156.9086"
     sodipodi:nodetypes="ccccccccccccccccccccccccccccccccccccccccccccccccccccccccccccccccccccccccccccccccccccccccccccccccccccccccccccccccccccccccccccccccccccccccccccccccccccccccccccccccccccccccc" />
  <g
     transform="matrix(2,0,0,1,-72.022148,-13.75)"
     style="text-anchor:middle;fill:#ffffff;stroke:#000000;stroke-width:2.5;stroke-linejoin:miter"
     id="Scatter_6"
     clip-path="url(#Scatter_6_clip-8)">
    <path
       d="M 60,424.947 L 63.515,424.895 L 67.0301,424.787 L 70.5451,424.588 L 74.0602,424.253 L 77.5752,423.758 L 81.0903,423.027 L 84.6053,421.859 L 88.1204,420.333 L 91.6354,418.953 L 95.1505,417.72 L 98.6655,416.311 L 102.181,414.893 L 105.696,413.696 L 109.211,412.52 L 112.726,411.101 L 116.241,409 L 119.756,405.549 L 123.271,400.739 L 126.786,394.909 L 130.301,387.928 L 133.816,379.701 L 137.331,369.528 L 140.846,356.179 L 144.361,338.867 L 147.876,316.893 L 151.391,290.867 L 154.906,262.837 L 158.421,235.667 L 161.936,212.973 L 165.451,195.133 L 168.966,180.987 L 172.481,170.6 L 175.997,163.656 L 179.512,159.68 L 183.027,158.333 L 186.542,159.667 L 190.057,164 L 193.572,171.133 L 197.087,180.845 L 200.602,193 L 204.117,207.339 L 207.632,223.133 L 211.147,239.712 L 214.662,256.733 L 218.177,273.923 L 221.692,290.867 L 225.207,307.208 L 228.722,323.4 L 232.237,339.528 L 235.752,354.333 L 239.267,367.128 L 242.782,378.333 L 246.297,388.168 L 249.813,396.467 L 253.328,403.226 L 256.843,408.733 L 260.358,413.179 L 263.873,416.467 L 267.388,418.746 L 270.903,420.467 L 274.418,421.834 L 277.933,422.811 L 281.448,423.461 L 284.963,423.906 L 288.478,424.219 L 291.993,424.442 L 295.508,424.605 L 299.023,424.721"
       id="path84"
       inkscape:connector-curvature="0"
       style="fill:#ffffff;stroke:#000000;stroke-width:3;stroke-opacity:1;stroke-dasharray:none"
       sodipodi:nodetypes="ccccccccccccccccccccccccccccccccccccccccccccccccccccccccccccccccccccc" />
  </g>
  <g
     transform="matrix(2,0,0,1,-72.022148,-13.75)"
     style="text-anchor:middle;fill:none;stroke:#000000;stroke-width:2.5;stroke-linejoin:miter"
     id="Scatter_5"
     clip-path="url(#Scatter_5_clip-5)">
    <path
       d="M 60,424.696 L 60.3132,424.684 L 60.6263,424.671 L 60.9395,424.658 L 61.2526,424.645 L 61.5658,424.631 L 61.8789,424.616 L 62.1921,424.601 L 62.5052,424.586 L 62.8184,424.57 L 63.1315,424.553 L 63.4447,424.536 L 63.7578,424.519 L 64.071,424.501 L 64.3841,424.482 L 64.6973,424.463 L 65.0104,424.443 L 65.3236,424.423 L 65.6367,424.402 L 65.9499,424.38 L 66.263,424.358 L 66.5762,424.335 L 66.8894,424.312 L 67.2025,424.287 L 67.5157,424.262 L 67.8288,424.237 L 68.142,424.21 L 68.4551,424.183 L 68.7683,424.155 L 69.0814,424.127 L 69.3946,424.097 L 69.7077,424.067 L 70.0209,424.036 L 70.334,424.004 L 70.6472,423.972 L 70.9603,423.938 L 71.2735,423.904 L 71.5866,423.869 L 71.8998,423.833 L 72.2129,423.796 L 72.5261,423.758 L 72.8392,423.72 L 73.1524,423.68 L 73.4655,423.64 L 73.7787,423.598 L 74.0919,423.556 L 74.405,423.513 L 74.7182,423.468 L 75.0313,423.423 L 75.3445,423.377 L 75.6576,423.33 L 75.9708,423.281 L 76.2839,423.232 L 76.5971,423.182 L 76.9102,423.131 L 77.2234,423.078 L 77.5365,423.025 L 77.8497,422.971 L 78.1628,422.915 L 78.476,422.859 L 78.7891,422.801 L 79.1023,422.743 L 79.4154,422.683 L 79.7286,422.623 L 80.0417,422.561 L 80.3549,422.499 L 80.6681,422.435 L 80.9812,422.37 L 81.2944,422.304 L 81.6075,422.237 L 81.9207,422.17 L 82.2338,422.101 L 82.547,422.031 L 82.8601,421.96 L 83.1733,421.888 L 83.4864,421.815 L 83.7996,421.741 L 84.1127,421.666 L 84.4259,421.59 L 84.739,421.513 L 85.0522,421.435 L 85.3653,421.357 L 85.6785,421.277 L 85.9916,421.197 L 86.3048,421.115 L 86.6179,421.033 L 86.9311,420.95 L 87.2443,420.866 L 87.5574,420.781 L 87.8706,420.695 L 88.1837,420.609 L 88.4969,420.522 L 88.81,420.434 L 89.1232,420.345 L 89.4363,420.256 L 89.7495,420.166 L 90.0626,420.076 L 90.3758,419.985 L 90.6889,419.893 L 91.0021,419.801 L 91.3152,419.709 L 91.6284,419.615 L 91.9415,419.522 L 92.2547,419.428 L 92.5678,419.334 L 92.881,419.239 L 93.1941,419.144 L 93.5073,419.049 L 93.8205,418.954 L 94.1336,418.858 L 94.4468,418.763 L 94.7599,418.667 L 95.0731,418.571 L 95.3862,418.475 L 95.6994,418.38 L 96.0125,418.284 L 96.3257,418.188 L 96.6388,418.093 L 96.952,417.998 L 97.2651,417.903 L 97.5783,417.808 L 97.8914,417.714 L 98.2046,417.62 L 98.5177,417.526 L 98.8309,417.433 L 99.144,417.341 L 99.4572,417.249 L 99.7703,417.158 L 100.083,417.067 L 100.397,416.977 L 100.71,416.888 L 101.023,416.8 L 101.336,416.712 L 101.649,416.626 L 101.962,416.54 L 102.276,416.456 L 102.589,416.372 L 102.902,416.29 L 103.215,416.209 L 103.528,416.129 L 103.841,416.05 L 104.154,415.973 L 104.468,415.896 L 104.781,415.822 L 105.094,415.748 L 105.407,415.676 L 105.72,415.606 L 106.033,415.537 L 106.347,415.47 L 106.66,415.405 L 106.973,415.341 L 107.286,415.279 L 107.599,415.218 L 107.912,415.16 L 108.225,415.103 L 108.539,415.048 L 108.852,414.995 L 109.165,414.944 L 109.478,414.895 L 109.791,414.848 L 110.104,414.802 L 110.418,414.759 L 110.731,414.718 L 111.044,414.68 L 111.357,414.643 L 111.67,414.608 L 111.983,414.576 L 112.296,414.546 L 112.61,414.518 L 112.923,414.492 L 113.236,414.469 L 113.549,414.448 L 113.862,414.429 L 114.175,414.412 L 114.489,414.398 L 114.802,414.386 L 115.115,414.377 L 115.428,414.369 L 115.741,414.365 L 116.054,414.362 L 116.367,414.362 L 116.681,414.364 L 116.994,414.368 L 117.307,414.375 L 117.62,414.384 L 117.933,414.396 L 118.246,414.41 L 118.559,414.426 L 118.873,414.444 L 119.186,414.465 L 119.499,414.488 L 119.812,414.513 L 120.125,414.54 L 120.438,414.57 L 120.752,414.602 L 121.065,414.636 L 121.378,414.672 L 121.691,414.711 L 122.004,414.751 L 122.317,414.794 L 122.63,414.839 L 122.944,414.885 L 123.257,414.934 L 123.57,414.985 L 123.883,415.038 L 124.196,415.092 L 124.509,415.149 L 124.823,415.207 L 125.136,415.267 L 125.449,415.329 L 125.762,415.392 L 126.075,415.457 L 126.388,415.524 L 126.701,415.593 L 127.015,415.663 L 127.328,415.734 L 127.641,415.808 L 127.954,415.882 L 128.267,415.958 L 128.58,416.035 L 128.894,416.114 L 129.207,416.193 L 129.52,416.274 L 129.833,416.357 L 130.146,416.44 L 130.459,416.524 L 130.772,416.61 L 131.086,416.696 L 131.399,416.783 L 131.712,416.871 L 132.025,416.96 L 132.338,417.05 L 132.651,417.14 L 132.964,417.231 L 133.278,417.323 L 133.591,417.416 L 133.904,417.508 L 134.217,417.602 L 134.53,417.696 L 134.843,417.79 L 135.157,417.885 L 135.47,417.979 L 135.783,418.075 L 136.096,418.17 L 136.409,418.266 L 136.722,418.361 L 137.035,418.457 L 137.349,418.553 L 137.662,418.649 L 137.975,418.744 L 138.288,418.84 L 138.601,418.936 L 138.914,419.031 L 139.228,419.126 L 139.541,419.221 L 139.854,419.316 L 140.167,419.41 L 140.48,419.504 L 140.793,419.598 L 141.106,419.691 L 141.42,419.784 L 141.733,419.876 L 142.046,419.967 L 142.359,420.059 L 142.672,420.149 L 142.985,420.239 L 143.299,420.328 L 143.612,420.417 L 143.925,420.505 L 144.238,420.592 L 144.551,420.679 L 144.864,420.765 L 145.177,420.849 L 145.491,420.934 L 145.804,421.017 L 146.117,421.099 L 146.43,421.181 L 146.743,421.262 L 147.056,421.342 L 147.369,421.42 L 147.683,421.498 L 147.996,421.576 L 148.309,421.652 L 148.622,421.727 L 148.935,421.801 L 149.248,421.874 L 149.562,421.946 L 149.875,422.017 L 150.188,422.087 L 150.501,422.156 L 150.814,422.225 L 151.127,422.292 L 151.44,422.358 L 151.754,422.423 L 152.067,422.486 L 152.38,422.549 L 152.693,422.611 L 153.006,422.672 L 153.319,422.732 L 153.633,422.79 L 153.946,422.848 L 154.259,422.905 L 154.572,422.96 L 154.885,423.015 L 155.198,423.068 L 155.511,423.121 L 155.825,423.172 L 156.138,423.223 L 156.451,423.272 L 156.764,423.32 L 157.077,423.368 L 157.39,423.414 L 157.704,423.46 L 158.017,423.504 L 158.33,423.548 L 158.643,423.59 L 158.956,423.632 L 159.269,423.673 L 159.582,423.712 L 159.896,423.751 L 160.209,423.789 L 160.522,423.826 L 160.835,423.862 L 161.148,423.898 L 161.461,423.932 L 161.775,423.966 L 162.088,423.998 L 162.401,424.03 L 162.714,424.061 L 163.027,424.092 L 163.34,424.121 L 163.653,424.15 L 163.967,424.178 L 164.28,424.205 L 164.593,424.232 L 164.906,424.258 L 165.219,424.283 L 165.532,424.307 L 165.845,424.331 L 166.159,424.354 L 166.472,424.376 L 166.785,424.398 L 167.098,424.419 L 167.411,424.439 L 167.724,424.459 L 168.038,424.479 L 168.351,424.497 L 168.664,424.516 L 168.977,424.533 L 169.29,424.55 L 169.603,424.567 L 169.916,424.583 L 170.23,424.598 L 170.543,424.613 L 170.856,424.628 L 171.169,424.642 L 171.482,424.656 L 171.795,424.669 L 172.109,424.681 L 172.422,424.694 L 172.735,424.706 L 173.048,424.717 L 173.361,424.728 L 173.674,424.739 L 173.987,424.749 L 174.301,424.759 L 174.614,424.769 L 174.927,424.778 L 175.24,424.787 L 175.553,424.796 L 175.866,424.804 L 176.18,424.813 L 176.493,424.82 L 176.806,424.828 L 177.119,424.835 L 177.432,424.842 L 177.745,424.849 L 178.058,424.855 L 178.372,424.861 L 178.685,424.867 L 178.998,424.873 L 179.311,424.878 L 179.624,424.884 L 179.937,424.889 L 180.25,424.894 L 180.564,424.898 L 180.877,424.903 L 181.19,424.907 L 181.503,424.911 L 181.816,424.915 L 182.129,424.919 L 182.443,424.923 L 182.756,424.926 L 183.069,424.93 L 183.382,424.933 L 183.695,424.936 L 184.008,424.939 L 184.321,424.942 L 184.635,424.945 L 184.948,424.947 L 185.261,424.95 L 185.574,424.952 L 185.887,424.954 L 186.2,424.957 L 186.514,424.959 L 186.827,424.961 L 187.14,424.963 L 187.453,424.964 L 187.766,424.966 L 188.079,424.968 L 188.392,424.969 L 188.706,424.971 L 189.019,424.972 L 189.332,424.974 L 189.645,424.975 L 189.958,424.976 L 190.271,424.978 L 190.585,424.979 L 190.898,424.98 L 191.211,424.981 L 191.524,424.982 L 191.837,424.983 L 192.15,424.984 L 192.463,424.984 L 192.777,424.985 L 193.09,424.986 L 193.403,424.987 L 193.716,424.988 L 194.029,424.988 L 194.342,424.989 L 194.655,424.989 L 194.969,424.99 L 195.282,424.991 L 195.595,424.991 L 195.908,424.992 L 196.221,424.992 L 196.534,424.992 L 196.848,424.993 L 197.161,424.993 L 197.474,424.994 L 197.787,424.994 L 198.1,424.994 L 198.413,424.995 L 198.726,424.995 L 199.04,424.995 L 199.353,424.995 L 199.666,424.996 L 199.979,424.996 L 200.292,424.996 L 200.605,424.996 L 200.919,424.997 L 201.232,424.997 L 201.545,424.997 L 201.858,424.997 L 202.171,424.997 L 202.484,424.998 L 202.797,424.998 L 203.111,424.998 L 203.424,424.998 L 203.737,424.998 L 204.05,424.998 L 204.363,424.998 L 204.676,424.998 L 204.99,424.998 L 205.303,424.999 L 205.616,424.999 L 205.929,424.999 L 206.242,424.999 L 206.555,424.999 L 206.868,424.999 L 207.182,424.999 L 207.495,424.999 L 207.808,424.999 L 208.121,424.999 L 208.434,424.999 L 208.747,424.999 L 209.061,424.999 L 209.374,424.999 L 209.687,424.999 L 210,424.999 L 210.313,424.999 L 210.626,425 L 210.939,425 L 211.253,425 L 211.566,425 L 211.879,425 L 212.192,425 L 212.505,425 L 212.818,425 L 213.131,425 L 213.445,425 L 213.758,425 L 214.071,425 L 214.384,425 L 214.697,425 L 215.01,425 L 215.324,425 L 215.637,425 L 215.95,425 L 216.263,425 L 216.576,425 L 216.889,425 L 217.202,425 L 217.516,425 L 217.829,425 L 218.142,425 L 218.455,425 L 218.768,425 L 219.081,425 L 219.395,425 L 219.708,425 L 220.021,425 L 220.334,425 L 220.647,425 L 220.96,425 L 221.273,425 L 221.587,425 L 221.9,425 L 222.213,425 L 222.526,425 L 222.839,425 L 223.152,425 L 223.466,425 L 223.779,425 L 224.092,425 L 224.405,425 L 224.718,425 L 225.031,425 L 225.344,425 L 225.658,425 L 225.971,425 L 226.284,425 L 226.597,425 L 226.91,425 L 227.223,425 L 227.536,425 L 227.85,425 L 228.163,425 L 228.476,425 L 228.789,425 L 229.102,425 L 229.415,425 L 229.729,425 L 230.042,425 L 230.355,425 L 230.668,425 L 230.981,425 L 231.294,425 L 231.607,425 L 231.921,425 L 232.234,425 L 232.547,425 L 232.86,425 L 233.173,425 L 233.486,425 L 233.8,425 L 234.113,425 L 234.426,425 L 234.739,425 L 235.052,425 L 235.365,425 L 235.678,425 L 235.992,425 L 236.305,425 L 236.618,425 L 236.931,425 L 237.244,425 L 237.557,425 L 237.871,425 L 238.184,425 L 238.497,425 L 238.81,425 L 239.123,425 L 239.436,425 L 239.749,425 L 240.063,425 L 240.376,425 L 240.689,425 L 241.002,425 L 241.315,425 L 241.628,425 L 241.941,425 L 242.255,425 L 242.568,425 L 242.881,425 L 243.194,425 L 243.507,425 L 243.82,425 L 244.134,425 L 244.447,425 L 244.76,425 L 245.073,425 L 245.386,425 L 245.699,425 L 246.012,425 L 246.326,425 L 246.639,425 L 246.952,425 L 247.265,425 L 247.578,425 L 247.891,425 L 248.205,425 L 248.518,425 L 248.831,425 L 249.144,425 L 249.457,425 L 249.77,425 L 250.083,425 L 250.397,425 L 250.71,425 L 251.023,425 L 251.336,425 L 251.649,425 L 251.962,425 L 252.276,425 L 252.589,425 L 252.902,425 L 253.215,425 L 253.528,425 L 253.841,425 L 254.154,425 L 254.468,425 L 254.781,425 L 255.094,425 L 255.407,425 L 255.72,425 L 256.033,425 L 256.347,425 L 256.66,425 L 256.973,425 L 257.286,425 L 257.599,425 L 257.912,425 L 258.225,425 L 258.539,425 L 258.852,425 L 259.165,425 L 259.478,425 L 259.791,425 L 260.104,425 L 260.417,425 L 260.731,425 L 261.044,425 L 261.357,425 L 261.67,425 L 261.983,425 L 262.296,425 L 262.61,425 L 262.923,425 L 263.236,425 L 263.549,425 L 263.862,425 L 264.175,425 L 264.488,425 L 264.802,425 L 265.115,425 L 265.428,425 L 265.741,425 L 266.054,425 L 266.367,425 L 266.681,425 L 266.994,425 L 267.307,425 L 267.62,425 L 267.933,425 L 268.246,425 L 268.559,425 L 268.873,425 L 269.186,425 L 269.499,425 L 269.812,425 L 270.125,425 L 270.438,425 L 270.752,425 L 271.065,425 L 271.378,425 L 271.691,425 L 272.004,425 L 272.317,425 L 272.63,425 L 272.944,425 L 273.257,425 L 273.57,425 L 273.883,425 L 274.196,425 L 274.509,425 L 274.822,425 L 275.136,425 L 275.449,425 L 275.762,425 L 276.075,425 L 276.388,425 L 276.701,425 L 277.015,425 L 277.328,425 L 277.641,425 L 277.954,425 L 278.267,425 L 278.58,425 L 278.893,425 L 279.207,425 L 279.52,425 L 279.833,425 L 280.146,425 L 280.459,425 L 280.772,425 L 281.086,425 L 281.399,425 L 281.712,425 L 282.025,425 L 282.338,425 L 282.651,425 L 282.964,425 L 283.278,425 L 283.591,425 L 283.904,425 L 284.217,425 L 284.53,425 L 284.843,425 L 285.157,425 L 285.47,425 L 285.783,425 L 286.096,425 L 286.409,425 L 286.722,425 L 287.035,425 L 287.349,425 L 287.662,425 L 287.975,425 L 288.288,425 L 288.601,425 L 288.914,425 L 289.228,425 L 289.541,425 L 289.854,425 L 290.167,425 L 290.48,425 L 290.793,425 L 291.106,425 L 291.42,425 L 291.733,425 L 292.046,425 L 292.359,425 L 292.672,425 L 292.985,425 L 293.298,425 L 293.612,425 L 293.925,425 L 294.238,425 L 294.551,425 L 294.864,425 L 295.177,425 L 295.491,425 L 295.804,425 L 296.117,425 L 296.43,425 L 296.743,425 L 297.056,425 L 297.369,425 L 297.683,425 L 297.996,425 L 298.309,425 L 298.622,425 L 298.935,425 L 299.248,425 L 299.562,425 L 299.875,425 L 300.188,425"
       id="path81"
       inkscape:connector-curvature="0"
       style="fill:#0000ff;fill-opacity:0.23636367;stroke:#0000ff;stroke-width:3;stroke-opacity:1;stroke-dasharray:none"
       sodipodi:nodetypes="cccccccccccccccccccccccccccccccccccccccccccccccccccccccccccccccccccccccccccccccccccccccccccccccccccccccccccccccccccccccccccccccccccccccccccccccccccccccccccccccccccccccccccccccccccccccccccccccccccccccccccccccccccccccccccccccccccccccccccccccccccccccccccccccccccccccccccccccccccccccccccccccccccccccccccccccccccccccccccccccccccccccccccccccccccccccccccccccccccccccccccccccccccccccccccccccccccccccccccccccccccccccccccccccccccccccccccccccccccccccccccccccccccccccccccccccccccccccccccccccccccccccccccccccccccccccccccccccccccccccccccccccccccccccccccccccccccccccccccccccccccccccccccccccccccccccccccccccccccccccccccccccccccccccccccccccccccccccccccccccccccccccccccccccccccccccccccccccccccccccccccccccccccccccccccccccccccccccccccccccccccccccccccccccccccccccccccccccccccccccccccccccc" />
  </g>
  <g
     transform="matrix(2,0,0,1,-72.022148,-13.75)"
     style="text-anchor:middle;fill:none;stroke:#000000;stroke-width:2.5;stroke-linejoin:miter"
     id="g3239">
    <g
       clip-path="url(#Scatter_4_clip-6)"
       id="Scatter_4">
      <path
         sodipodi:nodetypes="ccccccccccccccccccccccccccccccccccccccccccccccccccccccccccccccccccccccccccccccccccccccccccccccccccccccccccccccccccccccccccccccccccccccccccccccccccccccccccccccccccccccccccccccccccccccccccccccccccccccccccccccccccccccccccccccccccccccccccccccccccccccccccccccccccccccccccccccccccccccccccccccccccccccccccccccccccccccccccccccccccccccccccccccccccccccccccccccccccccccccccccccccccccccccccccccccccccccccccccccccccccccccccccccccccccccccccccccccccccccccccccccccccccccccccccccccccccccccccccccccccccccccccccccccccccccccccccccccccccccccccccccccccccccccccccccccccccccccccccccccccccccccccccccccccccccccccccccccccccccccccccccccccccccccccccccccccccccccccccccccccccccccccccccccccccccccccccccccccccccccccccccccccccccccccccccccccccccccccccccccccccccccccccccccccccccccccccccccccccccccccccccccc"
         style="fill:#006400;fill-opacity:0.11818183;stroke:#006400;stroke-width:3;stroke-opacity:1;stroke-dasharray:none"
         inkscape:connector-curvature="0"
         id="path78"
         d="M 60,425 L 60.3132,425 L 60.6263,425 L 60.9395,425 L 61.2526,425 L 61.5658,425 L 61.8789,425 L 62.1921,425 L 62.5052,425 L 62.8184,425 L 63.1315,425 L 63.4447,425 L 63.7578,424.999 L 64.071,424.999 L 64.3841,424.999 L 64.6973,424.999 L 65.0104,424.999 L 65.3236,424.999 L 65.6367,424.999 L 65.9499,424.999 L 66.263,424.999 L 66.5762,424.999 L 66.8894,424.999 L 67.2025,424.999 L 67.5157,424.999 L 67.8288,424.999 L 68.142,424.999 L 68.4551,424.998 L 68.7683,424.998 L 69.0814,424.998 L 69.3946,424.998 L 69.7077,424.998 L 70.0209,424.998 L 70.334,424.998 L 70.6472,424.998 L 70.9603,424.997 L 71.2735,424.997 L 71.5866,424.997 L 71.8998,424.997 L 72.2129,424.996 L 72.5261,424.996 L 72.8392,424.996 L 73.1524,424.996 L 73.4655,424.995 L 73.7787,424.995 L 74.0919,424.995 L 74.405,424.994 L 74.7182,424.994 L 75.0313,424.994 L 75.3445,424.993 L 75.6576,424.993 L 75.9708,424.992 L 76.2839,424.992 L 76.5971,424.991 L 76.9102,424.99 L 77.2234,424.99 L 77.5365,424.989 L 77.8497,424.988 L 78.1628,424.988 L 78.476,424.987 L 78.7891,424.986 L 79.1023,424.985 L 79.4154,424.984 L 79.7286,424.983 L 80.0417,424.982 L 80.3549,424.981 L 80.6681,424.979 L 80.9812,424.978 L 81.2944,424.977 L 81.6075,424.975 L 81.9207,424.974 L 82.2338,424.972 L 82.547,424.97 L 82.8601,424.968 L 83.1733,424.966 L 83.4864,424.964 L 83.7996,424.962 L 84.1127,424.96 L 84.4259,424.957 L 84.739,424.955 L 85.0522,424.952 L 85.3653,424.949 L 85.6785,424.946 L 85.9916,424.942 L 86.3048,424.939 L 86.6179,424.935 L 86.9311,424.931 L 87.2443,424.927 L 87.5574,424.923 L 87.8706,424.918 L 88.1837,424.914 L 88.4969,424.908 L 88.81,424.903 L 89.1232,424.897 L 89.4363,424.891 L 89.7495,424.885 L 90.0626,424.878 L 90.3758,424.871 L 90.6889,424.864 L 91.0021,424.856 L 91.3152,424.848 L 91.6284,424.84 L 91.9415,424.83 L 92.2547,424.821 L 92.5678,424.811 L 92.881,424.8 L 93.1941,424.789 L 93.5073,424.778 L 93.8205,424.765 L 94.1336,424.753 L 94.4468,424.739 L 94.7599,424.725 L 95.0731,424.71 L 95.3862,424.694 L 95.6994,424.678 L 96.0125,424.661 L 96.3257,424.643 L 96.6388,424.624 L 96.952,424.604 L 97.2651,424.583 L 97.5783,424.561 L 97.8914,424.538 L 98.2046,424.514 L 98.5177,424.489 L 98.8309,424.463 L 99.144,424.435 L 99.4572,424.406 L 99.7703,424.376 L 100.083,424.345 L 100.397,424.312 L 100.71,424.277 L 101.023,424.241 L 101.336,424.203 L 101.649,424.164 L 101.962,424.123 L 102.276,424.08 L 102.589,424.035 L 102.902,423.988 L 103.215,423.94 L 103.528,423.889 L 103.841,423.835 L 104.154,423.78 L 104.468,423.722 L 104.781,423.662 L 105.094,423.599 L 105.407,423.534 L 105.72,423.465 L 106.033,423.394 L 106.347,423.32 L 106.66,423.243 L 106.973,423.163 L 107.286,423.08 L 107.599,422.993 L 107.912,422.903 L 108.225,422.809 L 108.539,422.712 L 108.852,422.611 L 109.165,422.506 L 109.478,422.396 L 109.791,422.283 L 110.104,422.165 L 110.418,422.043 L 110.731,421.916 L 111.044,421.784 L 111.357,421.648 L 111.67,421.506 L 111.983,421.36 L 112.296,421.208 L 112.61,421.05 L 112.923,420.887 L 113.236,420.718 L 113.549,420.543 L 113.862,420.361 L 114.175,420.174 L 114.489,419.98 L 114.802,419.779 L 115.115,419.571 L 115.428,419.357 L 115.741,419.135 L 116.054,418.905 L 116.367,418.669 L 116.681,418.424 L 116.994,418.171 L 117.307,417.91 L 117.62,417.641 L 117.933,417.363 L 118.246,417.077 L 118.559,416.781 L 118.873,416.476 L 119.186,416.162 L 119.499,415.838 L 119.812,415.505 L 120.125,415.161 L 120.438,414.807 L 120.752,414.443 L 121.065,414.068 L 121.378,413.682 L 121.691,413.285 L 122.004,412.876 L 122.317,412.456 L 122.63,412.025 L 122.944,411.581 L 123.257,411.125 L 123.57,410.657 L 123.883,410.176 L 124.196,409.683 L 124.509,409.176 L 124.823,408.656 L 125.136,408.123 L 125.449,407.576 L 125.762,407.015 L 126.075,406.44 L 126.388,405.851 L 126.701,405.247 L 127.015,404.629 L 127.328,403.996 L 127.641,403.348 L 127.954,402.684 L 128.267,402.005 L 128.58,401.311 L 128.894,400.601 L 129.207,399.875 L 129.52,399.133 L 129.833,398.375 L 130.146,397.601 L 130.459,396.81 L 130.772,396.003 L 131.086,395.179 L 131.399,394.338 L 131.712,393.48 L 132.025,392.605 L 132.338,391.713 L 132.651,390.803 L 132.964,389.877 L 133.278,388.933 L 133.591,387.972 L 133.904,386.993 L 134.217,385.996 L 134.53,384.983 L 134.843,383.951 L 135.157,382.903 L 135.47,381.836 L 135.783,380.753 L 136.096,379.651 L 136.409,378.533 L 136.722,377.397 L 137.035,376.243 L 137.349,375.073 L 137.662,373.885 L 137.975,372.68 L 138.288,371.459 L 138.601,370.221 L 138.914,368.966 L 139.228,367.695 L 139.541,366.407 L 139.854,365.104 L 140.167,363.784 L 140.48,362.449 L 140.793,361.099 L 141.106,359.734 L 141.42,358.353 L 141.733,356.958 L 142.046,355.549 L 142.359,354.126 L 142.672,352.69 L 142.985,351.24 L 143.299,349.777 L 143.612,348.302 L 143.925,346.814 L 144.238,345.315 L 144.551,343.805 L 144.864,342.284 L 145.177,340.752 L 145.491,339.211 L 145.804,337.66 L 146.117,336.1 L 146.43,334.532 L 146.743,332.956 L 147.056,331.372 L 147.369,329.782 L 147.683,328.186 L 147.996,326.584 L 148.309,324.977 L 148.622,323.366 L 148.935,321.751 L 149.248,320.132 L 149.562,318.512 L 149.875,316.889 L 150.188,315.266 L 150.501,313.642 L 150.814,312.018 L 151.127,310.396 L 151.44,308.775 L 151.754,307.156 L 152.067,305.541 L 152.38,303.929 L 152.693,302.322 L 153.006,300.721 L 153.319,299.125 L 153.633,297.537 L 153.946,295.956 L 154.259,294.384 L 154.572,292.821 L 154.885,291.269 L 155.198,289.727 L 155.511,288.196 L 155.825,286.678 L 156.138,285.174 L 156.451,283.683 L 156.764,282.207 L 157.077,280.747 L 157.39,279.303 L 157.704,277.877 L 158.017,276.468 L 158.33,275.079 L 158.643,273.708 L 158.956,272.358 L 159.269,271.029 L 159.582,269.722 L 159.896,268.438 L 160.209,267.177 L 160.522,265.94 L 160.835,264.727 L 161.148,263.541 L 161.461,262.38 L 161.775,261.246 L 162.088,260.14 L 162.401,259.062 L 162.714,258.013 L 163.027,256.993 L 163.34,256.004 L 163.653,255.045 L 163.967,254.118 L 164.28,253.222 L 164.593,252.359 L 164.906,251.529 L 165.219,250.732 L 165.532,249.97 L 165.845,249.242 L 166.159,248.548 L 166.472,247.89 L 166.785,247.268 L 167.098,246.682 L 167.411,246.133 L 167.724,245.621 L 168.038,245.145 L 168.351,244.708 L 168.664,244.308 L 168.977,243.946 L 169.29,243.622 L 169.603,243.337 L 169.916,243.091 L 170.23,242.883 L 170.543,242.714 L 170.856,242.585 L 171.169,242.495 L 171.482,242.443 L 171.795,242.432 L 172.109,242.459 L 172.422,242.526 L 172.735,242.631 L 173.048,242.776 L 173.361,242.96 L 173.674,243.183 L 173.987,243.445 L 174.301,243.745 L 174.614,244.084 L 174.927,244.461 L 175.24,244.876 L 175.553,245.329 L 175.866,245.819 L 176.18,246.346 L 176.493,246.91 L 176.806,247.51 L 177.119,248.146 L 177.432,248.818 L 177.745,249.525 L 178.058,250.267 L 178.372,251.043 L 178.685,251.853 L 178.998,252.696 L 179.311,253.572 L 179.624,254.48 L 179.937,255.42 L 180.25,256.391 L 180.564,257.393 L 180.877,258.424 L 181.19,259.485 L 181.503,260.574 L 181.816,261.691 L 182.129,262.835 L 182.443,264.006 L 182.756,265.203 L 183.069,266.426 L 183.382,267.672 L 183.695,268.943 L 184.008,270.236 L 184.321,271.552 L 184.635,272.889 L 184.948,274.247 L 185.261,275.626 L 185.574,277.023 L 185.887,278.439 L 186.2,279.872 L 186.514,281.322 L 186.827,282.789 L 187.14,284.271 L 187.453,285.767 L 187.766,287.277 L 188.079,288.8 L 188.392,290.335 L 188.706,291.881 L 189.019,293.438 L 189.332,295.004 L 189.645,296.58 L 189.958,298.164 L 190.271,299.755 L 190.585,301.353 L 190.898,302.957 L 191.211,304.565 L 191.524,306.179 L 191.837,307.795 L 192.15,309.415 L 192.463,311.037 L 192.777,312.66 L 193.09,314.284 L 193.403,315.908 L 193.716,317.531 L 194.029,319.153 L 194.342,320.772 L 194.655,322.389 L 194.969,324.003 L 195.282,325.613 L 195.595,327.218 L 195.908,328.817 L 196.221,330.411 L 196.534,331.999 L 196.848,333.579 L 197.161,335.153 L 197.474,336.717 L 197.787,338.274 L 198.1,339.821 L 198.413,341.359 L 198.726,342.886 L 199.04,344.403 L 199.353,345.909 L 199.666,347.404 L 199.979,348.886 L 200.292,350.357 L 200.605,351.814 L 200.919,353.259 L 201.232,354.69 L 201.545,356.108 L 201.858,357.511 L 202.171,358.901 L 202.484,360.275 L 202.797,361.635 L 203.111,362.979 L 203.424,364.308 L 203.737,365.621 L 204.05,366.918 L 204.363,368.199 L 204.676,369.464 L 204.99,370.712 L 205.303,371.944 L 205.616,373.159 L 205.929,374.356 L 206.242,375.537 L 206.555,376.701 L 206.868,377.848 L 207.182,378.977 L 207.495,380.089 L 207.808,381.183 L 208.121,382.26 L 208.434,383.319 L 208.747,384.361 L 209.061,385.385 L 209.374,386.392 L 209.687,387.382 L 210,388.354 L 210.313,389.308 L 210.626,390.245 L 210.939,391.165 L 211.253,392.067 L 211.566,392.953 L 211.879,393.821 L 212.192,394.672 L 212.505,395.506 L 212.818,396.324 L 213.131,397.125 L 213.445,397.909 L 213.758,398.677 L 214.071,399.429 L 214.384,400.164 L 214.697,400.884 L 215.01,401.587 L 215.324,402.276 L 215.637,402.948 L 215.95,403.606 L 216.263,404.248 L 216.576,404.875 L 216.889,405.487 L 217.202,406.085 L 217.516,406.669 L 217.829,407.238 L 218.142,407.794 L 218.455,408.335 L 218.768,408.863 L 219.081,409.378 L 219.395,409.879 L 219.708,410.368 L 220.021,410.844 L 220.334,411.307 L 220.647,411.758 L 220.96,412.197 L 221.273,412.624 L 221.587,413.039 L 221.9,413.443 L 222.213,413.835 L 222.526,414.217 L 222.839,414.588 L 223.152,414.948 L 223.466,415.298 L 223.779,415.638 L 224.092,415.967 L 224.405,416.287 L 224.718,416.598 L 225.031,416.899 L 225.344,417.191 L 225.658,417.474 L 225.971,417.748 L 226.284,418.014 L 226.597,418.272 L 226.91,418.521 L 227.223,418.763 L 227.536,418.997 L 227.85,419.223 L 228.163,419.442 L 228.476,419.654 L 228.789,419.859 L 229.102,420.057 L 229.415,420.249 L 229.729,420.434 L 230.042,420.612 L 230.355,420.785 L 230.668,420.952 L 230.981,421.113 L 231.294,421.268 L 231.607,421.418 L 231.921,421.563 L 232.234,421.702 L 232.547,421.837 L 232.86,421.967 L 233.173,422.092 L 233.486,422.212 L 233.8,422.328 L 234.113,422.44 L 234.426,422.548 L 234.739,422.651 L 235.052,422.751 L 235.365,422.847 L 235.678,422.939 L 235.992,423.028 L 236.305,423.113 L 236.618,423.195 L 236.931,423.274 L 237.244,423.35 L 237.557,423.423 L 237.871,423.493 L 238.184,423.56 L 238.497,423.624 L 238.81,423.686 L 239.123,423.745 L 239.436,423.802 L 239.749,423.857 L 240.063,423.909 L 240.376,423.959 L 240.689,424.007 L 241.002,424.053 L 241.315,424.097 L 241.628,424.139 L 241.941,424.18 L 242.255,424.219 L 242.568,424.256 L 242.881,424.291 L 243.194,424.325 L 243.507,424.357 L 243.82,424.388 L 244.134,424.418 L 244.447,424.446 L 244.76,424.473 L 245.073,424.499 L 245.386,424.524 L 245.699,424.547 L 246.012,424.57 L 246.326,424.591 L 246.639,424.612 L 246.952,424.631 L 247.265,424.65 L 247.578,424.668 L 247.891,424.684 L 248.205,424.701 L 248.518,424.716 L 248.831,424.731 L 249.144,424.744 L 249.457,424.758 L 249.77,424.77 L 250.083,424.782 L 250.397,424.794 L 250.71,424.805 L 251.023,424.815 L 251.336,424.825 L 251.649,424.834 L 251.962,424.843 L 252.276,424.851 L 252.589,424.859 L 252.902,424.867 L 253.215,424.874 L 253.528,424.881 L 253.841,424.888 L 254.154,424.894 L 254.468,424.9 L 254.781,424.905 L 255.094,424.91 L 255.407,424.915 L 255.72,424.92 L 256.033,424.925 L 256.347,424.929 L 256.66,424.933 L 256.973,424.937 L 257.286,424.94 L 257.599,424.944 L 257.912,424.947 L 258.225,424.95 L 258.539,424.953 L 258.852,424.956 L 259.165,424.958 L 259.478,424.961 L 259.791,424.963 L 260.104,424.965 L 260.417,424.967 L 260.731,424.969 L 261.044,424.971 L 261.357,424.973 L 261.67,424.974 L 261.983,424.976 L 262.296,424.977 L 262.61,424.979 L 262.923,424.98 L 263.236,424.981 L 263.549,424.982 L 263.862,424.983 L 264.175,424.984 L 264.488,424.985 L 264.802,424.986 L 265.115,424.987 L 265.428,424.988 L 265.741,424.989 L 266.054,424.989 L 266.367,424.99 L 266.681,424.991 L 266.994,424.991 L 267.307,424.992 L 267.62,424.992 L 267.933,424.993 L 268.246,424.993 L 268.559,424.994 L 268.873,424.994 L 269.186,424.995 L 269.499,424.995 L 269.812,424.995 L 270.125,424.996 L 270.438,424.996 L 270.752,424.996 L 271.065,424.996 L 271.378,424.997 L 271.691,424.997 L 272.004,424.997 L 272.317,424.997 L 272.63,424.997 L 272.944,424.998 L 273.257,424.998 L 273.57,424.998 L 273.883,424.998 L 274.196,424.998 L 274.509,424.998 L 274.822,424.998 L 275.136,424.999 L 275.449,424.999 L 275.762,424.999 L 276.075,424.999 L 276.388,424.999 L 276.701,424.999 L 277.015,424.999 L 277.328,424.999 L 277.641,424.999 L 277.954,424.999 L 278.267,424.999 L 278.58,424.999 L 278.893,424.999 L 279.207,424.999 L 279.52,424.999 L 279.833,425 L 280.146,425 L 280.459,425 L 280.772,425 L 281.086,425 L 281.399,425 L 281.712,425 L 282.025,425 L 282.338,425 L 282.651,425 L 282.964,425 L 283.278,425 L 283.591,425 L 283.904,425 L 284.217,425 L 284.53,425 L 284.843,425 L 285.157,425 L 285.47,425 L 285.783,425 L 286.096,425 L 286.409,425 L 286.722,425 L 287.035,425 L 287.349,425 L 287.662,425 L 287.975,425 L 288.288,425 L 288.601,425 L 288.914,425 L 289.228,425 L 289.541,425 L 289.854,425 L 290.167,425 L 290.48,425 L 290.793,425 L 291.106,425 L 291.42,425 L 291.733,425 L 292.046,425 L 292.359,425 L 292.672,425 L 292.985,425 L 293.298,425 L 293.612,425 L 293.925,425 L 294.238,425 L 294.551,425 L 294.864,425 L 295.177,425 L 295.491,425 L 295.804,425 L 296.117,425 L 296.43,425 L 296.743,425 L 297.056,425 L 297.369,425 L 297.683,425 L 297.996,425 L 298.309,425 L 298.622,425 L 298.935,425 L 299.248,425 L 299.562,425 L 299.875,425 L 300.188,425 L 300.501,425" />
    </g>
  </g>
  <g
     transform="matrix(2,0,0,1,-72.022148,-13.75)"
     style="text-anchor:middle;fill:none;stroke:#000000;stroke-width:2.5;stroke-linejoin:miter"
     id="Scatter_3"
     clip-path="url(#Scatter_3_clip-3)">
    <path
       d="M 60,425 L 60.3132,425 L 60.6263,425 L 60.9395,425 L 61.2526,425 L 61.5658,425 L 61.8789,425 L 62.1921,425 L 62.5052,425 L 62.8184,425 L 63.1315,425 L 63.4447,425 L 63.7578,425 L 64.071,425 L 64.3841,425 L 64.6973,425 L 65.0104,425 L 65.3236,425 L 65.6367,425 L 65.9499,425 L 66.263,425 L 66.5762,425 L 66.8894,425 L 67.2025,425 L 67.5157,425 L 67.8288,425 L 68.142,425 L 68.4551,425 L 68.7683,425 L 69.0814,425 L 69.3946,425 L 69.7077,425 L 70.0209,425 L 70.334,425 L 70.6472,425 L 70.9603,425 L 71.2735,425 L 71.5866,425 L 71.8998,425 L 72.2129,425 L 72.5261,425 L 72.8392,425 L 73.1524,425 L 73.4655,425 L 73.7787,425 L 74.0919,425 L 74.405,425 L 74.7182,425 L 75.0313,425 L 75.3445,425 L 75.6576,425 L 75.9708,425 L 76.2839,425 L 76.5971,425 L 76.9102,425 L 77.2234,425 L 77.5365,425 L 77.8497,425 L 78.1628,425 L 78.476,425 L 78.7891,424.999 L 79.1023,424.999 L 79.4154,424.999 L 79.7286,424.999 L 80.0417,424.999 L 80.3549,424.999 L 80.6681,424.999 L 80.9812,424.999 L 81.2944,424.999 L 81.6075,424.999 L 81.9207,424.999 L 82.2338,424.999 L 82.547,424.999 L 82.8601,424.999 L 83.1733,424.999 L 83.4864,424.999 L 83.7996,424.999 L 84.1127,424.998 L 84.4259,424.998 L 84.739,424.998 L 85.0522,424.998 L 85.3653,424.998 L 85.6785,424.998 L 85.9916,424.998 L 86.3048,424.998 L 86.6179,424.998 L 86.9311,424.997 L 87.2443,424.997 L 87.5574,424.997 L 87.8706,424.997 L 88.1837,424.997 L 88.4969,424.997 L 88.81,424.996 L 89.1232,424.996 L 89.4363,424.996 L 89.7495,424.996 L 90.0626,424.995 L 90.3758,424.995 L 90.6889,424.995 L 91.0021,424.994 L 91.3152,424.994 L 91.6284,424.994 L 91.9415,424.993 L 92.2547,424.993 L 92.5678,424.993 L 92.881,424.992 L 93.1941,424.992 L 93.5073,424.991 L 93.8205,424.991 L 94.1336,424.99 L 94.4468,424.99 L 94.7599,424.989 L 95.0731,424.989 L 95.3862,424.988 L 95.6994,424.987 L 96.0125,424.986 L 96.3257,424.986 L 96.6388,424.985 L 96.952,424.984 L 97.2651,424.983 L 97.5783,424.982 L 97.8914,424.981 L 98.2046,424.98 L 98.5177,424.979 L 98.8309,424.978 L 99.144,424.977 L 99.4572,424.976 L 99.7703,424.974 L 100.083,424.973 L 100.397,424.971 L 100.71,424.97 L 101.023,424.968 L 101.336,424.967 L 101.649,424.965 L 101.962,424.963 L 102.276,424.961 L 102.589,424.959 L 102.902,424.957 L 103.215,424.954 L 103.528,424.952 L 103.841,424.949 L 104.154,424.947 L 104.468,424.944 L 104.781,424.941 L 105.094,424.938 L 105.407,424.935 L 105.72,424.932 L 106.033,424.928 L 106.347,424.925 L 106.66,424.921 L 106.973,424.917 L 107.286,424.913 L 107.599,424.908 L 107.912,424.904 L 108.225,424.899 L 108.539,424.894 L 108.852,424.888 L 109.165,424.883 L 109.478,424.877 L 109.791,424.871 L 110.104,424.865 L 110.418,424.858 L 110.731,424.851 L 111.044,424.844 L 111.357,424.837 L 111.67,424.829 L 111.983,424.821 L 112.296,424.812 L 112.61,424.803 L 112.923,424.794 L 113.236,424.784 L 113.549,424.774 L 113.862,424.764 L 114.175,424.753 L 114.489,424.741 L 114.802,424.729 L 115.115,424.717 L 115.428,424.704 L 115.741,424.69 L 116.054,424.676 L 116.367,424.661 L 116.681,424.646 L 116.994,424.63 L 117.307,424.613 L 117.62,424.596 L 117.933,424.578 L 118.246,424.559 L 118.559,424.54 L 118.873,424.519 L 119.186,424.498 L 119.499,424.476 L 119.812,424.453 L 120.125,424.43 L 120.438,424.405 L 120.752,424.379 L 121.065,424.353 L 121.378,424.325 L 121.691,424.296 L 122.004,424.266 L 122.317,424.235 L 122.63,424.203 L 122.944,424.17 L 123.257,424.135 L 123.57,424.099 L 123.883,424.062 L 124.196,424.023 L 124.509,423.983 L 124.823,423.941 L 125.136,423.898 L 125.449,423.854 L 125.762,423.807 L 126.075,423.759 L 126.388,423.709 L 126.701,423.658 L 127.015,423.604 L 127.328,423.549 L 127.641,423.492 L 127.954,423.433 L 128.267,423.371 L 128.58,423.308 L 128.894,423.242 L 129.207,423.175 L 129.52,423.104 L 129.833,423.032 L 130.146,422.957 L 130.459,422.879 L 130.772,422.799 L 131.086,422.717 L 131.399,422.631 L 131.712,422.543 L 132.025,422.452 L 132.338,422.357 L 132.651,422.26 L 132.964,422.16 L 133.278,422.057 L 133.591,421.95 L 133.904,421.84 L 134.217,421.726 L 134.53,421.609 L 134.843,421.488 L 135.157,421.364 L 135.47,421.235 L 135.783,421.103 L 136.096,420.967 L 136.409,420.827 L 136.722,420.682 L 137.035,420.533 L 137.349,420.38 L 137.662,420.223 L 137.975,420.06 L 138.288,419.894 L 138.601,419.722 L 138.914,419.545 L 139.228,419.364 L 139.541,419.177 L 139.854,418.985 L 140.167,418.788 L 140.48,418.585 L 140.793,418.377 L 141.106,418.163 L 141.42,417.943 L 141.733,417.717 L 142.046,417.486 L 142.359,417.248 L 142.672,417.004 L 142.985,416.754 L 143.299,416.497 L 143.612,416.234 L 143.925,415.963 L 144.238,415.687 L 144.551,415.403 L 144.864,415.112 L 145.177,414.813 L 145.491,414.508 L 145.804,414.195 L 146.117,413.875 L 146.43,413.547 L 146.743,413.211 L 147.056,412.867 L 147.369,412.515 L 147.683,412.155 L 147.996,411.787 L 148.309,411.41 L 148.622,411.025 L 148.935,410.631 L 149.248,410.229 L 149.562,409.817 L 149.875,409.397 L 150.188,408.968 L 150.501,408.529 L 150.814,408.082 L 151.127,407.624 L 151.44,407.158 L 151.754,406.682 L 152.067,406.196 L 152.38,405.7 L 152.693,405.194 L 153.006,404.678 L 153.319,404.153 L 153.633,403.617 L 153.946,403.071 L 154.259,402.514 L 154.572,401.947 L 154.885,401.37 L 155.198,400.782 L 155.511,400.183 L 155.825,399.573 L 156.138,398.953 L 156.451,398.322 L 156.764,397.68 L 157.077,397.027 L 157.39,396.363 L 157.704,395.688 L 158.017,395.002 L 158.33,394.304 L 158.643,393.596 L 158.956,392.876 L 159.269,392.145 L 159.582,391.403 L 159.896,390.65 L 160.209,389.885 L 160.522,389.109 L 160.835,388.322 L 161.148,387.523 L 161.461,386.713 L 161.775,385.892 L 162.088,385.06 L 162.401,384.217 L 162.714,383.362 L 163.027,382.496 L 163.34,381.62 L 163.653,380.732 L 163.967,379.833 L 164.28,378.924 L 164.593,378.004 L 164.906,377.073 L 165.219,376.131 L 165.532,375.179 L 165.845,374.217 L 166.159,373.244 L 166.472,372.261 L 166.785,371.268 L 167.098,370.265 L 167.411,369.252 L 167.724,368.229 L 168.038,367.198 L 168.351,366.156 L 168.664,365.106 L 168.977,364.046 L 169.29,362.978 L 169.603,361.901 L 169.916,360.816 L 170.23,359.723 L 170.543,358.621 L 170.856,357.512 L 171.169,356.395 L 171.482,355.271 L 171.795,354.14 L 172.109,353.002 L 172.422,351.858 L 172.735,350.707 L 173.048,349.55 L 173.361,348.387 L 173.674,347.219 L 173.987,346.046 L 174.301,344.868 L 174.614,343.686 L 174.927,342.499 L 175.24,341.308 L 175.553,340.114 L 175.866,338.916 L 176.18,337.716 L 176.493,336.513 L 176.806,335.307 L 177.119,334.1 L 177.432,332.892 L 177.745,331.682 L 178.058,330.471 L 178.372,329.261 L 178.685,328.05 L 178.998,326.839 L 179.311,325.63 L 179.624,324.421 L 179.937,323.215 L 180.25,322.01 L 180.564,320.807 L 180.877,319.608 L 181.19,318.412 L 181.503,317.219 L 181.816,316.031 L 182.129,314.847 L 182.443,313.668 L 182.756,312.494 L 183.069,311.327 L 183.382,310.165 L 183.695,309.011 L 184.008,307.863 L 184.321,306.723 L 184.635,305.591 L 184.948,304.468 L 185.261,303.353 L 185.574,302.248 L 185.887,301.153 L 186.2,300.068 L 186.514,298.993 L 186.827,297.93 L 187.14,296.878 L 187.453,295.839 L 187.766,294.811 L 188.079,293.797 L 188.392,292.796 L 188.706,291.808 L 189.019,290.835 L 189.332,289.876 L 189.645,288.932 L 189.958,288.003 L 190.271,287.09 L 190.585,286.194 L 190.898,285.313 L 191.211,284.45 L 191.524,283.604 L 191.837,282.776 L 192.15,281.966 L 192.463,281.174 L 192.777,280.401 L 193.09,279.648 L 193.403,278.913 L 193.716,278.199 L 194.029,277.504 L 194.342,276.83 L 194.655,276.177 L 194.969,275.545 L 195.282,274.934 L 195.595,274.345 L 195.908,273.778 L 196.221,273.233 L 196.534,272.71 L 196.848,272.21 L 197.161,271.733 L 197.474,271.28 L 197.787,270.849 L 198.1,270.442 L 198.413,270.059 L 198.726,269.699 L 199.04,269.364 L 199.353,269.053 L 199.666,268.767 L 199.979,268.505 L 200.292,268.267 L 200.605,268.055 L 200.919,267.867 L 201.232,267.705 L 201.545,267.567 L 201.858,267.454 L 202.171,267.367 L 202.484,267.305 L 202.797,267.268 L 203.111,267.256 L 203.424,267.27 L 203.737,267.309 L 204.05,267.373 L 204.363,267.462 L 204.676,267.577 L 204.99,267.716 L 205.303,267.881 L 205.616,268.071 L 205.929,268.285 L 206.242,268.525 L 206.555,268.788 L 206.868,269.077 L 207.182,269.39 L 207.495,269.727 L 207.808,270.088 L 208.121,270.473 L 208.434,270.882 L 208.747,271.314 L 209.061,271.77 L 209.374,272.249 L 209.687,272.751 L 210,273.275 L 210.313,273.822 L 210.626,274.391 L 210.939,274.982 L 211.253,275.594 L 211.566,276.228 L 211.879,276.883 L 212.192,277.558 L 212.505,278.254 L 212.818,278.97 L 213.131,279.706 L 213.445,280.462 L 213.758,281.236 L 214.071,282.029 L 214.384,282.841 L 214.697,283.67 L 215.01,284.518 L 215.324,285.382 L 215.637,286.264 L 215.95,287.162 L 216.263,288.076 L 216.576,289.006 L 216.889,289.951 L 217.202,290.911 L 217.516,291.885 L 217.829,292.874 L 218.142,293.876 L 218.455,294.892 L 218.768,295.92 L 219.081,296.961 L 219.395,298.014 L 219.708,299.078 L 220.021,300.153 L 220.334,301.239 L 220.647,302.335 L 220.96,303.441 L 221.273,304.556 L 221.587,305.68 L 221.9,306.813 L 222.213,307.953 L 222.526,309.102 L 222.839,310.257 L 223.152,311.419 L 223.466,312.587 L 223.779,313.761 L 224.092,314.94 L 224.405,316.124 L 224.718,317.313 L 225.031,318.506 L 225.344,319.702 L 225.658,320.902 L 225.971,322.105 L 226.284,323.31 L 226.597,324.517 L 226.91,325.725 L 227.223,326.935 L 227.536,328.145 L 227.85,329.356 L 228.163,330.567 L 228.476,331.777 L 228.789,332.987 L 229.102,334.196 L 229.415,335.403 L 229.729,336.608 L 230.042,337.811 L 230.355,339.011 L 230.668,340.208 L 230.981,341.402 L 231.294,342.593 L 231.607,343.779 L 231.921,344.961 L 232.234,346.139 L 232.547,347.312 L 232.86,348.479 L 233.173,349.641 L 233.486,350.798 L 233.8,351.948 L 234.113,353.092 L 234.426,354.23 L 234.739,355.36 L 235.052,356.484 L 235.365,357.6 L 235.678,358.708 L 235.992,359.809 L 236.305,360.902 L 236.618,361.987 L 236.931,363.063 L 237.244,364.13 L 237.557,365.189 L 237.871,366.239 L 238.184,367.279 L 238.497,368.31 L 238.81,369.332 L 239.123,370.344 L 239.436,371.346 L 239.749,372.339 L 240.063,373.321 L 240.376,374.293 L 240.689,375.255 L 241.002,376.206 L 241.315,377.147 L 241.628,378.077 L 241.941,378.996 L 242.255,379.905 L 242.568,380.802 L 242.881,381.689 L 243.194,382.565 L 243.507,383.43 L 243.82,384.284 L 244.134,385.126 L 244.447,385.957 L 244.76,386.778 L 245.073,387.586 L 245.386,388.384 L 245.699,389.171 L 246.012,389.946 L 246.326,390.709 L 246.639,391.462 L 246.952,392.203 L 247.265,392.933 L 247.578,393.652 L 247.891,394.36 L 248.205,395.056 L 248.518,395.742 L 248.831,396.416 L 249.144,397.079 L 249.457,397.731 L 249.77,398.372 L 250.083,399.002 L 250.397,399.622 L 250.71,400.23 L 251.023,400.828 L 251.336,401.416 L 251.649,401.992 L 251.962,402.558 L 252.276,403.114 L 252.589,403.659 L 252.902,404.195 L 253.215,404.719 L 253.528,405.234 L 253.841,405.739 L 254.154,406.234 L 254.468,406.719 L 254.781,407.195 L 255.094,407.661 L 255.407,408.117 L 255.72,408.564 L 256.033,409.002 L 256.347,409.431 L 256.66,409.85 L 256.973,410.261 L 257.286,410.663 L 257.599,411.056 L 257.912,411.44 L 258.225,411.816 L 258.539,412.184 L 258.852,412.543 L 259.165,412.894 L 259.478,413.237 L 259.791,413.573 L 260.104,413.9 L 260.417,414.22 L 260.731,414.532 L 261.044,414.837 L 261.357,415.135 L 261.67,415.425 L 261.983,415.709 L 262.296,415.985 L 262.61,416.255 L 262.923,416.517 L 263.236,416.774 L 263.549,417.024 L 263.862,417.267 L 264.175,417.504 L 264.488,417.735 L 264.802,417.961 L 265.115,418.18 L 265.428,418.393 L 265.741,418.601 L 266.054,418.803 L 266.367,419 L 266.681,419.192 L 266.994,419.378 L 267.307,419.559 L 267.62,419.736 L 267.933,419.907 L 268.246,420.073 L 268.559,420.235 L 268.873,420.393 L 269.186,420.545 L 269.499,420.694 L 269.812,420.838 L 270.125,420.978 L 270.438,421.114 L 270.752,421.246 L 271.065,421.374 L 271.378,421.498 L 271.691,421.618 L 272.004,421.735 L 272.317,421.848 L 272.63,421.958 L 272.944,422.065 L 273.257,422.168 L 273.57,422.268 L 273.883,422.365 L 274.196,422.459 L 274.509,422.55 L 274.822,422.638 L 275.136,422.723 L 275.449,422.806 L 275.762,422.886 L 276.075,422.963 L 276.388,423.038 L 276.701,423.11 L 277.015,423.18 L 277.328,423.248 L 277.641,423.313 L 277.954,423.376 L 278.267,423.438 L 278.58,423.497 L 278.893,423.554 L 279.207,423.609 L 279.52,423.662 L 279.833,423.713 L 280.146,423.763 L 280.459,423.811 L 280.772,423.857 L 281.086,423.902 L 281.399,423.945 L 281.712,423.986 L 282.025,424.026 L 282.338,424.065 L 282.651,424.102 L 282.964,424.138 L 283.278,424.173 L 283.591,424.206 L 283.904,424.238 L 284.217,424.269 L 284.53,424.299 L 284.843,424.327 L 285.157,424.355 L 285.47,424.381 L 285.783,424.407 L 286.096,424.432 L 286.409,424.455 L 286.722,424.478 L 287.035,424.5 L 287.349,424.521 L 287.662,424.541 L 287.975,424.561 L 288.288,424.579 L 288.601,424.597 L 288.914,424.615 L 289.228,424.631 L 289.541,424.647 L 289.854,424.662 L 290.167,424.677 L 290.48,424.691 L 290.793,424.705 L 291.106,424.718 L 291.42,424.73 L 291.733,424.742 L 292.046,424.754 L 292.359,424.765 L 292.672,424.775 L 292.985,424.785 L 293.298,424.795 L 293.612,424.804 L 293.925,424.813 L 294.238,424.821 L 294.551,424.83 L 294.864,424.837 L 295.177,424.845 L 295.491,424.852 L 295.804,424.859 L 296.117,424.865 L 296.43,424.872 L 296.743,424.878 L 297.056,424.883 L 297.369,424.889 L 297.683,424.894 L 297.996,424.899 L 298.309,424.904 L 298.622,424.908 L 298.935,424.913 L 299.248,424.917 L 299.562,424.921 L 299.875,424.925 L 300.188,424.928 L 300.501,424.932 L 300.814,424.935"
       id="path75"
       inkscape:connector-curvature="0"
       style="fill:#ff0000;fill-opacity:0.11818183;stroke:#ff0000;stroke-width:3;stroke-opacity:1;stroke-dasharray:none"
       sodipodi:nodetypes="cccccccccccccccccccccccccccccccccccccccccccccccccccccccccccccccccccccccccccccccccccccccccccccccccccccccccccccccccccccccccccccccccccccccccccccccccccccccccccccccccccccccccccccccccccccccccccccccccccccccccccccccccccccccccccccccccccccccccccccccccccccccccccccccccccccccccccccccccccccccccccccccccccccccccccccccccccccccccccccccccccccccccccccccccccccccccccccccccccccccccccccccccccccccccccccccccccccccccccccccccccccccccccccccccccccccccccccccccccccccccccccccccccccccccccccccccccccccccccccccccccccccccccccccccccccccccccccccccccccccccccccccccccccccccccccccccccccccccccccccccccccccccccccccccccccccccccccccccccccccccccccccccccccccccccccccccccccccccccccccccccccccccccccccccccccccccccccccccccccccccccccccccccccccccccccccccccccccccccccccccccccccccccccccccccccccccccccccccccccccccccccccccc" />
  </g>
  <g
     transform="matrix(2,0,0,1,-72.022148,-13.75)"
     style="text-anchor:middle;fill:none;stroke:#000000;stroke-width:2.5;stroke-linejoin:miter"
     id="frame_0">
    <rect
       id="frame_0_border"
       x="60"
       y="25"
       width="240.73532"
       height="400"
       style="stroke-width:1.41421357;stroke-miterlimit:4;stroke-dasharray:none" />
    <text
       y="342.94678"
       x="255.73965"
       id="frame_0_bottomlabel"
       font-size="30"
       dominant-baseline="middle"
       style="font-size:21.21320343px;text-anchor:middle;fill:#000000;stroke:none"
       transform="scale(0.70710677,1.4142136)">wavelength [nm]</text>
    <g
       id="frame_0_bottomticks">
      <path
         d="M 144.361,425 L 144.361,405"
         id="path108"
         inkscape:connector-curvature="0"
         style="stroke-width:1.76776695" />
      <text
         font-size="30"
         transform="scale(0.70710678,1.4142136)"
         dominant-baseline="middle"
         id="text110"
         style="font-size:21.21320343px;text-anchor:middle;fill:#000000;stroke:none"
         x="204.002"
         y="321.73358">500</text>
      <path
         d="M 74.0602,425 L 74.0602,415"
         id="path116"
         inkscape:connector-curvature="0"
         style="stroke-width:1.76776695" />
      <path
         d="M 214.662,425 L 214.662,415"
         id="path128"
         inkscape:connector-curvature="0"
         style="stroke-width:1.76776695" />
      <path
         d="M 284.963,425 L 284.963,415"
         id="path134"
         inkscape:connector-curvature="0"
         style="stroke-width:1.76776695" />
      <text
         y="321.73358"
         x="104.96648"
         style="font-size:21.21320343px;text-anchor:middle;fill:#000000;stroke:none"
         id="text3118"
         dominant-baseline="middle"
         font-size="30"
         transform="scale(0.70710678,1.4142136)">400</text>
      <text
         y="321.73358"
         x="303.64835"
         style="font-size:21.21320343px;text-anchor:middle;fill:#000000;stroke:none"
         id="text3120"
         dominant-baseline="middle"
         font-size="30"
         transform="scale(0.70710678,1.4142136)">600</text>
      <text
         font-size="30"
         dominant-baseline="middle"
         id="text3122"
         style="font-size:21.21320343px;text-anchor:middle;fill:#000000;stroke:none"
         x="403.03714"
         y="321.73358"
         transform="scale(0.70710678,1.4142136)">700</text>
    </g>
    <g
       id="frame_0_leftticks" />
    <g
       id="frame_0_topticks" />
    <g
       id="frame_0_rightticks" />
    <g
       id="g4268"
       transform="translate(0,-49.804923)">
      <text
         y="69.432335"
         x="-230.07867"
         style="font-size:21.21320343px;text-anchor:middle;fill:#000000;stroke:none"
         dominant-baseline="middle"
         transform="matrix(0,-1.4142136,0.70710677,0,0,0)"
         font-size="30"
         id="frame_0_leftlabel">response</text>
      <text
         id="text4264"
         font-size="30"
         transform="matrix(0,-1.4142136,0.70710677,0,0,0)"
         dominant-baseline="middle"
         style="font-size:21.21320343px;text-anchor:middle;fill:#000000;stroke:none"
         x="-169.99979"
         y="69.432335">to</text>
      <text
         y="69.432335"
         x="-135.32637"
         style="font-size:21.21320343px;text-anchor:middle;fill:#000000;stroke:none"
         dominant-baseline="middle"
         transform="matrix(0,-1.4142136,0.70710677,0,0,0)"
         font-size="30"
         id="text4266">light</text>
    </g>
  </g>
  <g
     transform="translate(-119.03412,273.03214)"
     id="g4193"
     style="text-anchor:middle;fill:none;stroke:#000000;stroke-width:2.5;stroke-linejoin:miter">
    <text
       y="-99.834999"
       x="509.86374"
       style="font-size:30px;text-anchor:middle;fill:#000000;stroke:none"
       dominant-baseline="middle"
       font-size="30"
       id="frame_0_bottomlabel-5">human</text>
    <text
       id="text4191"
       font-size="30"
       dominant-baseline="middle"
       style="font-size:30px;text-anchor:middle;fill:#000000;stroke:none"
       x="509.86374"
       y="-71.834999">vision</text>
  </g>
  <text
     y="346.83997"
     x="362.19629"
     style="font-size:30px;text-anchor:middle;fill:#ff0000;stroke:none"
     dominant-baseline="middle"
     font-size="30"
     id="frame_0_bottomlabel-5-2">red</text>
  <path
     style="color:#000000;fill:url(#linearGradient4260);fill-opacity:1;stroke:none;stroke-width:2;marker:none;visibility:visible;display:inline;overflow:visible;enable-background:accumulate"
     d="M 273.12,320.92543 L 274.06701,326.03933 L 280.45938,329.40125 L 285.71534,325.18702 L 286.04679,322.53536 L 282.35342,315.29068 L 278.04449,314.67512 L 274.82463,317.32677 z"
     id="path4240"
     inkscape:connector-curvature="0"
     transform="translate(-2.9275009e-6,0)"
     sodipodi:nodetypes="ccccccccc" />
  <text
     id="text3237"
     font-size="30"
     dominant-baseline="middle"
     style="font-size:30px;text-anchor:middle;fill:#006400;fill-opacity:1;stroke:none"
     x="265.76767"
     y="329.69711">green</text>
  <text
     y="391.83997"
     x="117.91051"
     style="font-size:30px;text-anchor:middle;fill:#000080;fill-opacity:1;stroke:none"
     dominant-baseline="middle"
     font-size="30"
     id="text4011">blue</text>
  <text
     id="text4245"
     style="font-size:30px;font-style:normal;font-variant:normal;font-weight:normal;font-stretch:normal;text-indent:0;text-align:start;text-decoration:none;line-height:normal;letter-spacing:normal;word-spacing:normal;text-transform:none;direction:ltr;block-progression:tb;writing-mode:lr-tb;text-anchor:middle;baseline-shift:baseline;color:#000000;fill:#000000;fill-opacity:1;fill-rule:nonzero;stroke:none;stroke-width:2.5;marker:none;visibility:visible;display:inline;overflow:visible;enable-background:accumulate;font-family:'Helvetica, Arial, FreeSans, Sans, sans, sans-serif';-inkscape-font-specification:Sans"
     xml:space="preserve"
     transform="translate(-0.36237139,-6.3511307)"><textPath
       xlink:href="#path4220"
       startOffset="50%"
       id="textPath4222"><tspan
   id="tspan4247">5778K blackbody (sunlight)</tspan></textPath></text>
  <path
     sodipodi:nodetypes="ccccccccccccccccccccccccccccccccccccccccccccccccccccccccccccccccccccccccccccccccccccccccccccccccccccccccccccccccccccccccccccccccccccccccccccccccccccccccccccccccccccccccc"
     d="M 47.977852,127.72228 L 50.830652,125.44475 L 53.683652,123.21335 L 56.536452,121.02433 L 59.389252,118.88144 L 62.242052,116.78342 L 65.095052,114.72903 L 67.947852,112.71952 L 70.800652,110.75614 L 73.653452,108.83639 L 76.506452,106.96151 L 79.359252,105.13151 L 82.212052,103.34639 L 85.064852,101.6049 L 87.917852,99.908279 L 90.770652,98.256539 L 93.623455,96.647189 L 96.476255,95.082719 L 99.329255,93.561869 L 102.18206,92.084659 L 105.03486,90.651079 L 107.88786,89.259879 L 110.74066,87.911059 L 113.59346,86.604629 L 116.44626,85.340589 L 119.29926,84.117679 L 122.15206,82.93715 L 125.00486,81.79777 L 127.85766,80.69952 L 130.70986,79.63991 L 133.56386,78.62269 L 136.41586,77.64412 L 139.26986,76.70419 L 142.12186,75.80414 L 144.97386,74.94275 L 147.82786,74.11875 L 150.67986,73.33339 L 153.53386,72.58419 L 156.38586,71.87363 L 159.23986,71.19798 L 162.09186,70.55972 L 164.94386,69.95637 L 167.79786,69.38793 L 170.64986,68.85438 L 173.50386,68.35575 L 176.35586,67.89077 L 179.20986,67.45944 L 182.06186,67.06178 L 184.91386,66.69528 L 187.76786,66.3612 L 190.61986,66.05952 L 193.47386,65.78776 L 196.32586,65.54842 L 199.17986,65.33774 L 202.03186,65.15823 L 204.88386,65.00739 L 207.73786,64.88523 L 210.58986,64.79173 L 213.44386,64.72691 L 216.29586,64.68951 L 219.14986,64.67829 L 222.00186,64.6945 L 224.85386,64.73813 L 227.70786,64.80545 L 230.55986,64.89894 L 233.41386,65.01861 L 236.26586,65.16073 L 239.11986,65.32777 L 241.97186,65.5185 L 244.82386,65.73291 L 247.67786,65.96977 L 250.52986,66.22906 L 253.38386,66.51079 L 256.23586,66.81246 L 259.08986,67.13658 L 261.94186,67.48064 L 264.79386,67.84589 L 267.64786,68.23109 L 270.49986,68.63498 L 273.35386,69.05882 L 276.20586,69.50012 L 279.05986,69.96136 L 281.91186,70.44005 L 284.76386,70.93619 L 287.61786,71.44854 L 290.46986,71.97959 L 293.32386,72.5256 L 296.17586,73.08906 L 299.02986,73.66748 L 301.88186,74.26086 L 304.73386,74.87044 L 307.58786,75.49374 L 310.43986,76.132 L 313.29386,76.78397 L 316.14586,77.4509 L 318.99986,78.13029 L 321.85186,78.82215 L 324.70386,79.52772 L 327.55786,80.24451 L 330.40986,80.97502 L 333.26386,81.71674 L 336.11586,82.46968 L 338.96786,83.23384 L 341.82186,84.009219 L 344.67386,84.794579 L 347.52786,85.591149 L 350.37986,86.397699 L 353.23386,87.214219 L 356.08586,88.039459 L 358.93786,88.874679 L 361.79186,89.718619 L 364.64386,90.571289 L 367.49786,91.432689 L 370.34986,92.301569 L 373.20386,93.179169 L 376.05586,94.064249 L 378.90786,94.956809 L 381.76186,95.855599 L 384.61386,96.763129 L 387.46786,97.676879 L 390.31986,98.596859 L 393.17386,99.523079 L 396.02586,100.45554 L 398.87786,101.39422 L 401.73186,102.33914 L 404.58386,103.28904 L 407.43786,104.24393 L 410.28986,105.20381 L 413.14386,106.16867 L 415.99586,107.13852 L 418.84786,108.11336 L 421.70186,109.09194 L 424.55386,110.07425 L 427.40786,111.06031 L 430.25986,112.05135 L 433.11386,113.04489 L 435.96586,114.04216 L 438.81786,115.04318 L 441.67186,116.04668 L 444.52386,117.05393 L 447.37786,118.06367 L 450.22986,119.07591 L 453.08386,120.09063 L 455.93586,121.10785 L 458.78786,122.12632 L 461.64186,123.14853 L 464.49386,124.17073 L 467.34786,125.19543 L 470.19986,126.22263 L 473.05386,127.25107 L 475.90586,128.27951 L 478.75786,129.31044 L 481.61186,130.34262 L 484.46386,131.3748 L 487.31786,132.40823 L 490.16986,133.4429 L 493.02386,134.47757 L 495.87586,135.51349 L 498.72786,136.54941 L 501.58186,137.58533 L 504.43386,138.6225 L 507.28786,139.65842 L 510.13986,140.69558 L 512.99386,141.7315 L 515.84586,142.76742 L 518.69786,143.80334 L 521.55186,144.83926 L 524.40386,145.87393 L 527.25786,146.9086"
     id="path4220"
     inkscape:connector-curvature="0"
     style="text-anchor:middle;fill:none;stroke:none" />
</svg>
